SplineFontDB: 3.2
FontName: Caslongue-Elasticgirls
FullName: Caslongue Elasticgirls
FamilyName: Caslongue-Elasticgirls
Weight: light
Copyright: Copyright (c) 2020, Ayasha Khan, Laura Conant, Lena Salabert.\nUne fonte dessinee a l'occasion du workshop Meta-elastique initie a la Winter School de l'erg, du 21 au 23 janvier 2019, avec Antoine Gelgon et Ludivine Loiseau en booteur de feu. En point de depart, le premier caractere metallique arrondi edite en Europe, le Four-Line Rounded de la fonderie Caslon. Cette fonte a ete redessinee sur le logiciel Metapost. 
Version: 001.000
ItalicAngle: 0
UnderlinePosition: -150
UnderlineWidth: 50
Ascent: 800
Descent: 200
InvalidEm: 0
sfntRevision: 0x00010000
LayerCount: 2
Layer: 0 0 "Arri+AOgA-re" 1
Layer: 1 0 "Avant" 0
XUID: [1021 842 695120675 4924757]
StyleMap: 0x0000
FSType: 0
OS2Version: 4
OS2_WeightWidthSlopeOnly: 0
OS2_UseTypoMetrics: 1
CreationTime: 1579771542
ModificationTime: 1592553349
PfmFamily: 17
TTFWeight: 400
TTFWidth: 5
LineGap: 90
VLineGap: 0
Panose: 2 0 5 3 0 0 0 0 0 0
OS2TypoAscent: 800
OS2TypoAOffset: 0
OS2TypoDescent: -200
OS2TypoDOffset: 0
OS2TypoLinegap: 90
OS2WinAscent: 800
OS2WinAOffset: 0
OS2WinDescent: 199
OS2WinDOffset: 0
HheadAscent: 800
HheadAOffset: 0
HheadDescent: -199
HheadDOffset: 0
OS2SubXSize: 650
OS2SubYSize: 700
OS2SubXOff: 0
OS2SubYOff: 140
OS2SupXSize: 650
OS2SupYSize: 700
OS2SupXOff: 0
OS2SupYOff: 480
OS2StrikeYSize: 49
OS2StrikeYPos: 258
OS2CapHeight: 520
OS2XHeight: 767
OS2Vendor: 'PfEd'
OS2CodePages: 00000001.00000000
OS2UnicodeRanges: 00000023.00000000.00000000.00000000
MarkAttachClasses: 1
DEI: 91125

StartChar: .notdef
Encoding: 65536 -1 0
Width: 639
Flags: MW
HStem: -17.875 68.75<113.75 526.25 113.75 595> 646.25 68.75<113.75 526.25 113.75 113.75>
VStem: 45 68.75<50.875 50.875 50.875 646.25> 526.25 68.75<50.875 646.25 646.25 646.25>
LayerCount: 2
Fore
SplineSet
45 -17.875 m 1
 45 715 l 1
 595 715 l 1
 595 -17.875 l 1
 45 -17.875 l 1
113.75 50.875 m 1
 526.25 50.875 l 1
 526.25 646.25 l 1
 113.75 646.25 l 1
 113.75 50.875 l 1
EndSplineSet
Validated: 524289
EndChar

StartChar: uni0000
Encoding: 0 -1 1
AltUni2: 000000.ffffffff.0
Width: 90
GlyphClass: 2
Flags: MW
VStem: 45 1.74695
LayerCount: 2
Fore
SplineSet
45.8828125 947.05078125 m 2
 45.8896484375 947.051757812 45.8984375 947.051757812 45.9033203125 947.051757812 c 0
 46.380859375 947.051757812 46.767578125 946.665039062 46.767578125 946.188476562 c 0
 46.767578125 945.7890625 46.4482421875 945.409179688 46.0546875 945.33984375 c 2
 46.0546875 878.28515625 l 2
 46.44140625 878.211914062 46.7568359375 877.831054688 46.7568359375 877.438476562 c 0
 46.7568359375 877.043945312 46.44140625 876.665039062 46.0546875 876.590820312 c 2
 46.0546875 808.7109375 l 2
 46.056640625 808.704101562 46.056640625 808.693359375 46.056640625 808.684570312 c 0
 46.056640625 808.678710938 46.056640625 808.66796875 46.0546875 808.661132812 c 2
 46.0546875 740.013671875 l 2
 46.064453125 739.995117188 46.072265625 739.962890625 46.072265625 739.94140625 c 0
 46.072265625 739.919921875 46.064453125 739.887695312 46.0546875 739.868164062 c 2
 46.0546875 671.2109375 l 2
 46.056640625 671.204101562 46.056640625 671.192382812 46.056640625 671.184570312 c 0
 46.056640625 671.178710938 46.056640625 671.166015625 46.0546875 671.16015625 c 2
 46.0546875 602.513671875 l 2
 46.064453125 602.495117188 46.072265625 602.4609375 46.072265625 602.44140625 c 0
 46.072265625 602.419921875 46.064453125 602.387695312 46.0546875 602.368164062 c 2
 46.0546875 533.7109375 l 2
 46.056640625 533.703125 46.056640625 533.692382812 46.056640625 533.684570312 c 0
 46.056640625 533.678710938 46.056640625 533.666015625 46.0546875 533.66015625 c 2
 46.0546875 465.01171875 l 2
 46.064453125 464.993164062 46.072265625 464.9609375 46.072265625 464.939453125 c 0
 46.072265625 464.919921875 46.064453125 464.887695312 46.0546875 464.8671875 c 2
 46.0546875 396.263671875 l 2
 46.0634765625 396.24609375 46.0703125 396.213867188 46.0703125 396.193359375 c 0
 46.0703125 396.172851562 46.0634765625 396.140625 46.0546875 396.122070312 c 2
 46.0546875 327.4609375 l 2
 46.056640625 327.454101562 46.056640625 327.443359375 46.056640625 327.436523438 c 0
 46.056640625 327.428710938 46.056640625 327.41796875 46.0546875 327.411132812 c 2
 46.0546875 258.763671875 l 2
 46.064453125 258.745117188 46.072265625 258.712890625 46.072265625 258.69140625 c 0
 46.072265625 258.670898438 46.064453125 258.637695312 46.0546875 258.618164062 c 2
 46.0546875 189.9609375 l 2
 46.056640625 189.954101562 46.056640625 189.942382812 46.056640625 189.934570312 c 0
 46.056640625 189.928710938 46.056640625 189.91796875 46.0546875 189.91015625 c 2
 46.0546875 122.033203125 l 2
 46.44140625 121.961914062 46.7568359375 121.581054688 46.7568359375 121.186523438 c 0
 46.7568359375 120.793945312 46.44140625 120.413085938 46.0546875 120.33984375 c 2
 46.0546875 52.4609375 l 2
 46.056640625 52.4541015625 46.056640625 52.4423828125 46.056640625 52.4345703125 c 0
 46.056640625 52.4287109375 46.056640625 52.4169921875 46.0546875 52.41015625 c 2
 46.0546875 -16.23828125 l 2
 46.064453125 -16.2568359375 46.072265625 -16.2890625 46.072265625 -16.30859375 c 0
 46.072265625 -16.330078125 46.064453125 -16.3623046875 46.0546875 -16.3818359375 c 2
 46.0546875 -85.041015625 l 2
 46.056640625 -85.046875 46.056640625 -85.0576171875 46.056640625 -85.0654296875 c 0
 46.056640625 -85.072265625 46.056640625 -85.083984375 46.0546875 -85.08984375 c 2
 46.0546875 -152.966796875 l 2
 46.4375 -153.043945312 46.7470703125 -153.421875 46.7470703125 -153.8125 c 0
 46.7470703125 -154.2890625 46.3603515625 -154.674804688 45.884765625 -154.674804688 c 2
 45.8828125 -154.674804688 l 2
 45.87890625 -154.674804688 45.869140625 -154.67578125 45.86328125 -154.67578125 c 0
 45.38671875 -154.67578125 45 -154.2890625 45 -153.8125 c 0
 45 -153.413085938 45.3203125 -153.033203125 45.7109375 -152.962890625 c 2
 45.7109375 -85.12109375 l 2
 45.70703125 -85.10546875 45.7021484375 -85.0791015625 45.7021484375 -85.0634765625 c 0
 45.7021484375 -85.046875 45.70703125 -85.0224609375 45.7109375 -85.0048828125 c 2
 45.7109375 52.3828125 l 2
 45.70703125 52.3984375 45.7021484375 52.4228515625 45.7021484375 52.4384765625 c 0
 45.7021484375 52.4541015625 45.70703125 52.4794921875 45.7109375 52.4951171875 c 2
 45.7109375 120.34375 l 2
 45.32421875 120.41796875 45.0107421875 120.795898438 45.0107421875 121.19140625 c 0
 45.0107421875 121.583984375 45.32421875 121.96484375 45.7109375 122.038085938 c 2
 45.7109375 189.916992188 l 2
 45.7099609375 189.923828125 45.7099609375 189.934570312 45.7099609375 189.942382812 c 0
 45.7099609375 189.94921875 45.7099609375 189.9609375 45.7109375 189.966796875 c 2
 45.7109375 327.41796875 l 2
 45.7099609375 327.423828125 45.7099609375 327.434570312 45.7099609375 327.443359375 c 0
 45.7099609375 327.450195312 45.7099609375 327.4609375 45.7109375 327.466796875 c 2
 45.7109375 464.859375 l 2
 45.7001953125 464.879882812 45.693359375 464.915039062 45.693359375 464.938476562 c 0
 45.693359375 464.9609375 45.7001953125 464.99609375 45.7109375 465.016601562 c 2
 45.7109375 533.6328125 l 2
 45.70703125 533.6484375 45.7021484375 533.672851562 45.7021484375 533.6875 c 0
 45.7021484375 533.704101562 45.70703125 533.729492188 45.7109375 533.745117188 c 2
 45.7109375 671.129882812 l 2
 45.70703125 671.14453125 45.7021484375 671.170898438 45.7021484375 671.186523438 c 0
 45.7021484375 671.204101562 45.70703125 671.229492188 45.7109375 671.245117188 c 2
 45.7109375 808.66796875 l 2
 45.7099609375 808.673828125 45.7099609375 808.684570312 45.7099609375 808.693359375 c 0
 45.7099609375 808.700195312 45.7099609375 808.7109375 45.7109375 808.716796875 c 2
 45.7109375 876.59375 l 2
 45.32421875 876.66796875 45.0107421875 877.046875 45.0107421875 877.44140625 c 0
 45.0107421875 877.8359375 45.32421875 878.215820312 45.7109375 878.290039062 c 2
 45.7109375 945.342773438 l 2
 45.3291015625 945.419921875 45.0205078125 945.797851562 45.0205078125 946.188476562 c 0
 45.0205078125 946.665039062 45.40625 947.05078125 45.8818359375 947.05078125 c 2
 45.8828125 947.05078125 l 2
EndSplineSet
Validated: 524289
EndChar

StartChar: exclam
Encoding: 33 33 3
Width: 166
GlyphClass: 2
Flags: MW
HStem: 0.110107 6.08411
VStem: 33.7978 6.2251
LayerCount: 2
Fore
SplineSet
36.9111328125 6.1943359375 m 1
 36.982421875 6.1943359375 l 2
 38.6611328125 6.1943359375 40.0244140625 4.83203125 40.0244140625 3.1533203125 c 0
 40.0244140625 1.47265625 38.6611328125 0.109375 36.982421875 0.109375 c 0
 36.962890625 0.109375 36.9306640625 0.111328125 36.9111328125 0.111328125 c 0
 36.8916015625 0.111328125 36.861328125 0.109375 36.8408203125 0.109375 c 0
 35.162109375 0.109375 33.7998046875 1.47265625 33.7998046875 3.1533203125 c 0
 33.7998046875 4.83203125 35.162109375 6.1943359375 36.8408203125 6.1943359375 c 2
 36.9111328125 6.1943359375 l 1
122.3359375 587.861328125 m 0
 123.08203125 587.876953125 123.8125 587.859375 124.524414062 587.80859375 c 0
 130.233398438 587.413085938 134.8984375 584.5859375 137.661132812 580.092773438 c 0
 143.188476562 571.106445312 142.551757812 556.7421875 139.068359375 537.999023438 c 0
 135.584960938 519.254882812 128.864257812 496.112304688 120.481445312 470.24609375 c 0
 103.7109375 418.515625 80.265625 355.9296875 62.6796875 297.036132812 c 0
 45.0927734375 238.142578125 33.525390625 182.821289062 39.9052734375 146.640625 c 0
 39.9384765625 146.473632812 39.966796875 146.202148438 39.966796875 146.03125 c 0
 39.966796875 144.353515625 38.6044921875 142.990234375 36.923828125 142.990234375 c 0
 35.4765625 142.990234375 34.12890625 144.151367188 33.916015625 145.583984375 c 0
 27.140625 184.004882812 39.1767578125 239.595703125 56.8486328125 298.77734375 c 0
 74.5234375 357.958007812 97.9931640625 420.606445312 114.693359375 472.123046875 c 0
 123.043945312 497.880859375 129.698242188 520.8671875 133.087890625 539.109375 c 0
 136.478515625 557.353515625 136.216796875 570.831054688 132.48046875 576.907226562 c 0
 130.612304688 579.943359375 128.23828125 581.454101562 124.103515625 581.741210938 c 0
 119.96875 582.02734375 114.049804688 580.737304688 106.393554688 577.31640625 c 0
 91.078125 570.474609375 68.9443359375 555.315429688 38.865234375 530.07421875 c 0
 38.3876953125 529.650390625 37.48046875 529.3046875 36.84375 529.3046875 c 0
 35.1640625 529.3046875 33.80078125 530.66796875 33.80078125 532.346679688 c 0
 33.80078125 533.16015625 34.318359375 534.229492188 34.955078125 534.733398438 c 0
 65.2373046875 560.142578125 87.5537109375 575.5625 103.912109375 582.87109375 c 0
 111.069335938 586.0703125 117.112304688 587.756835938 122.3359375 587.861328125 c 0
EndSplineSet
Validated: 524321
EndChar

StartChar: quotedbl
Encoding: 34 34 4
Width: 183
GlyphClass: 2
Flags: MW
HStem: 413.78 137.761
VStem: 38.6373 6.05054 111.637 6.03711
LayerCount: 2
Fore
SplineSet
140.8203125 551.541015625 m 0
 141.110351562 551.546875 141.395507812 551.540039062 141.68359375 551.51953125 c 0
 143.981445312 551.360351562 146.208007812 550.036132812 147.3671875 548.15234375 c 0
 149.685546875 544.3828125 149.177734375 539.665039062 148.076171875 533.736328125 c 0
 146.974609375 527.806640625 144.888671875 520.646484375 142.30078125 512.666992188 c 0
 137.127929688 496.708007812 129.935546875 477.5078125 124.564453125 459.522460938 c 0
 119.193359375 441.536132812 115.806640625 424.640625 117.629882812 414.306640625 c 0
 117.654296875 414.1640625 117.674804688 413.926757812 117.674804688 413.779296875 c 0
 117.674804688 412.100585938 116.311523438 410.737304688 114.633789062 410.737304688 c 0
 113.223632812 410.737304688 111.8828125 411.864257812 111.637695312 413.250976562 c 0
 109.419921875 425.826171875 113.279296875 442.990234375 118.736328125 461.262695312 c 0
 124.193359375 479.537109375 131.408203125 498.795898438 136.512695312 514.541992188 c 0
 139.064453125 522.415039062 141.083984375 529.41796875 142.09375 534.846679688 c 0
 143.102539062 540.27734375 142.7109375 544.109375 142.184570312 544.965820312 c 0
 141.920898438 545.393554688 141.985351562 545.40234375 141.262695312 545.452148438 c 0
 140.536132812 545.502929688 139 545.241210938 136.829101562 544.272460938 c 0
 132.48828125 542.33203125 125.752929688 537.765625 116.587890625 530.07421875 c 0
 116.108398438 529.650390625 115.203125 529.3046875 114.564453125 529.3046875 c 0
 112.884765625 529.3046875 111.521484375 530.66796875 111.521484375 532.346679688 c 0
 111.521484375 533.16015625 112.0390625 534.229492188 112.677734375 534.733398438 c 0
 122.046875 542.594726562 128.9609375 547.420898438 134.346679688 549.827148438 c 0
 136.703125 550.879882812 138.794921875 551.5078125 140.8203125 551.541015625 c 0
67.8203125 551.541015625 m 0
 68.1103515625 551.546875 68.396484375 551.540039062 68.68359375 551.51953125 c 0
 70.982421875 551.360351562 73.208984375 550.036132812 74.3681640625 548.15234375 c 0
 76.6845703125 544.3828125 76.1787109375 539.665039062 75.0771484375 533.736328125 c 0
 73.974609375 527.806640625 71.88671875 520.646484375 69.30078125 512.666992188 c 0
 64.1259765625 496.708007812 56.9365234375 477.5078125 51.5654296875 459.522460938 c 0
 46.1953125 441.536132812 42.8037109375 424.640625 44.626953125 414.306640625 c 0
 44.66015625 414.142578125 44.6884765625 413.870117188 44.6884765625 413.69921875 c 0
 44.6884765625 412.020507812 43.326171875 410.658203125 41.6455078125 410.658203125 c 0
 40.1982421875 410.658203125 38.8505859375 411.819335938 38.6376953125 413.250976562 c 0
 36.419921875 425.826171875 40.2783203125 442.990234375 45.7353515625 461.262695312 c 0
 51.1923828125 479.537109375 58.4091796875 498.795898438 63.5126953125 514.541992188 c 0
 66.0654296875 522.415039062 68.0849609375 529.41796875 69.0947265625 534.846679688 c 0
 70.103515625 540.27734375 69.7119140625 544.109375 69.1845703125 544.965820312 c 0
 68.921875 545.393554688 68.986328125 545.40234375 68.26171875 545.452148438 c 0
 67.537109375 545.502929688 66.0009765625 545.241210938 63.830078125 544.272460938 c 0
 59.490234375 542.33203125 52.7529296875 537.765625 43.5869140625 530.07421875 c 0
 43.109375 529.650390625 42.2021484375 529.3046875 41.5654296875 529.3046875 c 0
 39.8857421875 529.3046875 38.5224609375 530.66796875 38.5224609375 532.346679688 c 0
 38.5224609375 533.16015625 39.0400390625 534.229492188 39.6767578125 534.733398438 c 0
 49.046875 542.594726562 55.9609375 547.420898438 61.3466796875 549.827148438 c 0
 63.7041015625 550.879882812 65.794921875 551.5078125 67.8203125 551.541015625 c 0
EndSplineSet
Validated: 524321
EndChar

StartChar: ampersand
Encoding: 38 38 5
Width: 699
GlyphClass: 2
Flags: MW
HStem: 201.339 5.39258 438.195 8.87305
VStem: 215.291 4.1908 428.851 5.39929 493.595 5.39124
LayerCount: 2
Fore
SplineSet
47.5537109375 48.080078125 m 1
 55.7578125 25.0654296875 72.353515625 8.03125 93.552734375 -4.2119140625 c 0
 116.451171875 -17.4365234375 144.682617188 -24.953125 172.896484375 -27.94921875 c 0
 223.611328125 -33.33203125 274.93359375 -27.755859375 321.739257812 -9.5078125 c 1
 227.322265625 -35.6103515625 124.8984375 -14.927734375 47.5537109375 48.080078125 c 1
435.529296875 65.748046875 m 1
 433.923828125 63.8251953125 432.299804688 61.9169921875 430.642578125 60.037109375 c 1
 441.322265625 51.7509765625 452.321289062 43.546875 463.598632812 35.4404296875 c 1
 453.970703125 45.1025390625 444.575195312 55.27734375 435.529296875 65.748046875 c 1
69.4228515625 156.249023438 m 1
 65.6357421875 153.5703125 62.0771484375 150.822265625 58.765625 148.016601562 c 0
 40.880859375 132.86328125 30.162109375 116.112304688 27.859375 100.115234375 c 0
 26.1123046875 87.95703125 29.0537109375 76.1171875 37.6787109375 65.15625 c 1
 32.1083984375 99.994140625 45.0400390625 130.983398438 69.4228515625 156.249023438 c 1
308.0625 174.165039062 m 1
 340.069335938 137.205078125 380.16796875 99.5703125 426.3671875 63.35546875 c 0
 428.2734375 65.51171875 430.133789062 67.7060546875 431.96875 69.9189453125 c 0
 431.143554688 70.8896484375 430.305664062 71.8544921875 429.484375 72.8310546875 c 0
 395.684570312 113.11328125 349.829101562 140.99609375 308.0625 174.165039062 c 1
274.51171875 203.77734375 m 0
 262.325195312 202.0703125 249.875976562 201.239257812 237.327148438 201.338867188 c 0
 180.915039062 201.779296875 132 189.756835938 95.64453125 171.748046875 c 0
 93.3173828125 170.060546875 91.0439453125 168.33984375 88.83984375 166.583007812 c 0
 52.998046875 138.017578125 33.978515625 101.051757812 44.7216796875 57.56640625 c 0
 45.634765625 56.720703125 46.583984375 55.8828125 47.5732421875 55.052734375 c 0
 136.392578125 -19.4755859375 260.182617188 -36.1474609375 365.547851562 12.2158203125 c 0
 386.946289062 25.3623046875 406.04296875 41.326171875 422.657226562 59.36328125 c 1
 366.728515625 103.223632812 319.678710938 149.203125 284.94140625 193.778320312 c 0
 281.391601562 197.037109375 277.913085938 200.374023438 274.51171875 203.77734375 c 0
254.926757812 225.342773438 m 1
 249.168945312 224.467773438 243.413085938 223.63671875 237.672851562 222.934570312 c 0
 197.168945312 217.989257812 157.91015625 206.528320312 125.337890625 189.825195312 c 1
 157.310546875 200.606445312 195.305664062 207.061523438 237.369140625 206.731445312 c 0
 248.29296875 206.646484375 259.138671875 207.280273438 269.790039062 208.598632812 c 1
 264.599609375 214.015625 259.627929688 219.6015625 254.926757812 225.342773438 c 1
261.587890625 226.358398438 m 0
 261.442382812 226.333984375 261.294921875 226.314453125 261.149414062 226.290039062 c 1
 261.858398438 225.446289062 262.580078125 224.612304688 263.299804688 223.774414062 c 1
 262.728515625 224.63671875 262.1484375 225.499023438 261.587890625 226.358398438 c 0
411.090820312 290.327148438 m 1
 400.813476562 278.545898438 387.610351562 268.612304688 372.465820312 260.319335938 c 0
 342.729492188 244.03125 305.43359375 233.796875 267.374023438 227.315429688 c 1
 271.161132812 221.583007812 275.193359375 215.805664062 279.4375 209.995117188 c 1
 313.521484375 215.599609375 345.1953125 228.25 370.48046875 246.704101562 c 0
 387.1484375 258.8671875 401.041992188 273.508789062 411.090820312 290.327148438 c 1
219.482421875 348.916992188 m 1
 214.254882812 318.215820312 221.58984375 288.848632812 236.5546875 261.689453125 c 0
 242.375 251.126953125 249.360351562 240.915039062 257.190429688 231.120117188 c 0
 257.603515625 231.184570312 258.016601562 231.243164062 258.4296875 231.307617188 c 1
 256.973632812 233.612304688 255.39453125 235.94140625 254.013671875 238.231445312 c 0
 229.927734375 278.2109375 217.346679688 316.022460938 219.482421875 348.916992188 c 1
323.951171875 438.194335938 m 0
 316.96875 438.190429688 309.883789062 437.502929688 302.780273438 436.084960938 c 0
 256.16796875 419.90234375 232.349609375 393.302734375 226.223632812 359.793945312 c 0
 220.091796875 326.239257812 231.995117188 285.232421875 258.6328125 241.015625 c 0
 260.375 238.123046875 262.34765625 235.185546875 264.21484375 232.267578125 c 0
 302.704101562 238.680664062 340.391601562 248.903320312 369.874023438 265.05078125 c 0
 399.244140625 281.135742188 420.393554688 302.706054688 426.836914062 332.2890625 c 0
 428.13671875 339.533203125 428.833984375 347.03125 428.850585938 354.775390625 c 0
 417.322265625 404.4453125 373.119140625 438.21875 323.951171875 438.194335938 c 0
348.514648438 440.854492188 m 1
 378.971679688 434.034179688 405.639648438 414.78125 421.567382812 387.557617188 c 1
 408.79296875 416.559570312 380.704101562 436.609375 348.514648438 440.854492188 c 1
336.916015625 447.067382812 m 0
 387.745117188 446.409179688 432.604492188 408.276367188 434.2421875 355.291015625 c 0
 434.249023438 355.22265625 434.25390625 355.111328125 434.25390625 355.041992188 c 0
 434.25390625 355.0078125 434.252929688 354.952148438 434.250976562 354.91796875 c 0
 434.473632812 346.770507812 433.768554688 339.08203125 432.22265625 331.834960938 c 0
 425.735351562 295.056640625 404.026367188 264.508789062 373.66015625 242.345703125 c 0
 348.272460938 223.819335938 316.84765625 211.064453125 283.037109375 205.127929688 c 1
 284.934570312 202.59765625 286.865234375 200.060546875 288.844726562 197.517578125 c 0
 293.713867188 193.051757812 298.711914062 188.720703125 303.795898438 184.5390625 c 0
 347.08203125 148.930664062 396.930664062 120.018554688 433.618164062 76.2978515625 c 0
 434.215820312 75.5859375 434.826171875 74.8857421875 435.42578125 74.1787109375 c 1
 469.467773438 116.978515625 490.209960938 169.706054688 493.59375 225.774414062 c 0
 493.666992188 227.186523438 494.873046875 228.33203125 496.288085938 228.33203125 c 0
 497.77734375 228.33203125 498.985351562 227.123046875 498.985351562 225.634765625 c 0
 498.985351562 225.583984375 498.983398438 225.500976562 498.978515625 225.450195312 c 0
 495.505859375 167.90625 474.11328125 113.793945312 439.000976562 69.990234375 c 1
 456.727539062 49.4228515625 475.814453125 29.9814453125 495.270507812 13.470703125 c 0
 516.78125 -0.9296875 539.18359375 -14.90625 562.37109375 -28.2939453125 c 0
 564.234375 -29.369140625 566.083007812 -30.3251953125 567.924804688 -31.2265625 c 0
 581.3671875 -35.8232421875 594.322265625 -37.8037109375 606.419921875 -36.5888671875 c 0
 618.611328125 -35.36328125 629.987304688 -30.9501953125 640.369140625 -22.583984375 c 0
 647.459960938 -16.322265625 653.372070312 -8.619140625 657.723632812 -0.095703125 c 0
 665.83203125 15.78125 668.52734375 34.3740234375 663.7578125 51.3349609375 c 0
 658.989257812 68.287109375 646.873046875 83.7314453125 624.689453125 93.6650390625 c 0
 624.678710938 93.6708984375 624.66796875 93.673828125 624.65625 93.6806640625 c 0
 623.775390625 94.0751953125 623.059570312 95.1767578125 623.059570312 96.142578125 c 0
 623.059570312 97.6318359375 624.26953125 98.83984375 625.7578125 98.83984375 c 0
 626.024414062 98.83984375 626.443359375 98.7646484375 626.6953125 98.6728515625 c 0
 626.701171875 98.6689453125 626.711914062 98.666015625 626.719726562 98.6630859375 c 0
 672.182617188 81.29296875 687.530273438 24.44921875 656.98828125 -13.4423828125 c 0
 653.0546875 -18.322265625 648.890625 -22.517578125 644.538085938 -26.10546875 c 0
 637.81640625 -32.1689453125 630.051757812 -37.04296875 621.4609375 -40.201171875 c 0
 605.10546875 -46.21484375 585.814453125 -45.9296875 565.72265625 -36.177734375 c 0
 559.90234375 -34.16015625 554.030273438 -31.7001953125 548.129882812 -28.8203125 c 0
 529.459960938 -19.7099609375 510.458007812 -6.5205078125 491.875976562 9.236328125 c 0
 469.188476562 24.4287109375 447.489257812 40.08984375 426.932617188 56.0439453125 c 1
 409.923828125 37.5185546875 390.35546875 21.1298828125 368.413085938 7.646484375 c 0
 368.33984375 7.5947265625 368.219726562 7.5185546875 368.141601562 7.4765625 c 0
 309.671875 -28.3603515625 240.366210938 -40.53515625 172.327148438 -33.3125 c 0
 143.549804688 -30.2568359375 114.64453125 -22.623046875 90.85546875 -8.8828125 c 0
 67.0634765625 4.857421875 48.361328125 24.83203125 40.5498046875 52.24609375 c 0
 40.314453125 53.0732421875 40.111328125 53.89453125 39.8955078125 54.71875 c 0
 25.7041015625 68.466796875 20.1796875 84.6142578125 22.51953125 100.881835938 c 0
 25.0791015625 118.674804688 36.7119140625 136.40234375 55.27734375 152.131835938 c 0
 65.73046875 160.989257812 78.4072265625 169.234375 93.005859375 176.5 c 0
 130.607421875 203.603515625 182.7265625 221.65625 237.021484375 228.2890625 c 0
 241.688476562 228.858398438 246.3671875 229.516601562 251.045898438 230.203125 c 1
 243.830078125 239.462890625 237.333007812 249.098632812 231.829101562 259.0859375 c 0
 215.498046875 288.728515625 207.797851562 321.479492188 215.291015625 355.659179688 c 0
 224.724609375 398.694335938 258.232421875 432.548828125 301.380859375 441.305664062 c 0
 313.240234375 445.385742188 325.234375 447.217773438 336.916015625 447.067382812 c 0
EndSplineSet
Validated: 524321
EndChar

StartChar: parenleft
Encoding: 40 40 6
Width: 134
GlyphClass: 2
Flags: MW
HStem: 0.110107 21G 0.110107 21G
VStem: 29 6.08545
LayerCount: 2
Fore
SplineSet
105.13671875 535.482421875 m 0xa0
 106.775390625 535.444335938 108.107421875 534.081054688 108.107421875 532.440429688 c 0
 108.107421875 531.96484375 107.905273438 531.25 107.655273438 530.845703125 c 0
 60.162109375 451.313476562 35.0859375 360.411132812 35.0859375 267.779296875 c 0
 35.0859375 175.147460938 60.162109375 84.2421875 107.655273438 4.7138671875 c 0
 107.892578125 4.314453125 108.084960938 3.6162109375 108.084960938 3.1533203125 c 0
 108.084960938 1.47265625 106.721679688 0.109375 105.043945312 0.109375 c 0
 104.08984375 0.109375 102.920898438 0.7744140625 102.432617188 1.591796875 c 0
 54.375 82.06640625 29 174.048828125 29 267.779296875 c 0
 29 361.5078125 54.375 453.490234375 102.432617188 533.961914062 c 0
 102.916992188 534.80078125 104.096679688 535.483398438 105.065429688 535.483398438 c 0
 105.0859375 535.483398438 105.1171875 535.482421875 105.13671875 535.482421875 c 0xa0
EndSplineSet
Validated: 524289
EndChar

StartChar: parenright
Encoding: 41 41 7
Width: 134
GlyphClass: 2
Flags: MW
HStem: 0.110107 21G 0.110107 21G
VStem: 99.024 6.08142
LayerCount: 2
Fore
SplineSet
28.880859375 535.478515625 m 0xa0
 28.92578125 535.482421875 28.9970703125 535.483398438 29.0419921875 535.483398438 c 0
 30.01171875 535.483398438 31.1923828125 534.801757812 31.677734375 533.961914062 c 0
 79.732421875 453.490234375 105.10546875 361.5078125 105.10546875 267.779296875 c 0
 105.10546875 174.048828125 79.732421875 82.06640625 31.677734375 1.591796875 c 0
 31.1884765625 0.7744140625 30.017578125 0.109375 29.0634765625 0.109375 c 0
 27.3857421875 0.109375 26.0224609375 1.47265625 26.0224609375 3.1533203125 c 0
 26.0224609375 3.6162109375 26.21484375 4.314453125 26.4521484375 4.7138671875 c 0
 73.9462890625 84.2421875 99.0244140625 175.147460938 99.0244140625 267.779296875 c 0
 99.0244140625 360.411132812 73.9462890625 451.313476562 26.4521484375 530.845703125 c 0
 26.203125 531.250976562 26 531.96484375 26 532.44140625 c 0
 26 534.03515625 27.2900390625 535.39453125 28.880859375 535.478515625 c 0xa0
EndSplineSet
Validated: 524289
EndChar

StartChar: comma
Encoding: 44 44 8
Width: 307
GlyphClass: 2
Flags: W
LayerCount: 2
Fore
SplineSet
62.98828125 -152.954101562 m 1
 -77.2607421875 -270.638671875 153.924804688 -95.150390625 167.90234375 -13.0693359375 c 0
 174.791015625 27.376953125 114.358398438 27.4736328125 97.9599609375 56.873046875 c 0
 72.1181640625 103.202148438 134.30078125 161.971679688 202.873046875 126.815429688 c 0
 266.806640625 94.0380859375 281.706054688 14.3369140625 272.815429688 -59.6982421875 c 0
 252.09765625 -232.2265625 78.4853515625 -240.840820312 62.98828125 -152.954101562 c 1
62.98828125 -152.954101562 m 1024
EndSplineSet
Validated: 524329
EndChar

StartChar: period
Encoding: 46 46 9
Width: 70
GlyphClass: 2
Flags: MW
HStem: 0.110107 6.08411
VStem: 30 6.2251
LayerCount: 2
Fore
SplineSet
33.11328125 6.1943359375 m 1
 33.181640625 6.1943359375 l 2
 34.8623046875 6.1943359375 36.2255859375 4.83203125 36.2255859375 3.1533203125 c 0
 36.2255859375 1.47265625 34.8623046875 0.109375 33.181640625 0.109375 c 0
 33.1640625 0.109375 33.1318359375 0.111328125 33.11328125 0.111328125 c 0
 33.0927734375 0.111328125 33.0615234375 0.109375 33.041015625 0.109375 c 0
 31.36328125 0.109375 30 1.47265625 30 3.1533203125 c 0
 30 4.83203125 31.36328125 6.1943359375 33.041015625 6.1943359375 c 2
 33.11328125 6.1943359375 l 1
EndSplineSet
Validated: 524289
EndChar

StartChar: slash
Encoding: 47 47 10
Width: 303
GlyphClass: 2
Flags: MW
HStem: 0.0805664 21G 0.0805664 21G
VStem: 17.9999 261.634
LayerCount: 2
Fore
SplineSet
217.778320312 729.018554688 m 0xa0
 218.927734375 729.079101562 220.087890625 728.944335938 221.2109375 728.594726562 c 0
 224.208007812 727.66015625 226.819335938 725.48828125 229.322265625 722.37109375 c 0
 234.328125 716.137695312 239.131835938 705.7890625 244.306640625 690.416015625 c 0
 254.657226562 659.671875 266.181640625 608.876953125 279.572265625 532.931640625 c 0
 279.60546875 532.765625 279.634765625 532.494140625 279.634765625 532.32421875 c 0
 279.634765625 530.64453125 278.271484375 529.282226562 276.591796875 529.282226562 c 0
 275.145507812 529.282226562 273.796875 530.443359375 273.583984375 531.875976562 c 0
 260.215820312 607.6875 248.6796875 658.361328125 238.54296875 688.477539062 c 0
 233.47265625 703.536132812 228.674804688 713.463867188 224.579101562 718.565429688 c 0
 222.53125 721.114257812 220.717773438 722.375 219.3984375 722.787109375 c 0
 218.077148438 723.198242188 217.116210938 723.06640625 215.634765625 722.106445312 c 0
 212.670898438 720.186523438 208.662109375 714.112304688 204.919921875 704.543945312 c 0
 201.177734375 694.9765625 197.475585938 682.01953125 193.80859375 666.37890625 c 0
 186.4765625 635.098632812 179.26171875 593.067382812 171.635742188 545.232421875 c 0
 156.384765625 449.561523438 139.474609375 330.638671875 116.3515625 227.133789062 c 0
 104.790039062 175.3828125 91.6806640625 127.486328125 76.39453125 88.2001953125 c 0
 61.1083984375 48.916015625 43.734375 18.193359375 23.033203125 0.822265625 c 0
 22.55859375 0.412109375 21.6669921875 0.080078125 21.041015625 0.080078125 c 0
 19.36328125 0.080078125 18 1.443359375 18 3.1220703125 c 0
 18 3.9208984375 18.5029296875 4.978515625 19.123046875 5.482421875 c 0
 38.3818359375 21.64453125 55.619140625 51.58203125 70.724609375 90.404296875 c 0
 85.830078125 129.2265625 98.892578125 176.884765625 110.415039062 228.4609375 c 0
 133.458984375 331.61328125 150.366210938 450.4375 165.629882812 546.19140625 c 0
 173.262695312 594.068359375 180.481445312 636.171875 187.88671875 667.766601562 c 0
 191.58984375 683.564453125 195.33203125 696.728515625 199.25390625 706.760742188 c 0
 203.177734375 716.791992188 207.047851562 723.791015625 212.326171875 727.213867188 c 0
 213.646484375 728.069335938 215.1171875 728.646484375 216.633789062 728.895507812 c 0
 217.01171875 728.956054688 217.395507812 728.998046875 217.778320312 729.018554688 c 0xa0
EndSplineSet
Validated: 524289
EndChar

StartChar: zero
Encoding: 48 48 11
Width: 449
GlyphClass: 2
Flags: MW
HStem: 0.11145 6.08276 675.364 6.08142
VStem: 30.1851 6.08545 358.613 6.10559
LayerCount: 2
Fore
SplineSet
197.473632812 675.36328125 m 0
 137.662109375 675.36328125 97.8154296875 639.451171875 72.318359375 585.4765625 c 0
 47.60546875 533.158203125 37.0234375 464.01953125 36.3896484375 395.924804688 c 1
 52.82421875 409.358398438 65.4736328125 418.020507812 74.9716796875 422.262695312 c 0
 80.2197265625 424.607421875 84.60546875 425.73828125 88.4921875 425.467773438 c 0
 92.37890625 425.198242188 95.7412109375 423.17578125 97.646484375 420.075195312 c 0
 101.459960938 413.875 100.893554688 404.66015625 98.6826171875 392.762695312 c 0
 96.470703125 380.86328125 92.2265625 366.256835938 86.9384765625 349.946289062 c 0
 76.361328125 317.318359375 61.59765625 277.904296875 50.5341796875 240.859375 c 0
 39.484375 203.854492188 32.2890625 169.092773438 36.20703125 146.71484375 c 0
 36.2099609375 146.689453125 36.2138671875 146.6640625 36.21875 146.640625 c 0
 36.2509765625 146.4765625 36.2783203125 146.209960938 36.2783203125 146.041015625 c 0
 36.2783203125 145.985351562 36.2744140625 145.890625 36.271484375 145.834960938 c 0
 36.443359375 64.734375 111.875 6.1943359375 197.473632812 6.1943359375 c 0
 283.142578125 6.1943359375 358.629882812 64.830078125 358.678710938 146.03125 c 1
 354.5 170.627929688 362.124023438 205.483398438 373.208007812 242.600585938 c 0
 384.35546875 279.932617188 399.143554688 319.408203125 409.650390625 351.819335938 c 0
 414.904296875 368.026367188 419.083007812 382.474609375 421.203125 393.873046875 c 0
 423.322265625 405.272460938 422.989257812 413.6015625 420.966796875 416.888671875 c 0
 419.955078125 418.533203125 418.883789062 419.239257812 416.569335938 419.400390625 c 0
 414.2578125 419.559570312 410.678710938 418.822265625 405.952148438 416.709960938 c 0
 396.563476562 412.516601562 382.768554688 403.099609375 364.05859375 387.428710938 c 0
 363.5546875 386.825195312 362.5078125 386.333984375 361.719726562 386.333984375 c 0
 361.5625 386.333984375 361.305664062 386.359375 361.149414062 386.387695312 c 0
 361.147460938 386.389648438 361.141601562 386.391601562 361.137695312 386.391601562 c 2
 361.13671875 386.391601562 l 1
 361.135742188 386.391601562 l 2
 359.743164062 386.633789062 358.614257812 387.975585938 358.614257812 389.388671875 c 0
 358.614257812 389.564453125 358.64453125 389.844726562 358.6796875 390.016601562 c 0
 358.624023438 460.001953125 348.055664062 531.646484375 322.627929688 585.4765625 c 0
 297.131835938 639.451171875 257.284179688 675.36328125 197.473632812 675.36328125 c 0
197.473632812 681.4453125 m 0
 259.743164062 681.4453125 302.021484375 643.345703125 328.127929688 588.076171875 c 0
 353.447265625 534.478515625 364.11328125 464.595703125 364.735351562 395.875 c 1
 381.328125 409.4609375 393.912109375 417.991210938 403.471679688 422.262695312 c 0
 408.720703125 424.607421875 413.106445312 425.73828125 416.993164062 425.467773438 c 0
 420.87890625 425.198242188 424.243164062 423.17578125 426.149414062 420.075195312 c 0
 429.962890625 413.875 429.393554688 404.66015625 427.181640625 392.762695312 c 0
 424.969726562 380.86328125 420.725585938 366.256835938 415.438476562 349.946289062 c 0
 404.860351562 317.318359375 390.09765625 277.904296875 379.034179688 240.859375 c 0
 367.971679688 203.813476562 360.774414062 169.016601562 364.720703125 146.640625 c 0
 364.74609375 146.49609375 364.766601562 146.263671875 364.766601562 146.1171875 c 2
 364.766601562 146.111328125 l 2
 364.766601562 61.1025390625 285.95703125 0.111328125 197.473632812 0.111328125 c 0
 109.078125 0.111328125 30.341796875 60.9833984375 30.185546875 145.859375 c 1
 25.94921875 170.463867188 33.59765625 205.405273438 44.705078125 242.600585938 c 0
 55.853515625 279.932617188 70.6435546875 319.408203125 81.1513671875 351.819335938 c 0
 86.4052734375 368.026367188 90.5830078125 382.474609375 92.7001953125 393.873046875 c 0
 94.818359375 405.272460938 94.48828125 413.6015625 92.4658203125 416.888671875 c 0
 91.455078125 418.533203125 90.3828125 419.239257812 88.0703125 419.400390625 c 0
 85.7578125 419.559570312 82.177734375 418.822265625 77.451171875 416.709960938 c 0
 67.998046875 412.487304688 54.087890625 402.983398438 35.177734375 387.116210938 c 0
 34.7099609375 386.724609375 33.833984375 386.405273438 33.22265625 386.405273438 c 0
 31.544921875 386.405273438 30.181640625 387.767578125 30.181640625 389.447265625 c 0
 30.181640625 460.21875 40.7099609375 532.806640625 66.818359375 588.076171875 c 0
 92.9267578125 643.345703125 135.204101562 681.4453125 197.473632812 681.4453125 c 0
EndSplineSet
Validated: 524321
EndChar

StartChar: one
Encoding: 49 49 12
Width: 345
GlyphClass: 2
Flags: MW
HStem: 0.11145 21G 0.11145 21G 604.135 5.87598
VStem: 24.0427 297.421
LayerCount: 2
Fore
SplineSet
297.946289062 662.525390625 m 0xb0
 299.01953125 662.547851562 300.064453125 662.525390625 301.08203125 662.455078125 c 0
 309.232421875 661.889648438 315.645507812 657.987304688 319.556640625 651.625 c 0
 327.379882812 638.903320312 326.649414062 617.631835938 321.462890625 589.71484375 c 0
 316.274414062 561.796875 306.236328125 527.215820312 293.701171875 488.544921875 c 0
 268.629882812 411.206054688 233.55078125 317.556640625 207.216796875 229.376953125 c 0
 180.885742188 141.197265625 163.463867188 58.3662109375 173.107421875 3.6826171875 c 0
 173.131835938 3.5361328125 173.15234375 3.2998046875 173.15234375 3.154296875 c 0
 173.15234375 1.4736328125 171.7890625 0.111328125 170.111328125 0.111328125 c 0
 168.701171875 0.111328125 167.360351562 1.2373046875 167.115234375 2.625 c 0
 157.076171875 59.55078125 174.96875 142.650390625 201.388671875 231.118164062 c 0
 227.806640625 319.5859375 262.913085938 413.294921875 287.913085938 490.419921875 c 0
 300.415039062 528.982421875 310.384765625 563.408203125 315.479492188 590.826171875 c 0
 320.576171875 618.243164062 320.40625 638.62890625 314.373046875 648.439453125 c 0
 311.357421875 653.34375 307.236328125 655.9296875 300.661132812 656.38671875 c 0
 294.0859375 656.842773438 285.03125 654.81640625 273.4453125 649.640625 c 0
 250.274414062 639.2890625 217.118164062 616.543945312 172.06640625 578.740234375 c 0
 171.598632812 578.34765625 170.72265625 578.02734375 170.111328125 578.02734375 c 0
 168.701171875 578.02734375 167.358398438 579.155273438 167.115234375 580.543945312 c 0
 164.49609375 595.38671875 158.823242188 601.97265625 150.810546875 604.134765625 c 0
 142.80078125 606.298828125 131.419921875 603.65625 118.118164062 597.172851562 c 0
 91.51171875 584.209960938 57.73828125 556.653320312 26.0654296875 530.07421875 c 0
 25.5869140625 529.650390625 24.6806640625 529.3046875 24.0419921875 529.3046875 c 0
 22.36328125 529.3046875 21 530.66796875 21 532.346679688 c 0
 21 533.16015625 21.5166015625 534.229492188 22.1552734375 534.733398438 c 0
 53.8701171875 561.344726562 87.634765625 589.088867188 115.454101562 602.642578125 c 0
 129.361328125 609.419921875 141.915039062 612.840820312 152.3984375 610.01171875 c 0
 161.729492188 607.4921875 168.404296875 599.41015625 171.807617188 586.358398438 c 1
 215.095703125 622.40625 247.4453125 644.6875 270.96484375 655.194335938 c 0
 281.560546875 659.926757812 290.434570312 662.369140625 297.946289062 662.525390625 c 0xb0
EndSplineSet
Validated: 524321
EndChar

StartChar: two
Encoding: 50 50 13
Width: 411
GlyphClass: 2
Flags: MW
HStem: 0.114136 21G 0.114136 21G
VStem: 29.9829 6.05054 321.937 6.08142
LayerCount: 2
Fore
SplineSet
223.990234375 239.09765625 m 0x30
 175.036132812 238.850585938 124.19140625 224.51171875 87.1201171875 192.203125 c 0
 45.8759765625 156.2578125 21.326171875 98.0458984375 34.8896484375 10.796875 c 1
 86.5869140625 82.4853515625 157.224609375 143.666992188 215.4921875 208.864257812 c 0
 224.217773438 218.625976562 232.53515625 228.518554688 240.591796875 238.501953125 c 1
 235.086914062 238.834960938 229.567382812 239.125 223.990234375 239.09765625 c 0x30
197.5390625 617.127929688 m 1
 190.79296875 611.439453125 188.908203125 609.767578125 180.932617188 603.075195312 c 0
 165.567382812 590.181640625 156.461914062 578.970703125 152.150390625 569.416015625 c 1
 167.015625 585.608398438 181.798828125 601.227539062 195.446289062 615.044921875 c 0
 196.19140625 615.799804688 196.799804688 616.3828125 197.5390625 617.127929688 c 1
265 681.592773438 m 0
 265.005859375 681.59375 268.107421875 677.24609375 267.90234375 676.922851562 c 0
 267.697265625 676.598632812 267.637695312 676.564453125 267.573242188 676.491210938 c 0
 267.442382812 676.34375 267.361328125 676.263671875 267.250976562 676.15234375 c 0
 265.489257812 674.387695312 257.896484375 667.43359375 245.915039062 656.034179688 c 0
 233.935546875 644.6328125 217.806640625 629.026367188 199.7734375 610.768554688 c 0
 183.8359375 594.633789062 166.400390625 576.234375 149.043945312 557.032226562 c 0
 148.877929688 552.633789062 149.760742188 548.5625 151.665039062 544.681640625 c 0
 158.74609375 530.251953125 180.245117188 518.149414062 206.140625 507.630859375 c 0
 232.034179688 497.111328125 262.02734375 487.93359375 285.765625 477.540039062 c 0
 297.634765625 472.342773438 307.955078125 466.85546875 315.515625 460.528320312 c 0
 323.078125 454.201171875 328.016601562 446.751953125 328.016601562 438.111328125 c 0
 328.016601562 362.375 296.327148438 300.369140625 252.236328125 243.598632812 c 1
 305.702148438 238.029296875 353.44921875 216.48046875 374.5078125 182.940429688 c 0
 385.49609375 165.439453125 388.9765625 144.609375 381.887695312 121.997070312 c 0
 374.798828125 99.3857421875 357.359375 75.0224609375 326.931640625 49.490234375 c 0
 326.458984375 49.0810546875 325.567382812 48.7490234375 324.942382812 48.7490234375 c 0
 323.26171875 48.7490234375 321.899414062 50.111328125 321.899414062 51.7900390625 c 0
 321.899414062 52.58984375 322.40234375 53.646484375 323.022460938 54.1513671875 c 0
 352.864257812 79.1923828125 369.475585938 102.739257812 376.08203125 123.815429688 c 0
 382.689453125 144.892578125 379.512695312 163.528320312 369.35546875 179.705078125 c 0
 349.426757812 211.444335938 301.587890625 233.1796875 247.8828125 237.98828125 c 1
 238.961914062 226.776367188 229.747070312 215.6875 220.025390625 204.809570312 c 0
 159.762695312 137.379882812 86.8701171875 74.818359375 35.466796875 1.408203125 c 0
 34.966796875 0.6943359375 33.8505859375 0.1142578125 32.9765625 0.1142578125 c 0xb0
 31.568359375 0.1142578125 30.2265625 1.2392578125 29.982421875 2.625 c 0
 13.6220703125 95.41015625 39.1572265625 158.470703125 83.125 196.790039062 c 0
 127.068359375 235.088867188 188.926757812 248.73046875 245.188476562 244.420898438 c 1
 289.96875 301.314453125 321.935546875 362.796875 321.935546875 438.111328125 c 0
 321.935546875 444.45703125 318.397460938 450.185546875 311.612304688 455.864257812 c 0
 304.825195312 461.540039062 294.931640625 466.88671875 283.326171875 471.96875 c 0
 260.11328125 482.1328125 230.115234375 491.32421875 203.848632812 501.993164062 c 0
 177.583007812 512.6640625 154.75390625 524.57421875 146.204101562 542.00390625 c 0
 144.80859375 544.844726562 144.013671875 547.8828125 143.5078125 551.002929688 c 1
 123.474609375 528.565429688 103.756835938 504.99609375 86.7548828125 481.885742188 c 0
 70.1181640625 459.272460938 56.0888671875 437.131835938 46.9208984375 417.146484375 c 0
 37.751953125 397.16015625 33.55078125 379.3671875 35.9697265625 365.640625 c 0
 36.00390625 365.47265625 36.0322265625 365.201171875 36.0322265625 365.03125 c 0
 36.0322265625 363.352539062 34.6689453125 361.990234375 32.990234375 361.990234375 c 0
 31.5419921875 361.990234375 30.1953125 363.151367188 29.982421875 364.583007812 c 0
 27.203125 380.333984375 31.951171875 399.110351562 41.390625 419.684570312 c 0
 50.828125 440.2578125 65.0615234375 462.666015625 81.853515625 485.491210938 c 0
 100.26171875 510.512695312 121.73828125 535.859375 143.357421875 559.83984375 c 0
 143.791015625 563.6875 144.669921875 567.629882812 146.502929688 571.73046875 c 0
 151.364257812 582.620117188 161.150390625 594.418945312 177.021484375 607.735351562 c 0
 210.15625 635.540039062 232.399414062 654.478515625 245.999023438 666.107421875 c 0
 252.798828125 671.919921875 257.438476562 675.904296875 260.208984375 678.265625 c 0
 261.592773438 679.447265625 262.494140625 680.20703125 263.03515625 680.64453125 c 0
 263.168945312 680.75390625 263.27734375 680.840820312 263.403320312 680.935546875 c 0
 263.466796875 680.981445312 263.529296875 681.029296875 263.649414062 681.107421875 c 0
 263.770507812 681.184570312 264.993164062 681.592773438 265 681.592773438 c 0
EndSplineSet
Validated: 524321
EndChar

StartChar: three
Encoding: 51 51 14
Width: 228
GlyphClass: 2
Flags: MW
VStem: 21 6.08545 118.317 6.06799 130.465 6.07202 167.175 6.08142
LayerCount: 2
Fore
SplineSet
123.91015625 644.6171875 m 0
 124.461914062 644.568359375 124.983398438 644.424804688 125.412109375 644.231445312 c 0
 127.124023438 643.456054688 128.024414062 642.239257812 129.043945312 640.737304688 c 0
 130.063476562 639.235351562 131.073242188 637.357421875 132.139648438 635.07421875 c 0
 134.274414062 630.5078125 136.61328125 624.32421875 139.095703125 616.728515625 c 0
 144.060546875 601.53515625 149.573242188 580.73828125 154.708984375 556.68359375 c 0
 164.979492188 508.576171875 173.732421875 447.491210938 173.255859375 392.630859375 c 0
 172.896484375 351.19921875 167.454101562 313.173828125 152.793945312 286.94921875 c 1
 163.325195312 294.734375 171.958984375 300.056640625 179.051757812 303.224609375 c 0
 184.73828125 305.765625 189.470703125 306.978515625 193.627929688 306.689453125 c 0
 197.78515625 306.400390625 201.341796875 304.2578125 203.376953125 300.951171875 c 0
 207.4453125 294.334960938 206.868164062 284.354492188 204.466796875 271.434570312 c 0
 202.06640625 258.515625 197.452148438 242.637695312 191.704101562 224.90234375 c 0
 180.205078125 189.4296875 164.1484375 146.567382812 152.11328125 106.268554688 c 0
 140.079101562 65.96875 132.23046875 28.1142578125 136.537109375 3.6826171875 c 0
 138.168945312 -5.56640625 137.666015625 -13.244140625 135.254882812 -19.33984375 c 0
 132.84375 -25.4365234375 128.431640625 -29.8505859375 122.907226562 -32.2255859375 c 0
 111.856445312 -36.974609375 96.9365234375 -34.1376953125 81.9404296875 -25.35546875 c 0
 51.9482421875 -7.7919921875 21 34.5048828125 21 97.4443359375 c 0
 21 99.125 22.36328125 100.48828125 24.0419921875 100.48828125 c 0
 25.72265625 100.48828125 27.0859375 99.125 27.0859375 97.4443359375 c 0
 27.0859375 36.501953125 57.1328125 -3.779296875 85.0146484375 -20.10546875 c 0
 98.9560546875 -28.26953125 112.196289062 -30.20703125 120.504882812 -26.63671875 c 0
 124.66015625 -24.8505859375 127.727539062 -21.8291015625 129.596679688 -17.1025390625 c 0
 131.465820312 -12.375 132.040039062 -5.841796875 130.546875 2.625 c 0
 125.84375 29.2998046875 134.1640625 67.423828125 146.284179688 108.010742188 c 0
 158.404296875 148.595703125 174.486328125 191.521484375 185.916015625 226.779296875 c 0
 191.630859375 244.407226562 196.1796875 260.12890625 198.486328125 272.546875 c 0
 200.793945312 284.96484375 200.473632812 294.060546875 198.196289062 297.763671875 c 0
 197.057617188 299.614257812 195.79296875 300.44140625 193.208007812 300.62109375 c 0
 190.625 300.80078125 186.697265625 299.9765625 181.532226562 297.669921875 c 0
 171.20703125 293.056640625 156.072265625 282.711914062 135.499023438 265.44921875 c 0
 135.026367188 265.040039062 134.1328125 264.70703125 133.506835938 264.70703125 c 0
 131.828125 264.70703125 130.46484375 266.069335938 130.46484375 267.749023438 c 0
 130.46484375 268.547851562 130.96875 269.60546875 131.588867188 270.110351562 c 0
 156.749023438 291.220703125 166.705078125 338.509765625 167.174804688 392.682617188 c 0
 167.643554688 446.85546875 158.95703125 507.643554688 148.7578125 555.413085938 c 0
 143.658203125 579.295898438 138.177734375 599.939453125 133.310546875 614.8359375 c 0
 130.876953125 622.284179688 128.591796875 628.303710938 126.62890625 632.499023438 c 0
 125.758789062 634.360351562 124.98828125 635.709960938 124.305664062 636.779296875 c 1
 124.284179688 636.653320312 124.26953125 636.701171875 124.251953125 636.56640625 c 0
 123.803710938 633.279296875 123.770507812 627.321289062 124.384765625 618.73828125 c 0
 125.616210938 601.573242188 129.344726562 573.729492188 136.537109375 532.931640625 c 0
 139.559570312 515.796875 133.517578125 503.696289062 123.135742188 495.661132812 c 0
 112.752929688 487.625976562 98.4072265625 483.115234375 83.953125 478.87109375 c 0
 69.5 474.627929688 54.9013671875 470.672851562 44.2734375 464.60546875 c 0
 33.64453125 458.537109375 27.0859375 450.971679688 27.0859375 438.111328125 c 0
 27.0859375 436.43359375 25.72265625 435.0703125 24.0419921875 435.0703125 c 0
 22.36328125 435.0703125 21 436.43359375 21 438.111328125 c 0
 21 453.168945312 29.5615234375 463.211914062 41.2587890625 469.888671875 c 0
 52.9541015625 476.565429688 67.8828125 480.493164062 82.2392578125 484.708007812 c 0
 96.59375 488.921875 110.338867188 493.44921875 119.411132812 500.471679688 c 0
 128.485351562 507.493164062 133.262695312 516.469726562 130.546875 531.875976562 c 0
 123.33203125 572.784179688 119.576171875 600.735351562 118.317382812 618.3046875 c 0
 117.688476562 627.087890625 117.657226562 633.23046875 118.225585938 637.387695312 c 0
 118.5078125 639.467773438 118.840820312 641.0546875 119.836914062 642.54296875 c 0
 120.333984375 643.286132812 121.11328125 644.065429688 122.22265625 644.434570312 c 0
 122.77734375 644.618164062 123.358398438 644.666992188 123.91015625 644.6171875 c 0
EndSplineSet
Validated: 524321
EndChar

StartChar: four
Encoding: 52 52 15
Width: 453
GlyphClass: 2
Flags: MW
HStem: 0.0805664 21G 0.0805664 21G 297.649 6.08276 749.782 6.00891
VStem: 259.108 6.08142 394.922 6.28149 426.904 6.03845
LayerCount: 2
Fore
SplineSet
345.810546875 581.487304688 m 1x3e
 329.1640625 566.853515625 309.751953125 550.127929688 285.85546875 530.07421875 c 0
 285.387695312 529.682617188 284.510742188 529.364257812 283.900390625 529.364257812 c 0
 282.493164062 529.364257812 281.15234375 530.490234375 280.90625 531.875976562 c 0
 279.84765625 537.874023438 279.12890625 542.760742188 278.15625 548.486328125 c 1
 222.908203125 499.971679688 161.0546875 439.829101562 112.720703125 379.162109375 c 0
 60.8115234375 314.00390625 25.48046875 248.983398438 30.7744140625 200.603515625 c 1
 112.119140625 267.409179688 204.663085938 302.791992188 280.94921875 303.731445312 c 0
 319.764648438 304.208984375 354.424804688 295.765625 381.11328125 277.796875 c 0
 386.03515625 274.483398438 390.577148438 270.733398438 394.922851562 266.767578125 c 1
 392.935546875 373.1171875 371.307617188 489.42578125 345.810546875 581.487304688 c 1x3e
340.25 600.734375 m 1
 326.90234375 590.166992188 312.416015625 578.310546875 297.01171875 565.166992188 c 0
 292.684570312 561.474609375 287.971679688 557.107421875 283.533203125 553.243164062 c 1
 284.397460938 548.12109375 285.087890625 543.5703125 286.01953125 538.225585938 c 1
 308.6484375 557.262695312 328.181640625 574.009765625 344.022460938 587.96875 c 1
 342.78125 592.368164062 341.506835938 596.456054688 340.25 600.734375 c 1
405.671875 647.055664062 m 1
 403.80078125 646.129882812 401.6953125 645.01953125 398.9765625 643.375 c 0
 392.58203125 639.504882812 384.047851562 633.740234375 373.892578125 626.377929688 c 0
 365.610351562 620.375976562 355.631835938 612.661132812 345.428710938 604.678710938 c 0
 346.63671875 600.59375 347.85546875 596.62109375 349.051757812 592.421875 c 1
 364.387695312 606.022460938 376.814453125 617.41796875 385.946289062 626.251953125 c 0
 395.831054688 635.8125 402.305664062 642.736328125 405.671875 647.055664062 c 1
272.896484375 749.782226562 m 0
 272.669921875 749.79296875 272.467773438 749.770507812 272.271484375 749.70703125 c 0
 271.876953125 749.580078125 271.50390625 749.291015625 270.995117188 748.768554688 c 0
 269.9765625 747.721679688 268.73046875 745.447265625 267.749023438 741.856445312 c 0
 265.784179688 734.67578125 264.760742188 722.478515625 265.189453125 705.0625 c 0
 265.942382812 674.4609375 271.399414062 626.454101562 282.360351562 560.325195312 c 1
 285.8671875 563.3671875 289.626953125 566.86328125 293.063476562 569.793945312 c 0
 309.34375 583.686523438 324.427734375 595.956054688 338.40625 606.974609375 c 1
 327.038085938 644.94140625 315.274414062 677.966796875 304.416015625 702.494140625 c 0
 297.98828125 717.018554688 291.874023438 728.680664062 286.461914062 736.791992188 c 0
 281.047851562 744.905273438 276.02734375 749.15625 273.668945312 749.666992188 c 0
 273.375 749.731445312 273.122070312 749.772460938 272.896484375 749.782226562 c 0
272.72265625 755.790039062 m 0
 273.470703125 755.831054688 274.221679688 755.7734375 274.958007812 755.615234375 c 0
 280.83984375 754.338867188 285.788085938 748.7578125 291.51953125 740.169921875 c 0
 297.250976562 731.58203125 303.459960938 719.6796875 309.979492188 704.955078125 c 0
 320.775390625 680.5625 332.365234375 648.149414062 343.583984375 610.920898438 c 1
 353.053710938 618.297851562 362.520507812 625.653320312 370.319335938 631.306640625 c 0
 380.56640625 638.731445312 389.197265625 644.565429688 395.829101562 648.580078125 c 0
 399.14453125 650.5859375 401.953125 652.13671875 404.282226562 653.219726562 c 0
 406.610351562 654.30078125 408.24609375 655.046875 410.35546875 654.998046875 c 0
 411.412109375 654.973632812 413.081054688 654.458007812 413.896484375 653.030273438 c 0
 414.712890625 651.6015625 414.4375 650.314453125 414.13671875 649.354492188 c 0
 413.534179688 647.4375 412.341796875 645.71484375 410.471679688 643.31640625 c 0
 406.729492188 638.515625 400.158203125 631.534179688 390.17578125 621.879882812 c 0
 380.483398438 612.506835938 367.4375 600.529296875 350.926757812 585.930664062 c 1
 377.321289062 491.407226562 399.873046875 370.854492188 401.203125 261.17578125 c 0
 401.20703125 261.002929688 401.194335938 260.834960938 401.197265625 260.661132812 c 0
 417.063476562 243.828125 428.176757812 222.068359375 432.897460938 195.305664062 c 0
 432.922851562 195.162109375 432.943359375 194.92578125 432.943359375 194.77734375 c 0
 432.943359375 193.099609375 431.580078125 191.736328125 429.900390625 191.736328125 c 0
 428.4921875 191.736328125 427.150390625 192.86328125 426.905273438 194.25 c 0
 422.8125 217.463867188 413.83984375 236.477539062 401.081054688 251.690429688 c 1
 401.165039062 145.297851562 380.905273438 49.9521484375 322.35546875 0.822265625 c 0
 321.8828125 0.4140625 320.990234375 0.080078125 320.365234375 0.080078125 c 0xbe
 318.686523438 0.080078125 317.32421875 1.443359375 317.32421875 3.1240234375 c 0
 317.32421875 3.921875 317.827148438 4.978515625 318.4453125 5.482421875 c 0
 375.743164062 53.5615234375 396.045898438 150.0625 395.086914062 258.404296875 c 1
 389.8125 263.732421875 384.006835938 268.512695312 377.71484375 272.75 c 0
 352.319335938 289.84765625 318.912109375 298.115234375 281.0234375 297.6484375 c 0
 205.244140625 296.716796875 111.776367188 260.770507812 30.353515625 192.448242188 c 0
 29.88671875 192.057617188 29.01171875 191.73828125 28.400390625 191.73828125 c 0
 26.9931640625 191.73828125 25.650390625 192.864257812 25.40625 194.25 c 0
 16.1328125 246.83984375 53.76171875 314.91796875 107.961914062 382.952148438 c 0
 157.473632812 445.098632812 220.846679688 506.4921875 276.982421875 555.568359375 c 1
 265.557617188 623.842773438 259.887695312 673.202148438 259.107421875 704.9140625 c 0
 258.671875 722.626953125 259.607421875 735.15234375 261.881835938 743.461914062 c 0
 263.017578125 747.615234375 264.463867188 750.778320312 266.634765625 753.009765625 c 0
 268.262695312 754.682617188 270.477539062 755.670898438 272.72265625 755.790039062 c 0
EndSplineSet
Validated: 524321
EndChar

StartChar: five
Encoding: 53 53 16
Width: 440
GlyphClass: 2
Flags: MW
HStem: 0.114136 6.07739
VStem: 24.443 6.08008
LayerCount: 2
Fore
SplineSet
232.87109375 657.458984375 m 0
 235.473632812 657.479492188 238.08203125 657.455078125 240.690429688 657.385742188 c 0
 254.59375 657.014648438 268.510742188 655.381835938 282.080078125 652.622070312 c 0
 336.358398438 641.583984375 385.390625 612.584960938 406.06640625 572.875 c 0
 416.403320312 553.01953125 419.486328125 530.413085938 412.3203125 506.607421875 c 0
 405.154296875 482.80078125 387.875 457.868164062 357.930664062 432.740234375 c 0
 357.458007812 432.331054688 356.56640625 431.999023438 355.940429688 431.999023438 c 0
 354.259765625 431.999023438 352.896484375 433.362304688 352.896484375 435.041015625 c 0
 352.896484375 435.840820312 353.400390625 436.897460938 354.021484375 437.401367188 c 0
 383.329101562 461.99609375 399.768554688 486.018554688 406.493164062 508.359375 c 0
 413.21875 530.701171875 410.372070312 551.432617188 400.670898438 570.065429688 c 0
 381.268554688 607.330078125 333.794921875 635.895507812 280.868164062 646.659179688 c 0
 227.94140625 657.422851562 169.879882812 650.4375 129.377929688 618.147460938 c 0
 89.6533203125 586.474609375 66.2509765625 530.327148438 80.7744140625 440.80078125 c 1
 94.6220703125 452.317382812 105.0546875 460.555664062 111.794921875 465.13671875 c 0
 115.53515625 467.680664062 118.241210938 469.2734375 120.552734375 470.088867188 c 0
 121.708007812 470.49609375 122.801757812 470.829101562 124.283203125 470.475585938 c 0
 125.763671875 470.12109375 127.188476562 468.36328125 127.383789062 467.0234375 c 0
 127.774414062 464.34375 126.727539062 462.608398438 125.419921875 460.01171875 c 0
 124.114257812 457.413085938 122.234375 454.278320312 119.873046875 450.615234375 c 0
 115.149414062 443.288085938 108.509765625 433.8828125 100.931640625 423.205078125 c 0
 85.77734375 401.850585938 66.8828125 375.438476562 52.4306640625 351.107421875 c 0
 45.205078125 338.94140625 39.0947265625 327.29296875 35.12890625 317.154296875 c 0
 31.162109375 307.018554688 29.4580078125 298.37890625 30.4697265625 292.639648438 c 0
 32.34375 282.012695312 35.32421875 274.491210938 38.9921875 269.517578125 c 0
 42.66015625 264.545898438 46.9091796875 262.010742188 52.087890625 261.041015625 c 0
 62.4453125 259.1015625 77.03125 264.250976562 93.791015625 273.545898438 c 0
 127.309570312 292.135742188 169.142578125 326.24609375 208.7578125 343.565429688 c 0
 254.75 363.671875 302.310546875 345.802734375 333.009765625 307.138671875 c 0
 363.70703125 268.47265625 378.002929688 209 358.888671875 145.23828125 c 0
 333.737304688 61.333984375 262.495117188 -3.443359375 176.390625 0.1142578125 c 0
 86.6884765625 3.8193359375 17.806640625 81.1357421875 24.4423828125 170.669921875 c 0
 24.5224609375 172.265625 25.8818359375 173.560546875 27.48046875 173.560546875 c 0
 29.1591796875 173.560546875 30.5224609375 172.197265625 30.5224609375 170.51953125 c 0
 30.5224609375 170.435546875 30.5166015625 170.302734375 30.5087890625 170.220703125 c 0
 24.1201171875 84.0361328125 90.296875 9.7578125 176.643554688 6.19140625 c 0
 259.5625 2.7666015625 328.569335938 65.2783203125 353.0625 146.984375 c 0
 371.637695312 208.950195312 357.625 266.350585938 328.245117188 303.353515625 c 0
 298.866210938 340.359375 254.581054688 356.9609375 211.193359375 337.9921875 c 0
 172.837890625 321.224609375 131.125976562 287.298828125 96.740234375 268.2265625 c 0
 79.5478515625 258.692382812 64.091796875 252.603515625 50.9677734375 255.061523438 c 0
 44.4072265625 256.288085938 38.5556640625 259.860351562 34.0966796875 265.90625 c 0
 29.6357421875 271.953125 26.4599609375 280.361328125 24.48046875 291.583984375 c 0
 23.1103515625 299.3515625 25.3017578125 308.736328125 29.4638671875 319.37109375 c 0
 33.625 330.006835938 39.8740234375 341.876953125 47.2001953125 354.211914062 c 0
 61.8525390625 378.8828125 80.8271484375 405.387695312 95.9716796875 426.724609375 c 0
 103.54296875 437.393554688 110.16015625 446.776367188 114.759765625 453.912109375 c 0
 117.059570312 457.479492188 118.85546875 460.495117188 119.987304688 462.745117188 c 0
 120.037109375 462.84375 120.001953125 462.796875 120.046875 462.893554688 c 1
 118.66015625 462.171875 117.545898438 461.690429688 115.213867188 460.107421875 c 0
 108.111328125 455.27734375 96.8310546875 446.418945312 80.5302734375 432.740234375 c 0
 80.0634765625 432.34765625 79.185546875 432.028320312 78.5751953125 432.028320312 c 0
 77.166015625 432.028320312 75.8232421875 433.155273438 75.5791015625 434.541992188 c 0
 58.998046875 528.580078125 83.2109375 589.122070312 125.5859375 622.905273438 c 0
 155.37890625 646.658203125 193.811523438 657.157226562 232.87109375 657.458984375 c 0
EndSplineSet
Validated: 524321
EndChar

StartChar: six
Encoding: 54 54 17
Width: 369
GlyphClass: 2
Flags: MW
VStem: 39.9961 6.08008 80.4566 6.08411 332.037 6.03845
LayerCount: 2
Fore
SplineSet
181.35546875 386.606445312 m 0
 142.0625 386.577148438 106.6484375 369.760742188 81.8876953125 342.963867188 c 1
 84.9638671875 315.044921875 86.775390625 286.611328125 86.541015625 259.55078125 c 0
 86.0224609375 199.79296875 75.8798828125 146.513671875 46.0947265625 120.4296875 c 1
 46.916015625 46.123046875 115.288085938 -9.0517578125 188.239257812 6.0966796875 c 1
 287.833984375 39.0439453125 348.758789062 139.381835938 332.030273438 242.959960938 c 0
 319.725585938 319.140625 263.666992188 382.412109375 188.872070312 386.408203125 c 0
 186.350585938 386.54296875 183.845703125 386.607421875 181.35546875 386.606445312 c 0
32.7265625 529.782226562 m 1
 32.6171875 529.337890625 32.5546875 529.384765625 32.46875 528.758789062 c 0
 31.96875 525.087890625 31.93359375 518.50390625 32.61328125 509.022460938 c 0
 33.6474609375 494.584960938 36.947265625 470.765625 41.650390625 441.56640625 c 1
 43.1611328125 455.674804688 45.7744140625 469.489257812 49.4072265625 482.997070312 c 1
 47.2578125 490.814453125 45.095703125 498.659179688 43.078125 504.837890625 c 0
 40.3896484375 513.0625 37.86328125 519.713867188 35.689453125 524.362304688 c 0
 34.603515625 526.6875 33.5986328125 528.51171875 32.7763671875 529.727539062 c 0
 32.7470703125 529.768554688 32.755859375 529.741210938 32.7265625 529.782226562 c 1
224.3125 696.671875 m 0
 225.112304688 696.68359375 225.908203125 696.673828125 226.702148438 696.643554688 c 0
 230.930664062 696.482421875 235.083984375 695.70703125 239.135742188 694.349609375 c 0
 255.341796875 688.918945312 269.630859375 674.697265625 282.28515625 654.844726562 c 0
 307.591796875 615.141601562 326.564453125 552.330078125 338.028320312 487.307617188 c 0
 338.053710938 487.1640625 338.075195312 486.92578125 338.075195312 486.780273438 c 0
 338.075195312 485.099609375 336.712890625 483.737304688 335.032226562 483.737304688 c 0
 333.624023438 483.737304688 332.282226562 484.86328125 332.036132812 486.250976562 c 0
 320.65625 550.796875 301.631835938 613.173828125 277.153320312 651.576171875 c 0
 264.915039062 670.776367188 251.362304688 683.8359375 237.201171875 688.583007812 c 0
 223.0390625 693.329101562 207.953125 690.30859375 190.989257812 676.07421875 c 0
 128.6484375 623.764648438 76.4326171875 558.146484375 55.7236328125 483.056640625 c 1
 59.19140625 470.314453125 62.693359375 456.372070312 66.080078125 440.504882812 c 0
 71.8701171875 413.384765625 77.2119140625 382.51953125 80.9912109375 350.751953125 c 1
 108.359375 378.317382812 146.935546875 394.741210938 189.1953125 392.483398438 c 0
 267.241210938 388.314453125 325.352539062 322.465820312 338.037109375 243.931640625 c 0
 355.2265625 137.49609375 292.59765625 34.2900390625 190.291015625 0.369140625 c 0
 190.16796875 0.31640625 189.959960938 0.248046875 189.830078125 0.2158203125 c 0
 189.71484375 0.18359375 189.524414062 0.1435546875 189.40625 0.1279296875 c 0
 112.62890625 -15.7685546875 40.4462890625 42.7265625 39.9990234375 121.052734375 c 0
 39.9599609375 121.235351562 39.92578125 121.53515625 39.92578125 121.721679688 c 0
 39.92578125 122.236328125 40.1591796875 123 40.4482421875 123.427734375 c 0
 40.4501953125 123.431640625 40.455078125 123.439453125 40.4580078125 123.444335938 c 0
 40.46484375 123.451171875 40.4736328125 123.465820312 40.4794921875 123.47265625 c 0
 40.6728515625 123.770507812 41.0703125 124.168945312 41.3671875 124.362304688 c 0
 69.0556640625 147.897460938 79.9384765625 199.999023438 80.4560546875 259.602539062 c 0
 80.6728515625 284.556640625 79.11328125 310.7734375 76.4248046875 336.690429688 c 1
 55.890625 311.557617188 44.1826171875 278.942382812 46.0703125 243.607421875 c 0
 46.0732421875 243.556640625 46.076171875 243.473632812 46.076171875 243.424804688 c 0
 46.076171875 241.744140625 44.712890625 240.381835938 43.03515625 240.381835938 c 0
 41.431640625 240.381835938 40.0703125 241.681640625 39.99609375 243.282226562 c 0
 37.9130859375 282.270507812 51.734375 318.119140625 75.53125 344.92578125 c 1
 71.7548828125 378.271484375 66.193359375 410.838867188 60.1318359375 439.233398438 c 0
 57.669921875 450.76171875 55.1220703125 461.237304688 52.591796875 471.166992188 c 1
 48.3603515625 452.575195312 46.076171875 433.427734375 46.076171875 413.778320312 c 0
 46.072265625 412.102539062 44.7109375 410.740234375 43.033203125 410.740234375 c 0
 41.6259765625 410.740234375 40.28515625 411.866210938 40.0390625 413.250976562 c 0
 32.080078125 458.38671875 27.9326171875 489.220703125 26.5458984375 508.586914062 c 0
 25.8505859375 518.268554688 25.822265625 525.037109375 26.4423828125 529.580078125 c 0
 26.751953125 531.852539062 27.123046875 533.573242188 28.169921875 535.134765625 c 0
 28.6923828125 535.91796875 29.498046875 536.721679688 30.638671875 537.100585938 c 0
 31.7783203125 537.481445312 33.0361328125 537.291015625 33.9287109375 536.885742188 c 0
 35.716796875 536.078125 36.6982421875 534.77734375 37.8076171875 533.141601562 c 0
 38.91796875 531.505859375 40.02734375 529.448242188 41.2001953125 526.9375 c 0
 43.5458984375 521.918945312 46.1220703125 515.099609375 48.859375 506.725585938 c 0
 50.0390625 503.114257812 51.3154296875 498.190429688 52.5419921875 494.029296875 c 1
 75.28515625 566.737304688 126.693359375 630.065429688 187.078125 680.734375 c 0
 199.763671875 691.37890625 212.333984375 696.471679688 224.3125 696.671875 c 0
EndSplineSet
Validated: 524321
EndChar

StartChar: seven
Encoding: 55 55 18
Width: 551
GlyphClass: 2
Flags: MW
HStem: 0.11145 21G 0.11145 21G 616.016 6.08545
VStem: 93.114 6.03845
LayerCount: 2
Fore
SplineSet
531.0703125 675.703125 m 0xb0
 532.107421875 675.663085938 533.283203125 675.33984375 534.186523438 674.350585938 c 0
 535.392578125 673.029296875 535.376953125 671.427734375 535.17578125 670.2734375 c 0
 534.77734375 667.96484375 533.58203125 665.799804688 531.75390625 662.833984375 c 0
 529.927734375 659.8671875 527.418945312 656.27734375 524.266601562 652.05078125 c 0
 517.963867188 643.595703125 509.09375 632.616210938 498.168945312 619.478515625 c 0
 476.321289062 593.203125 446.258789062 558.3203125 412.326171875 518.1875 c 0
 344.462890625 437.919921875 261.120117188 336.653320312 197.280273438 241.625976562 c 0
 165.362304688 194.11328125 138.323242188 148.155273438 120.541015625 107.264648438 c 0
 102.76171875 66.3759765625 94.3662109375 30.5634765625 99.10546875 3.6826171875 c 0
 99.130859375 3.5361328125 99.15234375 3.2998046875 99.15234375 3.154296875 c 0
 99.15234375 1.4736328125 97.7900390625 0.111328125 96.109375 0.111328125 c 0
 94.701171875 0.111328125 93.3583984375 1.2373046875 93.11328125 2.625 c 0
 88.0068359375 31.5966796875 96.9482421875 68.2626953125 114.961914062 109.690429688 c 0
 132.9765625 151.120117188 160.186523438 197.319335938 192.231445312 245.018554688 c 0
 256.321289062 340.418945312 339.774414062 441.797851562 407.681640625 522.114257812 c 0
 441.63671875 562.274414062 471.705078125 597.16796875 493.493164062 623.368164062 c 0
 504.38671875 636.467773438 513.212890625 647.400390625 519.389648438 655.685546875 c 0
 522.477539062 659.828125 524.904296875 663.310546875 526.573242188 666.022460938 c 0
 527.247070312 667.1171875 527.213867188 667.327148438 527.625976562 668.157226562 c 1
 526.686523438 667.73828125 526.462890625 667.787109375 525.12890625 667.016601562 c 0
 519.0234375 663.5 508.969726562 656.423828125 494.693359375 645.491210938 c 0
 466.139648438 623.623046875 420.5234375 586.26171875 353.564453125 530.07421875 c 0
 353.095703125 529.682617188 352.221679688 529.364257812 351.610351562 529.364257812 c 0
 350.202148438 529.364257812 348.860351562 530.490234375 348.614257812 531.875976562 c 0
 343.510742188 560.819335938 329.265625 581.829101562 308.60546875 595.740234375 c 0
 287.943359375 609.650390625 260.721679688 616.397460938 229.806640625 616.015625 c 0
 167.974609375 615.256835938 91.595703125 585.901367188 25.0634765625 530.07421875 c 0
 24.5869140625 529.650390625 23.6806640625 529.3046875 23.041015625 529.3046875 c 0
 21.36328125 529.3046875 20 530.66796875 20 532.346679688 c 0
 20 533.16015625 20.5166015625 534.229492188 21.1552734375 534.733398438 c 0
 88.6337890625 591.356445312 166.046875 621.317382812 229.732421875 622.1015625 c 0
 261.576171875 622.494140625 290.046875 615.569335938 312.000976562 600.787109375 c 0
 332.71484375 586.83984375 347.387695312 565.754882812 353.490234375 537.918945312 c 1
 418.0234375 592.030273438 462.916992188 628.815429688 490.9921875 650.319335938 c 0
 505.35546875 661.319335938 515.44921875 668.4609375 522.090820312 672.2890625 c 0
 525.413085938 674.202148438 527.69921875 675.365234375 530.09375 675.66015625 c 0
 530.393554688 675.6953125 530.724609375 675.71484375 531.0703125 675.703125 c 0xb0
EndSplineSet
Validated: 524321
EndChar

StartChar: eight
Encoding: 56 56 19
Width: 563
GlyphClass: 2
Flags: MW
HStem: -0.448486 6.16467 288.008 6.10559 451.022 6.06934 600.758 5.65979 681.75 6.29626
VStem: 21 6.07336 57.4657 6.04382
LayerCount: 2
Fore
SplineSet
529.006835938 286.439453125 m 0
 527.868164062 286.451171875 526.611328125 286.396484375 525.240234375 286.2578125 c 0
 519.766601562 285.703125 512.64453125 283.987304688 504.359375 281.196289062 c 0
 487.790039062 275.611328125 466.5390625 265.751953125 443.416992188 252.623046875 c 0
 442.596679688 252.155273438 441.734375 251.612304688 440.905273438 251.13671875 c 1
 441.841796875 250.23046875 442.938476562 249.45703125 443.825195312 248.51171875 c 0
 455.517578125 236.05078125 462.750976562 220.077148438 464.045898438 200.288085938 c 1
 495.19140625 226.737304688 515.561523438 246.958984375 526.576171875 261.130859375 c 0
 532.375 268.59375 535.647460938 274.474609375 536.802734375 278.458007812 c 0
 537.377929688 280.447265625 537.420898438 281.916015625 537.213867188 282.87890625 c 0
 537.005859375 283.841796875 536.65234375 284.375976562 535.904296875 284.927734375 c 0
 534.78125 285.759765625 532.424804688 286.40234375 529.006835938 286.439453125 c 0
242.65625 288.0078125 m 0
 188.375976562 288.0078125 134.185546875 275.915039062 93.849609375 252.006835938 c 0
 53.5146484375 228.095703125 27.0732421875 192.755859375 27.0732421875 145.297851562 c 0
 27.0732421875 98.2353515625 53.5830078125 63.6708984375 93.9677734375 40.416015625 c 0
 133.490234375 17.65625 186.252929688 6.19921875 239.190429688 5.7158203125 c 1
 232.526367188 53.392578125 259.3203125 102.7265625 298.8984375 146.673828125 c 0
 336.72265625 188.67578125 386.288085938 225.791015625 430.706054688 252.155273438 c 1
 419.653320312 260.918945312 405.759765625 267.706054688 389.69921875 272.788085938 c 0
 348.561523438 285.805664062 294.100585938 288.0078125 242.65625 288.0078125 c 0
314.861328125 681.793945312 m 0
 314.529296875 681.8046875 314.068359375 681.797851562 313.456054688 681.750976562 c 0
 312.1015625 681.645507812 310.205078125 681.35546875 307.958007812 680.66796875 c 0
 303.463867188 679.291015625 297.489257812 676.766601562 290.471679688 673.245117188 c 0
 276.436523438 666.20703125 258.178710938 655.189453125 238.159179688 641.3515625 c 0
 198.119140625 613.672851562 150.974609375 574.665039062 115.639648438 533.435546875 c 0
 80.306640625 492.206054688 57.1484375 448.84765625 63.4638671875 413.028320312 c 0
 63.4892578125 412.885742188 63.5087890625 412.651367188 63.5087890625 412.506835938 c 2
 63.5087890625 412.5 l 2
 63.5087890625 373.141601562 85.400390625 343.877929688 118.90625 324.014648438 c 0
 152.130859375 304.319335938 196.740234375 294.282226562 241.514648438 294.112304688 c 1
 280.725585938 327.376953125 320.627929688 387.267578125 353.533203125 424.411132812 c 0
 361.815429688 433.759765625 369.666015625 441.67578125 377.098632812 447.412109375 c 0
 384.530273438 453.147460938 391.583007812 456.822265625 398.524414062 457.090820312 c 0
 405.466796875 457.359375 411.908203125 453.727539062 416.705078125 446.473632812 c 0
 417.682617188 444.995117188 418.579101562 443.263671875 419.461914062 441.478515625 c 1
 406.27734375 530.619140625 333.572265625 600.7578125 242.65625 600.7578125 c 0
 240.98046875 600.7578125 239.62109375 602.119140625 239.62109375 603.795898438 c 0
 239.62109375 604.576171875 240.106445312 605.6171875 240.705078125 606.119140625 c 0
 272.236328125 632.577148438 292.604492188 651.76953125 304.036132812 664.623046875 c 0
 309.751953125 671.051757812 313.229492188 675.951171875 314.684570312 679.024414062 c 0
 315.370117188 680.473632812 315.499023438 681.38671875 315.50390625 681.731445312 c 0
 315.400390625 681.75390625 315.194335938 681.783203125 314.861328125 681.793945312 c 0
314.38671875 688.111328125 m 0
 315.829101562 688.090820312 317.173828125 687.802734375 318.47265625 687.14453125 c 0
 320.204101562 686.263671875 321.495117188 684.211914062 321.61328125 682.264648438 c 0
 321.731445312 680.318359375 321.146484375 678.482421875 320.171875 676.42578125 c 0
 318.2265625 672.31640625 314.483398438 667.229492188 308.575195312 660.588867188 c 0
 297.546875 648.1875 278.555664062 630.306640625 250.390625 606.41796875 c 1
 350.552734375 602.1171875 427.694335938 515.615234375 427.860351562 412.829101562 c 0
 427.860351562 412.826171875 427.861328125 412.822265625 427.862304688 412.8203125 c 0
 427.873046875 412.721679688 427.8828125 412.5625 427.8828125 412.462890625 c 0
 427.8828125 411.6953125 427.411132812 410.665039062 426.831054688 410.1640625 c 0
 426.704101562 410.052734375 426.483398438 409.8984375 426.3359375 409.814453125 c 0
 426.274414062 409.780273438 426.169921875 409.727539062 426.10546875 409.697265625 c 0
 426.094726562 409.692382812 426.076171875 409.684570312 426.065429688 409.678710938 c 0
 426.059570312 409.676757812 426.053710938 409.674804688 426.046875 409.673828125 c 0
 425.978515625 409.642578125 425.860351562 409.598632812 425.786132812 409.57421875 c 0
 425.78515625 409.573242188 425.783203125 409.571289062 425.782226562 409.571289062 c 0
 425.720703125 409.551757812 425.62109375 409.524414062 425.557617188 409.509765625 c 0
 425.530273438 409.502929688 425.485351562 409.4921875 425.458007812 409.485351562 c 0
 425.415039062 409.477539062 425.345703125 409.465820312 425.302734375 409.459960938 c 0
 425.26171875 409.451171875 425.196289062 409.442382812 425.154296875 409.438476562 c 0
 425.112304688 409.434570312 425.043945312 409.428710938 425.000976562 409.427734375 c 0
 424.958984375 409.426757812 424.890625 409.423828125 424.848632812 409.423828125 c 0
 424.8203125 409.423828125 424.776367188 409.42578125 424.747070312 409.42578125 c 0
 424.684570312 409.427734375 424.58203125 409.43359375 424.517578125 409.439453125 c 2
 424.515625 409.439453125 l 1
 424.514648438 409.439453125 l 2
 424.509765625 409.440429688 424.504882812 409.440429688 424.5 409.442382812 c 0
 424.424804688 409.450195312 424.3046875 409.470703125 424.23046875 409.485351562 c 0
 424.216796875 409.48828125 424.192382812 409.493164062 424.176757812 409.498046875 c 0
 424.106445312 409.513671875 423.9921875 409.544921875 423.921875 409.56640625 c 0
 423.841796875 409.590820312 423.713867188 409.640625 423.63671875 409.673828125 c 0
 423.481445312 409.740234375 423.245117188 409.872070312 423.107421875 409.96875 c 0
 422.509765625 410.384765625 421.94140625 411.30859375 421.837890625 412.03125 c 0
 419.2109375 426.90625 415.6484375 437.05859375 411.639648438 443.124023438 c 0
 407.624023438 449.1953125 403.634765625 451.209960938 398.758789062 451.021484375 c 0
 393.8828125 450.83203125 387.731445312 447.948242188 380.807617188 442.603515625 c 0
 373.8828125 437.260742188 366.22265625 429.576171875 358.078125 420.380859375 c 0
 327.029296875 385.333984375 289.060546875 328.794921875 250.345703125 293.977539062 c 1
 299.685546875 293.759765625 351.206054688 291.334960938 391.529296875 278.576171875 c 0
 408.923828125 273.072265625 424.079101562 265.4921875 436.172851562 255.388671875 c 0
 437.577148438 256.202148438 439.028320312 257.11328125 440.419921875 257.904296875 c 0
 463.793945312 271.176757812 485.291992188 281.177734375 502.419921875 286.951171875 c 0
 510.982421875 289.8359375 518.447265625 291.673828125 524.6328125 292.30078125 c 0
 530.817382812 292.927734375 535.862304688 292.51171875 539.513671875 289.8125 c 0
 541.33984375 288.461914062 542.662109375 286.43359375 543.15234375 284.154296875 c 0
 543.641601562 281.875976562 543.40234375 279.416992188 542.631835938 276.765625 c 0
 541.095703125 271.463867188 537.42578125 265.193359375 531.37109375 257.403320312 c 0
 519.26171875 241.823242188 497.475585938 220.291015625 463.229492188 191.5546875 c 0
 462.76171875 191.163085938 461.887695312 190.844726562 461.27734375 190.844726562 c 0
 459.6015625 190.844726562 458.240234375 192.205078125 458.240234375 193.880859375 c 0
 458.240234375 215.368164062 451.348632812 231.618164062 439.396484375 244.354492188 c 0
 438.205078125 245.624023438 436.737304688 246.704101562 435.444335938 247.903320312 c 0
 391.072265625 221.752929688 341.124023438 184.48828125 303.411132812 142.609375 c 0
 263.439453125 98.22265625 237.551757812 49.029296875 245.647460938 3.115234375 c 0
 245.672851562 2.9716796875 245.694335938 2.7353515625 245.694335938 2.5888671875 c 0
 245.694335938 0.912109375 244.333984375 -0.44921875 242.65625 -0.44921875 c 0
 187.701171875 -0.44921875 132.599609375 11.1591796875 90.9375 35.150390625 c 0
 49.2744140625 59.14453125 21 95.9345703125 21 145.297851562 c 0
 21 195.028320312 49.142578125 232.564453125 90.7509765625 257.23046875 c 0
 121.137695312 275.243164062 158.75390625 286.522460938 198.309570312 291.338867188 c 1
 167.99609375 295.8125 139.3203125 304.854492188 115.811523438 318.791015625 c 0
 81.1416015625 339.34375 57.615234375 370.680664062 57.4658203125 412.1171875 c 1
 50.6591796875 451.166992188 75.236328125 495.622070312 111.030273438 537.388671875 c 0
 146.868164062 579.206054688 194.307617188 618.418945312 234.706054688 646.346679688 c 0
 254.90625 660.310546875 273.333007812 671.442382812 287.75 678.673828125 c 0
 294.958007812 682.290039062 301.150390625 684.931640625 306.1796875 686.47265625 c 0
 308.6953125 687.2421875 310.901367188 687.852539062 312.9140625 688.046875 c 0
 313.415039062 688.094726562 313.907226562 688.1171875 314.38671875 688.111328125 c 0
EndSplineSet
Validated: 524321
EndChar

StartChar: nine
Encoding: 57 57 20
Width: 490
GlyphClass: 2
Flags: MW
HStem: 0.11145 6.08276 289.069 6.08411 640.496 6.08948
VStem: 20 6.08411 348.497 6.04114
LayerCount: 2
Fore
SplineSet
448.544921875 640.49609375 m 0
 443.919921875 640.380859375 437.787109375 638.81640625 430.159179688 635.409179688 c 0
 412.724609375 627.619140625 387.6171875 610.412109375 353.497070312 581.782226562 c 0
 353.029296875 581.389648438 352.154296875 581.072265625 351.54296875 581.072265625 c 0
 350.134765625 581.072265625 348.791992188 582.196289062 348.547851562 583.583984375 c 0
 344.458984375 606.768554688 333.916992188 620.234375 318.622070312 626.888671875 c 0
 303.329101562 633.541992188 282.798828125 633.198242188 259.112304688 626.958984375 c 0
 211.739257812 614.483398438 152.247070312 578.638671875 97.9970703125 533.115234375 c 0
 48.1767578125 491.311523438 36.8203125 431.875 52.41796875 382.771484375 c 0
 68.015625 333.666992188 110.416015625 295.153320312 169.04296875 295.153320312 c 0
 243.505859375 295.153320312 316.627929688 312.701171875 382.93359375 345.674804688 c 1
 401.627929688 404.634765625 423.663085938 464.853515625 440.125976562 515.63671875 c 0
 449.596679688 544.850585938 457.143554688 570.921875 460.994140625 591.638671875 c 0
 464.844726562 612.358398438 464.608398438 627.703125 460.252929688 634.786132812 c 0
 458.075195312 638.328125 455.228515625 640.125976562 450.434570312 640.458984375 c 0
 449.8359375 640.499023438 449.205078125 640.512695312 448.544921875 640.49609375 c 0
448.411132812 646.584960938 m 0
 449.24609375 646.603515625 450.061523438 646.583007812 450.857421875 646.528320312 c 0
 457.223632812 646.086914062 462.359375 642.969726562 465.43359375 637.97265625 c 0
 471.580078125 627.977539062 470.919921875 611.747070312 466.975585938 590.528320312 c 0
 463.03125 569.30859375 455.416992188 543.081054688 445.912109375 513.759765625 c 0
 429.904296875 464.379882812 408.731445312 406.344726562 390.466796875 349.334960938 c 1
 401.485351562 355.0546875 412.346679688 361.107421875 422.935546875 367.6953125 c 0
 423.342773438 367.950195312 424.063476562 368.155273438 424.541992188 368.155273438 c 0
 426.22265625 368.155273438 427.5859375 366.791992188 427.5859375 365.112304688 c 0
 427.5859375 364.180664062 426.942382812 363.022460938 426.150390625 362.529296875 c 0
 413.743164062 354.809570312 400.928710938 347.892578125 387.947265625 341.350585938 c 1
 385.418945312 333.345703125 382.733398438 325.271484375 380.370117188 317.35546875 c 0
 360.423828125 250.560546875 347.280273438 187.814453125 354.5390625 146.640625 c 0
 354.564453125 146.49609375 354.584960938 146.263671875 354.584960938 146.1171875 c 2
 354.584960938 146.111328125 l 2
 354.584960938 64.9169921875 287.234375 0.111328125 205.541015625 0.111328125 c 0
 157.768554688 0.111328125 111.556640625 14.1943359375 77.111328125 39.4873046875 c 0
 42.666015625 64.779296875 20 101.4921875 20 146.111328125 c 0
 20 147.791015625 21.36328125 149.154296875 23.041015625 149.154296875 c 0
 24.720703125 149.154296875 26.083984375 147.791015625 26.083984375 146.111328125 c 0
 26.083984375 103.54296875 47.4951171875 68.7802734375 80.7138671875 44.3876953125 c 0
 113.930664062 19.998046875 158.967773438 6.1943359375 205.541015625 6.1943359375 c 0
 283.993164062 6.1943359375 348.452148438 68.236328125 348.497070312 146.029296875 c 1
 341.004882812 189.4296875 354.57421875 252.228515625 374.541992188 319.094726562 c 0
 376.374023438 325.236328125 378.479492188 331.5 380.413085938 337.693359375 c 1
 314.65625 305.965820312 242.500976562 289.0703125 169.04296875 289.0703125 c 0
 107.741210938 289.0703125 62.90625 329.65234375 46.619140625 380.928710938 c 0
 30.330078125 432.205078125 42.435546875 494.434570312 94.087890625 537.776367188 c 0
 148.807617188 583.693359375 208.641601562 619.95703125 257.563476562 632.842773438 c 0
 282.024414062 639.28515625 303.884765625 639.934570312 321.049804688 632.467773438 c 0
 337.01953125 625.521484375 348.419921875 611.291015625 353.435546875 589.556640625 c 1
 385.697265625 616.342773438 409.9375 633.037109375 427.678710938 640.963867188 c 0
 435.764648438 644.575195312 442.571289062 646.465820312 448.411132812 646.584960938 c 0
EndSplineSet
Validated: 524321
EndChar

StartChar: question
Encoding: 63 63 21
Width: 313
GlyphClass: 2
Flags: MW
HStem: 0.11145 6.08276
VStem: 20 6.08411 111.185 6.22375
LayerCount: 2
Fore
SplineSet
114.295898438 6.1943359375 m 1
 114.368164062 6.1943359375 l 2
 116.045898438 6.1943359375 117.409179688 4.83203125 117.409179688 3.1533203125 c 0
 117.409179688 1.47265625 116.045898438 0.109375 114.368164062 0.109375 c 0
 114.34765625 0.109375 114.31640625 0.111328125 114.295898438 0.111328125 c 0
 114.27734375 0.111328125 114.245117188 0.109375 114.2265625 0.109375 c 0
 112.545898438 0.109375 111.185546875 1.47265625 111.185546875 3.1533203125 c 0
 111.185546875 4.83203125 112.545898438 6.1943359375 114.2265625 6.1943359375 c 2
 114.295898438 6.1943359375 l 1
157.630859375 542.0625 m 0
 191.666015625 541.842773438 222.844726562 529.138671875 246.002929688 508.721679688 c 0
 278.936523438 479.68359375 295.71875 434.831054688 281.453125 388.55078125 c 0
 268.008789062 344.932617188 226.08984375 320.000976562 188.392578125 293.97265625 c 0
 169.541992188 280.959960938 151.678710938 267.665039062 138.645507812 251.91015625 c 0
 126.84765625 237.6484375 119.01953125 221.430664062 117.625976562 201.221679688 c 1
 122.59375 205.07421875 126.913085938 208.080078125 130.250976562 209.571289062 c 0
 132.5078125 210.580078125 134.501953125 211.1484375 136.530273438 211.008789062 c 0
 138.556640625 210.868164062 140.590820312 209.6640625 141.622070312 207.986328125 c 0
 143.684570312 204.631835938 143.1875 200.681640625 142.276367188 195.771484375 c 0
 141.36328125 190.862304688 139.645507812 184.970703125 137.51953125 178.415039062 c 0
 133.267578125 165.299804688 127.368164062 149.553710938 122.96875 134.821289062 c 0
 118.5703125 120.088867188 115.833007812 106.250976562 117.29296875 97.97265625 c 0
 117.319335938 97.828125 117.338867188 97.591796875 117.338867188 97.443359375 c 0
 117.338867188 95.765625 115.9765625 94.40234375 114.295898438 94.40234375 c 0
 112.887695312 94.40234375 111.545898438 95.5283203125 111.299804688 96.916015625 c 0
 109.446289062 107.434570312 112.655273438 121.543945312 117.140625 136.563476562 c 0
 121.625 151.58203125 127.548828125 167.390625 131.73046875 180.291992188 c 0
 133.822265625 186.7421875 135.474609375 192.473632812 136.293945312 196.8828125 c 0
 137.112304688 201.29296875 136.709960938 204.358398438 136.438476562 204.799804688 c 0
 136.303710938 205.020507812 136.563476562 204.908203125 136.110351562 204.940429688 c 0
 135.657226562 204.971679688 134.466796875 204.791015625 132.732421875 204.016601562 c 0
 129.263671875 202.467773438 123.756835938 198.745117188 116.251953125 192.448242188 c 0
 115.784179688 192.055664062 114.908203125 191.737304688 114.296875 191.737304688 c 0
 112.619140625 191.737304688 111.255859375 193.100585938 111.255859375 194.778320312 c 0
 111.255859375 219.525390625 120.260742188 239.229492188 133.958984375 255.7890625 c 0
 147.65625 272.346679688 165.975585938 285.88671875 184.935546875 298.977539062 c 0
 222.85546875 325.159179688 263.061523438 349.529296875 275.640625 390.340820312 c 0
 289.1875 434.291015625 273.361328125 476.490234375 241.977539062 504.159179688 c 0
 210.594726562 531.830078125 163.723632812 544.7578125 115.209960938 529.502929688 c 0
 64.1064453125 513.432617188 28.5078125 467.158203125 26.083984375 413.642578125 c 0
 26.05859375 411.990234375 24.6953125 410.6484375 23.0419921875 410.6484375 c 0
 21.36328125 410.6484375 20 412.01171875 20 413.69140625 c 0
 20 413.752929688 20.00390625 413.854492188 20.009765625 413.916992188 c 0
 22.546875 469.965820312 59.8603515625 518.473632812 113.3828125 535.305664062 c 0
 126.014648438 539.278320312 138.560546875 541.41796875 150.788085938 541.939453125 c 0
 153.081054688 542.036132812 155.362304688 542.078125 157.630859375 542.0625 c 0
EndSplineSet
Validated: 524321
EndChar

StartChar: A
Encoding: 65 65 23
Width: 421
GlyphClass: 2
Flags: MW
HStem: 0.0805664 21G 0.0805664 21G 161.433 6.08276
VStem: 358.893 6.05188 362.407 6.05859
LayerCount: 2
Fore
SplineSet
205.565429688 529.395507812 m 0x20
 205.508789062 529.395507812 205.552734375 529.385742188 205.642578125 529.383789062 c 1
 205.624023438 529.384765625 205.579101562 529.395507812 205.565429688 529.395507812 c 0x20
205.952148438 529.419921875 m 1
 205.89453125 529.409179688 205.798828125 529.395507812 205.740234375 529.38671875 c 1
 205.799804688 529.392578125 205.862304688 529.403320312 205.952148438 529.419921875 c 1
154.80859375 737.515625 m 0
 155.885742188 737.479492188 156.943359375 737.140625 157.828125 736.627929688 c 0
 160.1875 735.258789062 161.8125 732.938476562 163.57421875 729.658203125 c 0
 167.09765625 723.099609375 170.806640625 712.310546875 175.111328125 696.297851562 c 0
 183.58984375 664.762695312 194.200195312 612.8671875 207.754882812 536.240234375 c 1
 235.34765625 559.129882812 258.361328125 572.779296875 277.796875 578.220703125 c 0
 297.69921875 583.79296875 314.16015625 580.626953125 326.838867188 570.232421875 c 0
 352.194335938 549.44140625 362.913085938 502.068359375 368.465820312 440.721679688 c 0
 379.5703125 318.029296875 368.333984375 138.322265625 392.07421875 3.6826171875 c 0
 392.108398438 3.5166015625 392.135742188 3.244140625 392.135742188 3.0732421875 c 0
 392.135742188 1.3955078125 390.7734375 0.0322265625 389.092773438 0.0322265625 c 0
 387.645507812 0.0322265625 386.297851562 1.193359375 386.083984375 2.625 c 0
 362.127929688 138.497070312 373.4296875 318.3828125 362.407226562 440.172851562 c 0xa8
 356.895507812 501.068359375 345.381835938 547.16015625 322.978515625 565.529296875 c 0
 311.778320312 574.713867188 297.9765625 577.552734375 279.439453125 572.36328125 c 0
 260.901367188 567.172851562 237.858398438 553.661132812 209.75 530.07421875 c 0
 209.03125 529.471679688 208.020507812 529.174804688 207.307617188 529.15625 c 0
 206.59375 529.138671875 206.13671875 529.2734375 205.850585938 529.346679688 c 0
 205.758789062 529.37109375 205.720703125 529.373046875 205.668945312 529.376953125 c 0
 205.583984375 529.369140625 205.447265625 529.36328125 205.36328125 529.36328125 c 0
 203.954101562 529.36328125 202.61328125 530.48828125 202.3671875 531.875976562 c 0
 188.520507812 610.405273438 177.741210938 663.083984375 169.236328125 694.719726562 c 0
 164.984375 710.538085938 161.248046875 721.140625 158.216796875 726.779296875 c 0
 156.702148438 729.598632812 155.271484375 731.079101562 154.774414062 731.366210938 c 0
 154.716796875 731.401367188 154.727539062 731.39453125 154.704101562 731.409179688 c 0
 154.65234375 731.375 154.579101562 731.32421875 154.443359375 731.189453125 c 0
 153.208007812 729.962890625 150.611328125 723.669921875 148.728515625 714.043945312 c 0
 146.845703125 704.418945312 145.1640625 691.333007812 143.610351562 675.501953125 c 0
 140.501953125 643.841796875 137.884765625 601.176757812 134.911132812 552.5625 c 0
 128.962890625 455.334960938 121.587890625 334.295898438 105.880859375 229.21484375 c 0
 99.3466796875 185.498046875 91.3701171875 144.56640625 81.4267578125 109.190429688 c 1
 136.852539062 146.98046875 196.26953125 166.896484375 246.641601562 167.515625 c 0
 276.77734375 167.887695312 303.732421875 161.3359375 324.52734375 147.333984375 c 0
 345.321289062 133.333007812 359.8125 111.821289062 364.8828125 83.0654296875 c 0
 364.916992188 82.8974609375 364.944335938 82.6220703125 364.944335938 82.4501953125 c 0
 364.944335938 80.771484375 363.581054688 79.408203125 361.903320312 79.408203125 c 0
 360.452148438 79.408203125 359.1015625 80.5751953125 358.893554688 82.01171875 c 0
 354.073242188 109.340820312 340.631835938 129.16015625 321.129882812 142.290039062 c 0
 301.62890625 155.418945312 275.924804688 161.79296875 246.71875 161.43359375 c 0
 196.063476562 160.810546875 135.049804688 139.8515625 78.7275390625 99.890625 c 0
 77.564453125 96.01171875 76.3828125 92.1796875 75.1689453125 88.4521484375 c 0
 62.23828125 48.78125 46.404296875 17.9169921875 26.033203125 0.822265625 c 0
 25.560546875 0.412109375 24.6689453125 0.080078125 24.0419921875 0.080078125 c 0xb0
 22.36328125 0.080078125 21 1.443359375 21 3.1220703125 c 0
 21 3.921875 21.50390625 4.978515625 22.1240234375 5.482421875 c 0
 40.8955078125 21.2353515625 56.6220703125 51.185546875 69.3837890625 90.337890625 c 0
 69.767578125 91.5126953125 70.138671875 92.724609375 70.517578125 93.9150390625 c 1
 64.6884765625 89.548828125 58.91796875 84.9833984375 53.224609375 80.2080078125 c 0
 52.751953125 79.798828125 51.8603515625 79.46484375 51.234375 79.46484375 c 0
 49.5537109375 79.46484375 48.1904296875 80.828125 48.1904296875 82.5068359375 c 0
 48.1904296875 83.306640625 48.6943359375 84.36328125 49.3154296875 84.869140625 c 0
 57.248046875 91.5244140625 65.326171875 97.7880859375 73.5068359375 103.661132812 c 1
 84.302734375 140.227539062 92.90625 183.557617188 99.865234375 230.114257812 c 0
 115.510742188 334.79296875 122.889648438 455.706054688 128.838867188 552.934570312 c 0
 131.8125 601.549804688 134.427734375 644.237304688 137.556640625 676.095703125 c 0
 139.120117188 692.024414062 140.807617188 705.241210938 142.758789062 715.213867188 c 0
 144.708984375 725.185546875 146.411132812 731.7890625 150.154296875 735.506835938 c 0
 151.08984375 736.436523438 152.299804688 737.206054688 153.73046875 737.446289062 c 0
 154.086914062 737.505859375 154.450195312 737.52734375 154.80859375 737.515625 c 0
EndSplineSet
Validated: 524325
EndChar

StartChar: B
Encoding: 66 66 24
Width: 382
GlyphClass: 2
Flags: MW
HStem: 0.11145 21G 0.11145 21G 289.069 6.32043 402.589 6.09888 529.361 6.05591 567.876 6.08142
VStem: 25.9758 6.06531 50.3981 6.05054 123.696 6.08142
LayerCount: 2
Fore
SplineSet
108.3671875 111.958984375 m 1x3f80
 98.3466796875 109.1796875 89.0068359375 104.7421875 81.029296875 98.3828125 c 0
 61.0224609375 82.43359375 49.09765625 54.3349609375 55.6416015625 9.4208984375 c 1
 80.556640625 32.5283203125 97.58984375 68.27734375 108.3671875 111.958984375 c 1x3f80
133.359375 404.481445312 m 1
 129.31640625 404.400390625 125.299804688 404.095703125 121.340820312 403.569335938 c 0
 126.9140625 353.133789062 130.202148438 301.780273438 129.778320312 252.885742188 c 0
 129.364257812 205.197265625 125.504882812 159.8671875 116.779296875 120.112304688 c 1
 131.192382812 122.547851562 146.368164062 121.998046875 160.790039062 119.065429688 c 0
 189.676757812 113.190429688 215.850585938 97.828125 227.034179688 76.3466796875 c 0
 232.625 65.607421875 234.303710938 53.265625 230.428710938 40.388671875 c 0
 227.09375 29.3154296875 219.7421875 17.8984375 207.6328125 6.427734375 c 1
 275.028320312 10.099609375 332.250976562 58.541015625 342.385742188 125.276367188 c 0
 355.521484375 211.77734375 287.516601562 289.0703125 199.39453125 289.0703125 c 2
 199.385742188 289.0703125 l 2
 199.3515625 289.0703125 199.296875 289.071289062 199.262695312 289.072265625 c 0
 199.1796875 289.076171875 199.045898438 289.087890625 198.96484375 289.100585938 c 2
 198.961914062 289.100585938 l 1
 198.958984375 289.100585938 l 2
 198.877929688 289.11328125 198.745117188 289.137695312 198.666992188 289.158203125 c 2
 198.6640625 289.158203125 l 1
 198.661132812 289.158203125 l 2
 198.581054688 289.178710938 198.453125 289.216796875 198.375976562 289.245117188 c 0
 198.309570312 289.26953125 198.205078125 289.3125 198.141601562 289.340820312 c 0
 198.126953125 289.34765625 198.102539062 289.357421875 198.088867188 289.362304688 c 0
 198.013671875 289.3984375 197.895507812 289.462890625 197.825195312 289.505859375 c 2
 197.823242188 289.505859375 l 1
 197.821289062 289.505859375 l 2
 197.750976562 289.548828125 197.638671875 289.625 197.573242188 289.674804688 c 0
 197.572265625 289.67578125 197.5703125 289.67578125 197.568359375 289.677734375 c 0
 197.517578125 289.716796875 197.434570312 289.783203125 197.387695312 289.828125 c 0
 197.372070312 289.83984375 197.348632812 289.858398438 197.334960938 289.87109375 c 0
 197.2734375 289.927734375 197.180664062 290.0234375 197.125 290.0859375 c 0
 197.123046875 290.0859375 197.123046875 290.087890625 197.122070312 290.088867188 c 0
 197.067382812 290.150390625 196.982421875 290.254882812 196.934570312 290.322265625 c 0
 196.93359375 290.322265625 196.931640625 290.32421875 196.931640625 290.32421875 c 2
 196.883789062 290.392578125 196.809570312 290.504882812 196.766601562 290.577148438 c 2
 196.766601562 290.577148438 196.765625 290.578125 196.765625 290.580078125 c 0
 196.745117188 290.615234375 196.71484375 290.672851562 196.698242188 290.70703125 c 0
 196.676757812 290.747070312 196.64453125 290.810546875 196.626953125 290.848632812 c 0
 196.592773438 290.92578125 196.541015625 291.052734375 196.514648438 291.133789062 c 0
 196.487304688 291.2109375 196.450195312 291.33984375 196.431640625 291.422851562 c 2
 196.431640625 291.423828125 l 2
 196.412109375 291.505859375 196.38671875 291.637695312 196.375976562 291.720703125 c 2
 196.375976562 291.721679688 l 1
 196.375976562 291.724609375 l 2
 196.365234375 291.806640625 196.354492188 291.940429688 196.3515625 292.022460938 c 2
 196.3515625 292.025390625 l 1
 196.3515625 292.02734375 l 1
 196.3515625 292.103515625 l 2
 196.3515625 292.166015625 196.354492188 292.266601562 196.359375 292.328125 c 2
 196.359375 292.329101562 l 1
 196.359375 292.331054688 l 2
 196.360351562 292.341796875 196.362304688 292.359375 196.364257812 292.37109375 c 0
 196.370117188 292.444335938 196.385742188 292.5625 196.397460938 292.6328125 c 0
 196.426757812 292.799804688 196.499023438 293.061523438 196.560546875 293.217773438 c 0
 196.58984375 293.294921875 196.64453125 293.418945312 196.681640625 293.4921875 c 2
 196.681640625 293.494140625 l 1
 196.681640625 293.49609375 l 2
 196.692382812 293.513671875 196.712890625 293.546875 196.724609375 293.56640625 c 0
 196.75390625 293.620117188 196.8046875 293.70703125 196.836914062 293.759765625 c 0
 196.880859375 293.829101562 196.959960938 293.938476562 197.01171875 294.002929688 c 0
 197.01171875 294.00390625 197.012695312 294.006835938 197.013671875 294.0078125 c 0
 197.03515625 294.033203125 197.071289062 294.07421875 197.094726562 294.098632812 c 0
 197.126953125 294.13671875 197.181640625 294.197265625 197.216796875 294.234375 c 0
 197.272460938 294.293945312 197.370117188 294.385742188 197.432617188 294.439453125 c 0
 197.43359375 294.44140625 197.436523438 294.44140625 197.438476562 294.442382812 c 0
 197.442382812 294.4453125 197.4453125 294.447265625 197.450195312 294.452148438 c 0
 212.717773438 307.265625 221.168945312 319.694335938 224.603515625 331.102539062 c 0
 228.038085938 342.514648438 226.59375 352.979492188 221.638671875 362.497070312 c 0
 211.729492188 381.530273438 187.111328125 396.462890625 159.575195312 402.0625 c 0
 150.970703125 403.813476562 142.110351562 404.657226562 133.359375 404.482421875 c 1
 133.359375 404.481445312 l 1
145.280273438 567.875976562 m 0
 130.751953125 567.696289062 114.2734375 563.755859375 97.5849609375 556.422851562 c 1
 106.639648438 510.974609375 114.8125 460.860351562 120.66796875 409.65234375 c 1
 133.903320312 411.38671875 147.659179688 410.6953125 160.790039062 408.024414062 c 0
 189.676757812 402.150390625 215.850585938 386.78515625 227.034179688 365.305664062 c 0
 232.625 354.56640625 234.303710938 342.223632812 230.428710938 329.345703125 c 0
 227.09375 318.275390625 219.459960938 306.860351562 207.353515625 295.389648438 c 1
 237.599609375 296.5546875 267.196289062 304.259765625 291.03125 318.435546875 c 0
 316.95703125 333.856445312 336.0625 356.682617188 342.41796875 387.028320312 c 0
 350.448242188 425.39453125 336.547851562 460.744140625 309.666992188 486.791015625 c 0
 282.790039062 512.833007812 242.899414062 529.359375 199.405273438 529.362304688 c 2
 199.399414062 529.362304688 l 1
 199.393554688 529.362304688 l 2
 199.334960938 529.362304688 199.239257812 529.366210938 199.181640625 529.37109375 c 0
 199.139648438 529.374023438 199.072265625 529.380859375 199.03125 529.385742188 c 0
 198.986328125 529.390625 198.915039062 529.40234375 198.87109375 529.409179688 c 0
 198.837890625 529.416015625 198.784179688 529.426757812 198.75 529.432617188 c 0
 198.69921875 529.4453125 198.618164062 529.466796875 198.569335938 529.481445312 c 0
 198.53515625 529.491210938 198.481445312 529.505859375 198.44921875 529.516601562 c 0
 198.405273438 529.53125 198.334960938 529.555664062 198.291992188 529.5703125 c 0
 198.258789062 529.583984375 198.205078125 529.607421875 198.172851562 529.622070312 c 0
 198.125976562 529.642578125 198.048828125 529.677734375 198.002929688 529.703125 c 0
 197.971679688 529.71875 197.922851562 529.74609375 197.893554688 529.76171875 c 0
 197.85546875 529.783203125 197.796875 529.817382812 197.760742188 529.840820312 c 0
 197.720703125 529.8671875 197.657226562 529.91015625 197.619140625 529.935546875 c 0
 197.591796875 529.956054688 197.546875 529.991210938 197.518554688 530.012695312 c 0
 197.484375 530.040039062 197.427734375 530.0859375 197.391601562 530.115234375 c 0
 197.36328125 530.139648438 197.315429688 530.182617188 197.288085938 530.2109375 c 0
 197.25 530.247070312 197.19140625 530.30859375 197.155273438 530.34765625 c 0
 197.135742188 530.369140625 197.103515625 530.405273438 197.084960938 530.427734375 c 0
 197.052734375 530.46484375 197.000976562 530.528320312 196.970703125 530.568359375 c 0
 196.951171875 530.59375 196.920898438 530.635742188 196.904296875 530.662109375 c 0
 196.873046875 530.706054688 196.82421875 530.778320312 196.796875 530.82421875 c 0
 196.775390625 530.859375 196.743164062 530.91796875 196.72265625 530.955078125 c 0
 196.708007812 530.984375 196.682617188 531.029296875 196.669921875 531.057617188 c 0
 196.647460938 531.104492188 196.611328125 531.180664062 196.590820312 531.229492188 c 0
 196.575195312 531.263671875 196.553710938 531.317382812 196.541015625 531.3515625 c 0
 196.526367188 531.390625 196.506835938 531.453125 196.493164062 531.493164062 c 0
 196.478515625 531.5390625 196.458984375 531.61328125 196.448242188 531.659179688 c 0
 196.439453125 531.694335938 196.423828125 531.752929688 196.41796875 531.790039062 c 0
 196.411132812 531.813476562 196.40234375 531.852539062 196.397460938 531.875976562 c 0
 194.19921875 544.34375 188.16015625 553.212890625 179.3359375 559.153320312 c 0
 170.512695312 565.092773438 158.762695312 568.041015625 145.280273438 567.875976562 c 0
33.5537109375 747.584960938 m 0
 33.0751953125 746.859375 32.2734375 744.626953125 31.798828125 741.141601562 c 0
 30.8427734375 734.1328125 30.8056640625 722.12109375 32.0419921875 704.854492188 c 0
 34.4619140625 671.0859375 41.765625 616.651367188 55.5458984375 537.924804688 c 1
 66.892578125 546.936523438 78.7431640625 554.30859375 90.6591796875 559.975585938 c 1
 89.3720703125 566.345703125 88.1162109375 572.893554688 86.798828125 579.057617188 c 0
 76.5830078125 626.912109375 65.60546875 668.272460938 55.822265625 698.213867188 c 0
 50.9306640625 713.184570312 46.3310546875 725.307617188 42.322265625 733.8828125 c 0
 40.3173828125 738.170898438 38.4541015625 741.57421875 36.84375 743.946289062 c 0
 35.353515625 746.142578125 34.0546875 747.278320312 33.5537109375 747.584960938 c 0
33.8701171875 753.8125 m 0
 34.5830078125 753.749023438 35.2705078125 753.559570312 35.8759765625 753.286132812 c 0
 38.2880859375 752.193359375 39.9833984375 750.155273438 41.87890625 747.361328125 c 0
 43.7744140625 744.568359375 45.7412109375 740.931640625 47.83203125 736.458984375 c 0
 52.0146484375 727.510742188 56.6650390625 715.220703125 61.6044921875 700.102539062 c 0
 71.484375 669.8671875 82.4951171875 628.349609375 92.7490234375 580.326171875 c 0
 93.97265625 574.590820312 95.1416015625 568.489257812 96.33984375 562.578125 c 1
 113.252929688 569.853515625 130.04296875 573.771484375 145.206054688 573.95703125 c 0
 159.616210938 574.135742188 172.616210938 571.009765625 182.733398438 564.197265625 c 0
 192.237304688 557.798828125 199.069335938 548.08984375 201.892578125 535.41796875 c 1
 245.956054688 534.798828125 286.309570312 517.895507812 313.900390625 491.16015625 c 0
 342.013671875 463.918945312 356.846679688 426.270507812 348.370117188 385.780273438 c 0
 341.639648438 353.630859375 321.212890625 329.310546875 294.139648438 313.208007812 c 0
 275.8515625 302.330078125 254.525390625 295.150390625 232.147460938 291.623046875 c 1
 307.254882812 275.171875 360.403320312 203.403320312 348.401367188 124.362304688 c 0
 337.40234375 51.931640625 273.2578125 0.1943359375 199.565429688 0.1142578125 c 0
 199.5078125 0.1142578125 199.451171875 0.111328125 199.39453125 0.111328125 c 2
 199.385742188 0.111328125 l 2
 199.3515625 0.111328125 199.296875 0.11328125 199.262695312 0.1142578125 c 0
 197.624023438 0.1513671875 196.291992188 1.5146484375 196.291992188 3.15625 c 0
 196.291992188 4.09765625 196.9453125 5.2626953125 197.750976562 5.7529296875 c 0
 212.82421875 18.4755859375 221.192382812 30.8095703125 224.603515625 42.1416015625 c 0
 228.038085938 53.5537109375 226.59375 64.0224609375 221.638671875 73.5390625 c 0
 211.729492188 92.5712890625 187.111328125 107.50390625 159.575195312 113.104492188 c 0
 144.905273438 116.088867188 129.536132812 116.3359375 115.186523438 113.495117188 c 1
 103.703125 65.1103515625 84.7099609375 25.4599609375 55.34765625 0.822265625 c 0
 54.8798828125 0.4296875 54.00390625 0.111328125 53.39453125 0.111328125 c 0xbf80
 51.984375 0.111328125 50.642578125 1.2373046875 50.3994140625 2.625 c 0
 41.6123046875 52.4560546875 54.4921875 85.00390625 77.2373046875 103.137695312 c 0
 86.8154296875 110.774414062 98.0625 115.709960938 109.981445312 118.583007812 c 1
 119.077148438 158.4140625 123.275390625 204.3203125 123.697265625 252.9375 c 0
 124.1171875 301.423828125 120.860351562 352.440429688 115.326171875 402.588867188 c 1
 102.671875 400.110351562 90.828125 395.155273438 81.029296875 387.342773438 c 0
 60.1572265625 370.702148438 47.853515625 341.044921875 56.3876953125 292.639648438 c 0
 56.4208984375 292.473632812 56.4501953125 292.200195312 56.4501953125 292.03125 c 0
 56.4501953125 290.352539062 55.0869140625 288.990234375 53.4072265625 288.990234375 c 0
 51.9599609375 288.990234375 50.6123046875 290.15234375 50.3994140625 291.583984375 c 0
 41.6123046875 341.415039062 54.4921875 373.965820312 77.2373046875 392.099609375 c 0
 88.06640625 400.733398438 100.977539062 406.08203125 114.649414062 408.6875 c 1
 108.875 459.270507812 100.829101562 508.82421875 91.9033203125 553.822265625 c 1
 79.4931640625 547.786132812 67.07421875 539.913085938 55.34765625 530.07421875 c 0
 54.8798828125 529.682617188 54.00390625 529.364257812 53.392578125 529.364257812 c 0
 51.9853515625 529.364257812 50.64453125 530.490234375 50.3994140625 531.875976562 c 0
 35.9814453125 613.637695312 28.4794921875 669.484375 25.9765625 704.419921875 c 0
 24.7255859375 721.887695312 24.697265625 734.080078125 25.771484375 741.961914062 c 0
 26.30859375 745.901367188 27.01953125 748.766601562 28.5068359375 750.98828125 c 0
 29.2509765625 752.1015625 30.3017578125 753.11328125 31.7109375 753.58203125 c 0
 32.4130859375 753.817382812 33.154296875 753.876953125 33.8701171875 753.8125 c 0
EndSplineSet
Validated: 524321
EndChar

StartChar: C
Encoding: 67 67 25
Width: 363
GlyphClass: 2
Flags: MW
HStem: 0.11145 6.08276 675.364 6.08142
VStem: 33.936 6.03711 325.937 6.08411
LayerCount: 2
Fore
SplineSet
183 681.4453125 m 0
 239.717773438 681.052734375 277.4375 645.787109375 300.360351562 595.09375 c 0
 323.28125 544.401367188 332.018554688 478.104492188 332.018554688 413.778320312 c 0
 332.01953125 413.758789062 332.01953125 413.7265625 332.01953125 413.708984375 c 0
 332.01953125 412.028320312 330.65625 410.665039062 328.977539062 410.665039062 c 0
 327.298828125 410.665039062 325.935546875 412.028320312 325.935546875 413.708984375 c 0
 325.935546875 413.7265625 325.935546875 413.758789062 325.9375 413.778320312 c 0
 325.9375 477.55078125 317.153320312 543.185546875 294.817382812 592.5859375 c 0
 272.477539062 641.987304688 237.198242188 674.986328125 182.95703125 675.36328125 c 0
 151.705078125 675.580078125 127.5 665.736328125 108.356445312 648.521484375 c 0
 89.2119140625 631.30859375 75.15625 606.572265625 64.9921875 576.993164062 c 0
 45.2373046875 519.491210938 40.3994140625 443.920898438 40.13671875 371.419921875 c 1
 52.625 381.532226562 62.703125 388.607421875 70.1259765625 391.921875 c 0
 74.3779296875 393.821289062 77.966796875 394.763671875 81.2333984375 394.537109375 c 0
 84.5 394.309570312 87.4208984375 392.561523438 89.03515625 389.936523438 c 0
 92.2646484375 384.684570312 91.720703125 377.224609375 89.9423828125 367.655273438 c 0
 88.1630859375 358.0859375 84.76171875 346.3828125 80.52734375 333.321289062 c 0
 72.0595703125 307.201171875 60.2509765625 275.67578125 51.41015625 246.069335938 c 0
 42.5673828125 216.461914062 36.85546875 188.649414062 39.9716796875 170.97265625 c 0
 39.9970703125 170.828125 40.0185546875 170.591796875 40.0205078125 170.4453125 c 0
 40.0205078125 83.078125 100.056640625 6.1943359375 182.978515625 6.1943359375 c 0
 265.899414062 6.1943359375 325.9375 83.078125 325.9375 170.4453125 c 0
 325.935546875 170.465820312 325.935546875 170.49609375 325.935546875 170.515625 c 0
 325.935546875 172.1953125 327.298828125 173.557617188 328.977539062 173.557617188 c 0
 330.65625 173.557617188 332.01953125 172.1953125 332.01953125 170.515625 c 0
 332.01953125 170.49609375 332.01953125 170.465820312 332.018554688 170.4453125 c 0
 332.018554688 80.28125 269.654296875 0.111328125 182.978515625 0.111328125 c 0
 96.353515625 0.111328125 34.0185546875 80.185546875 33.94140625 170.28125 c 0
 30.5615234375 190.177734375 36.7041015625 218.087890625 45.5791015625 247.810546875 c 0
 54.5068359375 277.705078125 66.33984375 309.291015625 74.73828125 335.19921875 c 0
 78.9375 348.154296875 82.2744140625 359.698242188 83.9599609375 368.767578125 c 0
 85.646484375 377.8359375 85.2919921875 384.41015625 83.8525390625 386.75 c 0
 83.1337890625 387.91796875 82.505859375 388.3515625 80.8125 388.46875 c 0
 79.1181640625 388.586914062 76.337890625 388.033203125 72.6083984375 386.366210938 c 0
 65.150390625 383.03515625 54.0400390625 375.459960938 38.931640625 362.783203125 c 0
 38.4638671875 362.388671875 37.587890625 362.071289062 36.9765625 362.071289062 c 0
 35.2978515625 362.071289062 33.9345703125 363.43359375 33.9345703125 365.112304688 c 0
 33.9345703125 439.756835938 38.4716796875 518.51953125 59.2392578125 578.966796875 c 0
 69.6220703125 609.190429688 84.0908203125 634.888671875 104.286132812 653.047851562 c 0
 124.481445312 671.205078125 150.435546875 681.671875 183 681.4453125 c 0
EndSplineSet
Validated: 524321
EndChar

StartChar: D
Encoding: 68 68 26
Width: 490
GlyphClass: 2
Flags: MW
HStem: 0.0375977 21G 0.0375977 21G 48.7776 6.17273 338.85 6.06531 422.594 6.08276
VStem: 25.9758 6.06531 123.696 6.08276 378.851 6.08411 397.519 5.73633
LayerCount: 2
Fore
SplineSet
101.409179688 87.30859375 m 1x3f80
 92.9326171875 82.6943359375 84.939453125 77.0634765625 78.0888671875 70.3955078125 c 0
 62.517578125 55.2421875 52.6875 35.083984375 55.599609375 9.1591796875 c 1
 75.73046875 27.7724609375 90.7001953125 54.67578125 101.409179688 87.30859375 c 1x3f80
300.16015625 646.389648438 m 0
 288.489257812 646.602539062 275.838867188 645.297851562 262.43359375 642.576171875 c 0
 213.083984375 632.5546875 153.846679688 603.165039062 96.4873046875 561.852539062 c 1
 115.30859375 468.88671875 130.669921875 355.465820312 129.779296875 252.885742188 c 0
 129.290039062 196.455078125 123.96484375 143.342773438 111.46484375 98.8486328125 c 1
 120.25390625 102.458984375 129.20703125 105.076171875 137.78125 106.690429688 c 0
 148.709960938 108.747070312 159.028320312 109.200195312 167.7265625 107.973632812 c 0
 176.422851562 106.74609375 183.6484375 103.893554688 187.967773438 98.6572265625 c 0
 192.286132812 93.4208984375 192.924804688 85.90625 189.206054688 77.7392578125 c 0
 186.138671875 70.99609375 180.114257812 63.4384765625 170.931640625 54.9501953125 c 1
 219.904296875 55.1220703125 270.953125 57.0068359375 310.083984375 68.689453125 c 0
 330.71484375 74.849609375 347.954101562 83.6884765625 359.944335938 96.1484375 c 0
 371.921875 108.596679688 378.837890625 124.62109375 378.852539062 146.052734375 c 0
 374.817382812 170.025390625 384.17578125 204.994140625 397.520507812 242.676757812 c 0
 410.948242188 280.592773438 428.595703125 321.052734375 441.590820312 354.275390625 c 0
 448.086914062 370.884765625 453.41796875 385.697265625 456.46484375 397.34375 c 0
 459.510742188 408.993164062 459.780273438 417.55078125 458.168945312 420.528320312 c 0
 457.36328125 422.017578125 456.616210938 422.547851562 454.34375 422.59375 c 0
 452.072265625 422.640625 448.357421875 421.701171875 443.413085938 419.30859375 c 0
 433.524414062 414.51953125 418.768554688 404.166015625 398.44921875 387.116210938 c 0
 372.203125 365.09375 353.684570312 351.537109375 340.852539062 344.559570312 c 0
 334.4375 341.0703125 329.469726562 339.163085938 325.243164062 338.849609375 c 0
 323.12890625 338.69140625 321.137695312 338.96484375 319.409179688 339.868164062 c 0
 317.680664062 340.770507812 316.359375 342.310546875 315.60546875 344.046875 c 0
 314.096679688 347.518554688 314.319335938 351.649414062 315.265625 356.6015625 c 0
 316.212890625 361.555664062 318.026367188 367.360351562 320.483398438 373.92578125 c 0
 325.39453125 387.057617188 332.893554688 403.1953125 341.3203125 420.685546875 c 0
 358.169921875 455.668945312 378.724609375 496.080078125 389.416015625 527.404296875 c 0
 394.76171875 543.064453125 397.534179688 556.508789062 396.478515625 565.265625 c 0
 395.950195312 569.645507812 394.56640625 572.719726562 392.366210938 574.75390625 c 0
 390.211914062 576.747070312 387.063476562 577.96875 382.202148438 578.01953125 c 0
 382.12109375 578.01171875 381.987304688 578.004882812 381.90625 578.004882812 c 0
 381.607421875 578.004882812 381.13671875 578.08984375 380.857421875 578.19140625 c 0
 380.813476562 578.20703125 380.743164062 578.231445312 380.700195312 578.25 c 0
 379.643554688 578.670898438 378.786132812 579.9375 378.786132812 581.075195312 c 0
 378.786132812 581.09375 378.786132812 581.124023438 378.788085938 581.142578125 c 0
 373.53125 610.123046875 359.774414062 628.14453125 339.842773438 637.84375 c 0
 328.553710938 643.337890625 315.166992188 646.1171875 300.16015625 646.389648438 c 0
33.5556640625 747.584960938 m 0
 33.076171875 746.859375 32.2734375 744.626953125 31.798828125 741.141601562 c 0
 30.8427734375 734.1328125 30.8056640625 722.12109375 32.0419921875 704.854492188 c 0
 34.4619140625 671.09765625 41.7626953125 616.6875 55.5322265625 538.0078125 c 1
 66.7900390625 547.31640625 78.224609375 556.090820312 89.74609375 564.498046875 c 1
 88.7578125 569.323242188 87.8046875 574.353515625 86.7998046875 579.057617188 c 0
 76.5830078125 626.912109375 65.6064453125 668.272460938 55.82421875 698.213867188 c 0
 50.9306640625 713.184570312 46.33203125 725.307617188 42.322265625 733.8828125 c 0
 40.318359375 738.170898438 38.4541015625 741.57421875 36.84375 743.946289062 c 0
 35.353515625 746.142578125 34.0546875 747.278320312 33.5556640625 747.584960938 c 0
33.8701171875 753.8125 m 0
 34.5830078125 753.749023438 35.2724609375 753.559570312 35.8759765625 753.286132812 c 0
 38.2880859375 752.193359375 39.9833984375 750.155273438 41.87890625 747.361328125 c 0
 43.775390625 744.568359375 45.7412109375 740.931640625 47.8330078125 736.458984375 c 0
 52.015625 727.510742188 56.6650390625 715.220703125 61.6044921875 700.102539062 c 0
 71.484375 669.8671875 82.4951171875 628.349609375 92.7490234375 580.326171875 c 0
 93.5703125 576.48046875 94.3486328125 572.349609375 95.1572265625 568.421875 c 1
 152.294921875 609.271484375 211.213867188 638.380859375 261.223632812 648.537109375 c 0
 292.682617188 654.923828125 320.715820312 653.919921875 342.505859375 643.31640625 c 0
 363.721679688 632.990234375 378.659179688 613.422851562 384.438476562 584.000976562 c 1
 389.375976562 583.6015625 393.477539062 582.013671875 396.497070312 579.22265625 c 0
 400.0234375 575.962890625 401.876953125 571.31640625 402.517578125 565.994140625 c 0
 403.80078125 555.349609375 400.64453125 541.46875 395.173828125 525.4375 c 0
 384.23046875 493.376953125 363.60546875 452.934570312 346.801757812 418.048828125 c 0
 338.3984375 400.604492188 330.952148438 384.552734375 326.1796875 371.796875 c 0
 323.794921875 365.416992188 322.081054688 359.854492188 321.241210938 355.458984375 c 0
 320.400390625 351.063476562 320.579101562 347.864257812 321.18359375 346.471679688 c 0
 321.485351562 345.776367188 321.763671875 345.5 322.225585938 345.2578125 c 0
 322.688476562 345.016601562 323.479492188 344.817382812 324.793945312 344.9140625 c 0
 327.428710938 345.110351562 331.909179688 346.622070312 337.944335938 349.904296875 c 0
 350.018554688 356.469726562 368.435546875 369.870117188 394.540039062 391.774414062 c 0
 415.037109375 408.974609375 429.9375 419.540039062 440.762695312 424.780273438 c 0
 446.174804688 427.401367188 450.578125 428.754882812 454.46484375 428.676757812 c 0
 458.353515625 428.598632812 461.807617188 426.588867188 463.518554688 423.424804688 c 0
 466.943359375 417.096679688 465.515625 407.90625 462.3515625 395.8046875 c 0
 459.186523438 383.700195312 453.790039062 368.7578125 447.256835938 352.057617188 c 0
 434.192382812 318.657226562 416.579101562 278.265625 403.256835938 240.646484375 c 0
 389.934570312 203.028320312 381.124023438 168.0078125 384.890625 146.640625 c 0
 384.916015625 146.49609375 384.936523438 146.263671875 384.936523438 146.1171875 c 2
 384.936523438 146.111328125 l 2
 384.936523438 123.318359375 377.333984375 105.446289062 364.327148438 91.927734375 c 0
 351.321289062 78.4091796875 333.086914062 69.2099609375 311.822265625 62.859375 c 0
 269.2890625 50.1611328125 214.361328125 48.7783203125 162.89453125 48.7783203125 c 0
 161.213867188 48.7783203125 159.850585938 50.140625 159.850585938 51.8193359375 c 0
 159.850585938 52.603515625 160.338867188 53.6474609375 160.940429688 54.1513671875 c 0
 173.411132812 64.615234375 180.576171875 73.455078125 183.670898438 80.2568359375 c 0
 186.766601562 87.05859375 186.09765625 91.3642578125 183.275390625 94.787109375 c 0
 180.453125 98.2060546875 174.701171875 100.84765625 166.875976562 101.952148438 c 0
 159.052734375 103.053710938 149.305664062 102.669921875 138.908203125 100.713867188 c 0
 129.256835938 98.896484375 119.056640625 95.7109375 109.2265625 91.2138671875 c 1
 97.55859375 53.1845703125 80.298828125 21.9853515625 55.82421875 1.2333984375 c 0
 55.3193359375 0.5732421875 54.2373046875 0.037109375 53.4052734375 0.037109375 c 0xbf80
 52.7373046875 0.037109375 51.80078125 0.41015625 51.3154296875 0.8701171875 c 0
 51.283203125 0.9013671875 51.23046875 0.9541015625 51.1982421875 0.9873046875 c 2
 51.1669921875 1.0185546875 l 2
 50.6982421875 1.5048828125 50.318359375 2.4501953125 50.318359375 3.1259765625 c 2
 50.318359375 3.134765625 l 1
 45.1513671875 33.3994140625 56.1796875 57.5625 73.845703125 74.7548828125 c 0
 82.6484375 83.322265625 93.060546875 90.224609375 103.984375 95.515625 c 1
 117.302734375 140.185546875 123.19140625 194.641601562 123.697265625 252.9375 c 0
 124.572265625 353.877929688 109.578125 465.788085938 91.07421875 557.931640625 c 1
 79.041015625 549.084960938 67.0712890625 539.911132812 55.34765625 530.07421875 c 0
 54.8818359375 529.682617188 54.0048828125 529.364257812 53.39453125 529.364257812 c 0
 51.9853515625 529.364257812 50.64453125 530.490234375 50.3994140625 531.875976562 c 0
 35.9833984375 613.637695312 28.48046875 669.484375 25.9765625 704.419921875 c 0
 24.7255859375 721.887695312 24.697265625 734.080078125 25.771484375 741.961914062 c 0
 26.3095703125 745.901367188 27.0205078125 748.766601562 28.5078125 750.98828125 c 0
 29.251953125 752.1015625 30.3037109375 753.11328125 31.7119140625 753.58203125 c 0
 32.4150390625 753.817382812 33.154296875 753.876953125 33.8701171875 753.8125 c 0
EndSplineSet
Validated: 524321
EndChar

StartChar: E
Encoding: 69 69 27
Width: 346
GlyphClass: 2
Flags: MW
HStem: 0.11145 21G 0.11145 21G 169.569 5.96326 322.508 6.08276 587.132 6.08411
VStem: 36.4943 6.06799 85.3511 6.08276 267.725 6.03845
LayerCount: 2
Fore
SplineSet
85.20703125 140.67578125 m 1x3f
 58.6806640625 115.166015625 43.8017578125 73.3671875 53.8525390625 9.3154296875 c 1
 76.0009765625 31.9619140625 84.908203125 76.93359375 85.3505859375 128.059570312 c 0
 85.3876953125 132.208984375 85.2734375 136.45703125 85.20703125 140.67578125 c 1x3f
42.4853515625 372.151367188 m 1
 42.4638671875 372.02734375 42.4501953125 372.075195312 42.431640625 371.94140625 c 0
 41.9833984375 368.65625 41.9482421875 362.694335938 42.5625 354.112304688 c 0
 43.7265625 337.875976562 47.3642578125 311.178710938 53.81640625 273.908203125 c 1
 58.7333984375 278.9296875 62.9462890625 285.123046875 66.6103515625 292.166992188 c 1
 61.6025390625 315.420898438 56.2568359375 335.626953125 51.490234375 350.212890625 c 0
 49.056640625 357.661132812 46.7685546875 363.678710938 44.8076171875 367.875 c 0
 43.9375 369.735351562 43.16796875 371.080078125 42.4853515625 372.151367188 c 1
42.4853515625 636.77734375 m 1
 42.4638671875 636.65234375 42.4501953125 636.700195312 42.431640625 636.56640625 c 0
 41.9833984375 633.279296875 41.9482421875 627.321289062 42.5625 618.73828125 c 0
 43.7333984375 602.40625 47.3818359375 575.581054688 53.908203125 537.951171875 c 1
 58.6201171875 541.758789062 63.35546875 545.475585938 68.1806640625 548.8984375 c 0
 67.7490234375 550.995117188 67.375 553.36328125 66.9375 555.413085938 c 0
 61.837890625 579.295898438 56.357421875 599.939453125 51.490234375 614.8359375 c 0
 49.056640625 622.284179688 46.7685546875 628.303710938 44.8076171875 632.499023438 c 0
 43.9375 634.359375 43.16796875 635.708007812 42.4853515625 636.77734375 c 1
42.0888671875 644.6171875 m 0
 42.6396484375 644.568359375 43.16015625 644.424804688 43.5888671875 644.231445312 c 0
 45.302734375 643.456054688 46.2021484375 642.239257812 47.220703125 640.737304688 c 0
 48.240234375 639.235351562 49.25 637.357421875 50.3173828125 635.07421875 c 0
 52.4521484375 630.5078125 54.7890625 624.32421875 57.2724609375 616.728515625 c 0
 62.2373046875 601.53515625 67.7509765625 580.73828125 72.88671875 556.68359375 c 0
 73.1650390625 555.379882812 73.40234375 553.860351562 73.6787109375 552.536132812 c 1
 112.545898438 578.7578125 154.06640625 592.78125 189.45703125 593.215820312 c 0
 210.83984375 593.478515625 230.030273438 588.833007812 244.881835938 578.833007812 c 0
 259.735351562 568.833007812 270.104492188 553.416015625 273.716796875 532.931640625 c 0
 273.743164062 532.787109375 273.764648438 532.55078125 273.764648438 532.404296875 c 0
 273.764648438 530.724609375 272.401367188 529.362304688 270.721679688 529.362304688 c 0
 269.3125 529.362304688 267.969726562 530.48828125 267.725585938 531.875976562 c 0
 264.365234375 550.934570312 255.04296875 564.658203125 241.485351562 573.78515625 c 0
 227.927734375 582.9140625 209.989257812 587.3828125 189.533203125 587.131835938 c 0
 155.034179688 586.70703125 113.577148438 572.638671875 74.916015625 546.053710938 c 1
 84.2421875 499.698242188 91.8759765625 443.67578125 91.4345703125 392.630859375 c 0
 91.09375 353.338867188 86.044921875 317.283203125 73.0341796875 291.278320312 c 0
 73.25390625 290.243164062 73.46875 289.177734375 73.6884765625 288.12890625 c 1
 112.541015625 314.331054688 154.079101562 328.154296875 189.45703125 328.590820312 c 0
 210.83984375 328.852539062 230.030273438 324.208007812 244.881835938 314.208007812 c 0
 259.735351562 304.208007812 270.104492188 288.791015625 273.716796875 268.306640625 c 0
 273.743164062 268.161132812 273.764648438 267.924804688 273.764648438 267.77734375 c 0
 273.764648438 266.098632812 272.401367188 264.736328125 270.721679688 264.736328125 c 0
 269.3125 264.736328125 267.969726562 265.860351562 267.725585938 267.25 c 0
 264.365234375 286.307617188 255.04296875 300.03515625 241.485351562 309.162109375 c 0
 227.927734375 318.291015625 209.989257812 322.759765625 189.533203125 322.5078125 c 0
 155.07421875 322.083984375 113.634765625 308.202148438 75.0107421875 281.671875 c 1
 82.78125 243 89.2734375 197.388671875 90.96484375 153.676757812 c 1
 124.44140625 178.874023438 170.543945312 184.067382812 212.509765625 175.533203125 c 0
 255.50390625 166.790039062 294.376953125 143.850585938 310.833984375 112.244140625 c 0
 319.0625 96.439453125 321.51953125 78.392578125 315.815429688 59.4453125 c 0
 310.112304688 40.49609375 296.383789062 20.716796875 272.677734375 0.822265625 c 0
 272.208984375 0.4296875 271.33203125 0.109375 270.721679688 0.109375 c 0
 269.041015625 0.109375 267.677734375 1.47265625 267.677734375 3.1533203125 c 0
 267.677734375 3.935546875 268.166015625 4.978515625 268.764648438 5.482421875 c 0
 291.836914062 24.8427734375 304.727539062 43.7119140625 309.991210938 61.197265625 c 0
 315.25390625 78.681640625 313.029296875 94.8525390625 305.438476562 109.432617188 c 0
 290.254882812 138.594726562 252.939453125 161.100585938 211.298828125 169.569335938 c 0
 169.655273438 178.0390625 124.005859375 172.521484375 92.2275390625 147.1875 c 0
 91.875 146.904296875 91.57421875 146.543945312 91.2236328125 146.255859375 c 0
 91.3837890625 140.123046875 91.484375 134.017578125 91.4345703125 128.005859375 c 0
 90.95703125 73.1455078125 81.583984375 24.240234375 53.6748046875 0.822265625 c 0
 53.2080078125 0.4296875 52.3330078125 0.111328125 51.7216796875 0.111328125 c 0xbf
 50.3134765625 0.111328125 48.970703125 1.2373046875 48.7265625 2.625 c 0
 36.0546875 74.4853515625 53.560546875 121.747070312 85.0927734375 149.067382812 c 1
 83.7255859375 192.723632812 77.240234375 238.580078125 69.470703125 277.756835938 c 1
 64.1337890625 273.893554688 58.8583984375 269.796875 53.6748046875 265.44921875 c 0
 53.6162109375 265.397460938 53.515625 265.321289062 53.451171875 265.27734375 c 0
 53.013671875 264.96484375 52.2216796875 264.7109375 51.68359375 264.7109375 c 0
 50.0185546875 264.7109375 48.6552734375 266.0625 48.642578125 267.728515625 c 0
 41.4873046875 308.366210938 37.7490234375 336.180664062 36.494140625 353.677734375 c 0
 35.865234375 362.462890625 35.8369140625 368.60546875 36.4052734375 372.762695312 c 0
 36.6875 374.83984375 37.0185546875 376.427734375 38.0146484375 377.916992188 c 0
 38.51171875 378.661132812 39.2900390625 379.44140625 40.3994140625 379.810546875 c 0
 41.5087890625 380.178710938 42.732421875 379.993164062 43.5888671875 379.60546875 c 0
 45.302734375 378.829101562 46.2021484375 377.61328125 47.220703125 376.111328125 c 0
 48.240234375 374.610351562 49.25 372.733398438 50.3173828125 370.451171875 c 0
 52.4521484375 365.884765625 54.7890625 359.697265625 57.2724609375 352.100585938 c 0
 61.5556640625 338.990234375 66.2236328125 321.14453125 70.7294921875 301.193359375 c 1
 80.62890625 325.293945312 85.0458984375 357.458007812 85.3505859375 392.682617188 c 0
 85.7802734375 442.181640625 78.46875 496.744140625 69.439453125 542.310546875 c 1
 64.1181640625 538.45703125 58.84375 534.412109375 53.6748046875 530.07421875 c 0
 53.2080078125 529.682617188 52.3330078125 529.364257812 51.7216796875 529.364257812 c 0
 50.3134765625 529.364257812 48.9716796875 530.490234375 48.7265625 531.875976562 c 0
 41.51171875 572.784179688 37.75390625 600.735351562 36.494140625 618.3046875 c 0
 35.865234375 627.087890625 35.8369140625 633.23046875 36.4052734375 637.387695312 c 0
 36.6875 639.467773438 37.0185546875 641.0546875 38.0146484375 642.54296875 c 0
 38.51171875 643.286132812 39.2900390625 644.065429688 40.3994140625 644.434570312 c 0
 40.953125 644.618164062 41.537109375 644.666992188 42.0888671875 644.6171875 c 0
EndSplineSet
Validated: 524321
EndChar

StartChar: F
Encoding: 70 70 28
Width: 302
GlyphClass: 2
Flags: MW
HStem: 0.0805664 21G 0.0805664 21G 322.508 6.08276 587.132 6.08411
VStem: 25.9757 6.06531 122.747 5.99146 269.397 6.03845
LayerCount: 2
Fore
SplineSet
33.5556640625 747.584960938 m 0x3e
 33.076171875 746.859375 32.2734375 744.626953125 31.798828125 741.141601562 c 0
 30.8427734375 734.1328125 30.8056640625 722.12109375 32.0419921875 704.854492188 c 0
 34.462890625 671.0859375 41.7666015625 616.651367188 55.5478515625 537.924804688 c 1
 66.828125 547.046875 78.453125 555.079101562 90.25390625 561.981445312 c 1
 89.0986328125 567.662109375 87.978515625 573.541015625 86.7998046875 579.057617188 c 0
 76.5830078125 626.912109375 65.6064453125 668.272460938 55.82421875 698.213867188 c 0
 50.9306640625 713.184570312 46.33203125 725.307617188 42.32421875 733.8828125 c 0
 40.318359375 738.170898438 38.4541015625 741.57421875 36.84375 743.946289062 c 0
 35.353515625 746.142578125 34.0546875 747.278320312 33.5556640625 747.584960938 c 0x3e
33.8701171875 753.8125 m 0
 34.5830078125 753.749023438 35.2724609375 753.559570312 35.8759765625 753.286132812 c 0
 38.2880859375 752.193359375 39.9833984375 750.155273438 41.87890625 747.361328125 c 0
 43.775390625 744.568359375 45.7421875 740.931640625 47.8330078125 736.458984375 c 0
 52.015625 727.510742188 56.6650390625 715.220703125 61.6044921875 700.102539062 c 0
 71.484375 669.8671875 82.4951171875 628.349609375 92.7490234375 580.326171875 c 0
 93.80078125 575.403320312 94.7998046875 570.142578125 95.8330078125 565.087890625 c 1
 128.485351562 583.151367188 161.901367188 592.857421875 191.12890625 593.215820312 c 0
 212.513671875 593.478515625 231.702148438 588.833007812 246.555664062 578.833007812 c 0
 261.407226562 568.833007812 271.778320312 553.416015625 275.389648438 532.931640625 c 0
 275.415039062 532.787109375 275.436523438 532.55078125 275.436523438 532.404296875 c 0
 275.436523438 530.724609375 274.07421875 529.362304688 272.393554688 529.362304688 c 0
 270.985351562 529.362304688 269.642578125 530.48828125 269.3984375 531.875976562 c 0
 266.038085938 550.934570312 256.716796875 564.658203125 243.158203125 573.78515625 c 0
 229.600585938 582.9140625 211.662109375 587.3828125 191.206054688 587.131835938 c 0
 162.752929688 586.78125 129.557617188 577.049804688 97.1015625 558.807617188 c 1
 111.873046875 485.19140625 124.400390625 399.08984375 128.440429688 315.811523438 c 1
 150.221679688 324.02734375 171.615234375 328.349609375 191.12890625 328.590820312 c 0
 212.513671875 328.852539062 231.702148438 324.208007812 246.555664062 314.208007812 c 0
 261.407226562 304.208007812 271.778320312 288.791015625 275.389648438 268.306640625 c 0
 275.415039062 268.161132812 275.436523438 267.924804688 275.436523438 267.77734375 c 0
 275.436523438 266.098632812 274.07421875 264.736328125 272.393554688 264.736328125 c 0
 270.985351562 264.736328125 269.642578125 265.860351562 269.3984375 267.25 c 0
 266.038085938 286.307617188 256.716796875 300.03515625 243.158203125 309.162109375 c 0
 229.600585938 318.291015625 211.662109375 322.759765625 191.206054688 322.5078125 c 0
 171.98828125 322.271484375 150.598632812 317.848632812 128.73828125 309.381835938 c 1
 129.564453125 290.319335938 129.940429688 271.423828125 129.779296875 252.885742188 c 0
 128.831054688 143.508789062 109.7890625 46.50390625 55.34765625 0.822265625 c 0
 54.875 0.412109375 53.9833984375 0.080078125 53.3583984375 0.080078125 c 0xbe
 51.6787109375 0.080078125 50.31640625 1.443359375 50.31640625 3.1220703125 c 0
 50.31640625 3.9208984375 50.8193359375 4.978515625 51.439453125 5.482421875 c 0
 103.1328125 48.859375 122.75390625 144.248046875 123.697265625 252.9375 c 0
 123.850585938 270.659179688 123.504882812 288.721679688 122.748046875 306.954101562 c 1
 99.9892578125 297.404296875 76.892578125 283.525390625 55.34765625 265.44921875 c 0
 54.875 265.040039062 53.9833984375 264.70703125 53.3583984375 264.70703125 c 0
 51.6787109375 264.70703125 50.31640625 266.069335938 50.31640625 267.749023438 c 0
 50.31640625 268.547851562 50.8193359375 269.60546875 51.439453125 270.110351562 c 0
 74.1015625 289.125976562 98.4345703125 303.651367188 122.461914062 313.47265625 c 1
 118.576171875 396.252929688 106.1953125 482.154296875 91.5234375 555.706054688 c 1
 79.2109375 548.3828125 67.0458984375 539.890625 55.34765625 530.07421875 c 0
 54.8818359375 529.682617188 54.0048828125 529.364257812 53.39453125 529.364257812 c 0
 51.9853515625 529.364257812 50.64453125 530.490234375 50.3994140625 531.875976562 c 0
 35.9833984375 613.637695312 28.48046875 669.484375 25.9765625 704.419921875 c 0
 24.7255859375 721.887695312 24.697265625 734.080078125 25.771484375 741.961914062 c 0
 26.3095703125 745.901367188 27.0205078125 748.766601562 28.5078125 750.98828125 c 0
 29.251953125 752.1015625 30.3037109375 753.11328125 31.7119140625 753.58203125 c 0
 32.4150390625 753.817382812 33.154296875 753.876953125 33.8701171875 753.8125 c 0
EndSplineSet
Validated: 524321
EndChar

StartChar: G
Encoding: 71 71 29
Width: 463
GlyphClass: 2
Flags: MW
HStem: 228.915 4.9884
VStem: 33.1379 6.03711 359.547 14.5006 367.962 6.08545 433.469 6.03711
LayerCount: 2
Fore
SplineSet
323.1015625 240.9453125 m 0xc8
 322.438476562 240.9453125 321.783203125 240.927734375 321.135742188 240.897460938 c 0
 317.346679688 240.71484375 313.801757812 240.045898438 310.6328125 238.8515625 c 0
 304.293945312 236.4609375 299.373046875 232.1640625 296.369140625 225.198242188 c 0
 293.786132812 219.204101562 292.827148438 210.965820312 294.043945312 200.461914062 c 1
 313.650390625 215.983398438 334.815429688 226.551757812 354.94140625 231.874023438 c 1
 344.360351562 237.610351562 333.02734375 240.958984375 323.1015625 240.9453125 c 0xc8
193.772460938 682.065429688 m 0
 252.111328125 682.801757812 295.170898438 647.594726562 323.477539062 594.84765625 c 0
 351.390625 542.833984375 365.349609375 473.665039062 367.323242188 403.5859375 c 0
 367.555664062 402.977539062 367.790039062 402.46484375 368.032226562 401.723632812 c 0
 368.927734375 398.982421875 369.893554688 395.333984375 370.793945312 391.116210938 c 0
 372.59375 382.680664062 374.131835938 372.02734375 374.047851562 362.284179688 c 0
 373.962890625 352.5390625 372.584960938 343.439453125 366.63671875 338.44921875 c 0
 366.163085938 338.0390625 365.271484375 337.706054688 364.64453125 337.706054688 c 0
 362.966796875 337.706054688 361.603515625 339.068359375 361.603515625 340.749023438 c 0
 361.603515625 341.547851562 362.106445312 342.604492188 362.7265625 343.109375 c 0
 365.927734375 345.794921875 367.884765625 353.280273438 367.961914062 362.3359375 c 0xd8
 368.022460938 369.28515625 367.065429688 376.740234375 365.884765625 383.61328125 c 1
 365.56640625 383.475585938 365.028320312 383.365234375 364.681640625 383.365234375 c 0
 363.274414062 383.365234375 361.931640625 384.490234375 361.6875 385.875976562 c 0
 360.43359375 392.974609375 359.776367188 397.837890625 359.546875 401.034179688 c 0
 359.432617188 402.631835938 359.400390625 403.767578125 359.546875 404.846679688 c 0xe8
 359.62109375 405.384765625 359.637695312 405.913085938 360.227539062 406.791992188 c 0
 360.384765625 407.028320312 360.830078125 407.248046875 361.14453125 407.500976562 c 0
 358.749023438 475.466796875 344.833007812 542.186523438 318.116210938 591.970703125 c 0
 288.63671875 646.904296875 244.364257812 681.125976562 182.463867188 675.374023438 c 0
 124.159179688 669.958007812 88.7509765625 631.749023438 67.3759765625 577.5625 c 0
 46.68359375 525.106445312 39.7353515625 457.895507812 39.310546875 392.850585938 c 1
 55.2900390625 405.90625 67.599609375 414.3359375 76.8525390625 418.470703125 c 0
 81.978515625 420.759765625 86.265625 421.866210938 90.0732421875 421.600585938 c 0
 93.8837890625 421.338867188 97.189453125 419.349609375 99.0595703125 416.309570312 c 0
 102.799804688 410.228515625 102.234375 401.233398438 100.077148438 389.625976562 c 0
 97.9208984375 378.017578125 93.779296875 363.7734375 88.623046875 347.866210938 c 0
 78.310546875 316.055664062 63.916015625 277.625 53.130859375 241.509765625 c 0
 42.3466796875 205.39453125 35.333984375 171.470703125 39.17578125 149.681640625 c 0
 39.201171875 149.538085938 39.22265625 149.301757812 39.224609375 149.154296875 c 0
 39.224609375 74.130859375 104.943359375 18.3359375 182.650390625 6.1572265625 c 0
 228.030273438 -0.9541015625 272.95703125 8.2802734375 306.359375 29.5107421875 c 0
 339.762695312 50.7451171875 361.641601562 83.736328125 361.641601562 124.8203125 c 2
 361.641601562 124.822265625 l 2
 361.641601562 125.604492188 362.127929688 126.6484375 362.7265625 127.151367188 c 0
 387.984375 148.34375 394.458984375 169.040039062 391.173828125 186.987304688 c 0
 388.178710938 203.336914062 376.671875 217.689453125 362.412109375 227.489257812 c 1
 340.186523438 222.71875 315.67578125 210.943359375 293.63671875 192.448242188 c 0
 293.16796875 192.057617188 292.29296875 191.73828125 291.681640625 191.73828125 c 0
 290.274414062 191.73828125 288.932617188 192.864257812 288.686523438 194.25 c 0
 286.23046875 208.1796875 287.159179688 219.201171875 290.783203125 227.606445312 c 0
 294.408203125 236.012695312 300.810546875 241.646484375 308.489257812 244.541992188 c 0
 323.849609375 250.333984375 343.969726562 245.938476562 361.325195312 235.494140625 c 0
 362.146484375 235.001953125 362.927734375 234.42578125 363.736328125 233.904296875 c 0
 370.250976562 235.147460938 376.641601562 235.9375 382.728515625 236.012695312 c 0
 397.0234375 236.188476562 409.919921875 233.0859375 419.958007812 226.328125 c 0
 429.99609375 219.5703125 437.032226562 209.08984375 439.461914062 195.305664062 c 0
 439.487304688 195.162109375 439.506835938 194.92578125 439.506835938 194.77734375 c 0
 439.506835938 193.099609375 438.14453125 191.736328125 436.465820312 191.736328125 c 0
 435.056640625 191.736328125 433.71484375 192.86328125 433.469726562 194.25 c 0
 431.291015625 206.606445312 425.3046875 215.393554688 416.560546875 221.280273438 c 0
 407.81640625 227.168945312 396.169921875 230.095703125 382.803710938 229.9296875 c 0
 378.908203125 229.8828125 374.840820312 229.489257812 370.69921875 228.916015625 c 1
 383.776367188 218.587890625 394.150390625 204.505859375 397.158203125 188.081054688 c 0
 400.807617188 168.149414062 393.151367188 145.271484375 367.627929688 123.40625 c 1
 367.114257812 80.814453125 344.041015625 46.255859375 309.622070312 24.3759765625 c 0
 274.814453125 2.25 228.486328125 -7.1826171875 181.709960938 0.1484375 c 0
 101.772460938 12.673828125 33.2685546875 70.48828125 33.150390625 148.953125 c 1
 29.0341796875 172.966796875 36.48046875 207.0078125 47.3056640625 243.251953125 c 0
 58.1767578125 279.653320312 72.59375 318.142578125 82.837890625 349.743164062 c 0
 87.9580078125 365.541992188 92.0341796875 379.62890625 94.0986328125 390.737304688 c 0
 96.162109375 401.844726562 95.828125 409.953125 93.87890625 413.123046875 c 0
 92.904296875 414.708007812 91.8876953125 415.37890625 89.65234375 415.533203125 c 0
 87.4169921875 415.689453125 83.9384765625 414.97265625 79.3359375 412.91796875 c 0
 70.1328125 408.8046875 56.5693359375 399.54296875 38.1357421875 384.072265625 c 0
 37.66796875 383.6796875 36.7919921875 383.362304688 36.1806640625 383.362304688 c 0
 34.501953125 383.362304688 33.138671875 384.724609375 33.138671875 386.403320312 c 0
 33.138671875 453.833984375 39.8486328125 524.359375 61.71484375 579.794921875 c 0
 83.583984375 635.229492188 121.17578125 675.791992188 181.900390625 681.432617188 c 0
 185.92578125 681.807617188 189.881835938 682.015625 193.772460938 682.065429688 c 0
EndSplineSet
Validated: 524321
EndChar

StartChar: H
Encoding: 72 72 30
Width: 518
GlyphClass: 2
Flags: MW
HStem: 0.0805664 21G 0.0805664 21G 341.764 6.08142
VStem: 25.9758 6.06531 122.606 5.96057 342.285 6.1499
LayerCount: 2
Fore
SplineSet
462.459960938 607.255859375 m 0x3c
 463.451171875 607.276367188 464.415039062 607.254882812 465.35546875 607.189453125 c 0
 472.884765625 606.666015625 478.852539062 603.038085938 482.47265625 597.151367188 c 0
 489.712890625 585.377929688 489.006835938 565.861328125 484.250976562 540.274414062 c 0
 479.49609375 514.686523438 470.301757812 483.009765625 458.8203125 447.590820312 c 0
 435.857421875 376.755859375 403.732421875 290.994140625 379.62109375 210.251953125 c 0
 355.510742188 129.509765625 339.575195312 53.6669921875 348.388671875 3.6826171875 c 0
 348.4140625 3.5361328125 348.435546875 3.2998046875 348.435546875 3.154296875 c 0
 348.435546875 1.4736328125 347.072265625 0.111328125 345.393554688 0.111328125 c 0
 343.984375 0.111328125 342.641601562 1.2373046875 342.397460938 2.625 c 0
 333.188476562 54.8505859375 349.594726562 130.962890625 373.79296875 211.993164062 c 0
 397.989257812 293.0234375 430.140625 378.844726562 453.033203125 449.465820312 c 0
 464.481445312 484.77734375 473.609375 516.299804688 478.272460938 541.384765625 c 0
 482.934570312 566.471679688 482.741210938 585.104492188 477.290039062 593.965820312 c 0
 474.56640625 598.395507812 470.887695312 600.70703125 464.93359375 601.12109375 c 0
 458.978515625 601.534179688 450.720703125 599.694335938 440.131835938 594.96484375 c 0
 418.95703125 585.50390625 388.598632812 564.686523438 347.349609375 530.07421875 c 0
 346.872070312 529.650390625 345.965820312 529.3046875 345.327148438 529.3046875 c 0
 343.6484375 529.3046875 342.286132812 530.66796875 342.286132812 532.346679688 c 0
 342.286132812 533.16015625 342.802734375 534.229492188 343.440429688 534.733398438 c 0
 384.892578125 569.516601562 415.430664062 590.592773438 437.650390625 600.51953125 c 0
 447.372070312 604.862304688 455.530273438 607.111328125 462.459960938 607.255859375 c 0x3c
33.8701171875 753.8125 m 0
 34.5830078125 753.749023438 35.2705078125 753.559570312 35.8759765625 753.286132812 c 0
 38.2880859375 752.193359375 39.9833984375 750.155273438 41.87890625 747.361328125 c 0
 43.7744140625 744.568359375 45.7412109375 740.931640625 47.83203125 736.458984375 c 0
 52.0146484375 727.510742188 56.6650390625 715.220703125 61.6044921875 700.102539062 c 0
 71.484375 669.8671875 82.4951171875 628.349609375 92.7490234375 580.326171875 c 0
 109.141601562 503.546875 123.584960938 410.174804688 128.241210938 319.92578125 c 1
 165.870117188 337.96875 203.578125 347.434570312 237.053710938 347.844726562 c 0
 265.41015625 348.1953125 290.7890625 342.030273438 310.375976562 328.841796875 c 0
 329.962890625 315.655273438 343.614257812 295.379882812 348.388671875 268.306640625 c 0
 348.4140625 268.161132812 348.435546875 267.924804688 348.435546875 267.77734375 c 0
 348.435546875 266.098632812 347.072265625 264.736328125 345.393554688 264.736328125 c 0
 343.984375 264.736328125 342.641601562 265.860351562 342.397460938 267.25 c 0
 337.875 292.897460938 325.270507812 311.481445312 306.977539062 323.797851562 c 0
 288.68359375 336.114257812 264.559570312 342.1015625 237.130859375 341.763671875 c 0
 204.071289062 341.356445312 166.297851562 331.716796875 128.56640625 313.279296875 c 1
 129.510742188 292.88671875 129.950195312 272.678710938 129.778320312 252.885742188 c 0
 128.831054688 143.508789062 109.788085938 46.50390625 55.34765625 0.822265625 c 0
 54.8740234375 0.412109375 53.982421875 0.080078125 53.357421875 0.080078125 c 0xbc
 51.6787109375 0.080078125 50.31640625 1.443359375 50.31640625 3.1220703125 c 0
 50.31640625 3.9208984375 50.818359375 4.978515625 51.4375 5.482421875 c 0
 103.1328125 48.859375 122.752929688 144.248046875 123.697265625 252.9375 c 0
 123.859375 271.732421875 123.461914062 290.920898438 122.606445312 310.29296875 c 1
 99.7255859375 298.545898438 76.9501953125 283.576171875 55.34765625 265.44921875 c 0
 54.8740234375 265.040039062 53.982421875 264.70703125 53.357421875 264.70703125 c 0
 51.6787109375 264.70703125 50.31640625 266.069335938 50.31640625 267.749023438 c 0
 50.31640625 268.547851562 50.818359375 269.60546875 51.4375 270.110351562 c 0
 74.1708984375 289.185546875 98.1708984375 304.852539062 122.296875 317.00390625 c 1
 117.8046875 407.616210938 103.291992188 501.810546875 86.798828125 579.057617188 c 0
 76.5830078125 626.912109375 65.60546875 668.272460938 55.822265625 698.213867188 c 0
 50.9306640625 713.184570312 46.3310546875 725.307617188 42.322265625 733.8828125 c 0
 40.3173828125 738.170898438 38.4541015625 741.57421875 36.84375 743.946289062 c 0
 35.353515625 746.142578125 34.0546875 747.278320312 33.5537109375 747.584960938 c 0
 33.0751953125 746.859375 32.2734375 744.626953125 31.798828125 741.141601562 c 0
 30.8427734375 734.1328125 30.8056640625 722.12109375 32.0419921875 704.854492188 c 0
 34.5166015625 670.322265625 41.9912109375 614.583007812 56.3876953125 532.931640625 c 0
 56.4208984375 532.765625 56.4501953125 532.4921875 56.4501953125 532.32421875 c 0
 56.4501953125 530.64453125 55.0869140625 529.282226562 53.4072265625 529.282226562 c 0
 51.9599609375 529.282226562 50.6123046875 530.443359375 50.3994140625 531.875976562 c 0
 35.9814453125 613.637695312 28.4794921875 669.484375 25.9765625 704.419921875 c 0
 24.7255859375 721.887695312 24.697265625 734.080078125 25.771484375 741.961914062 c 0
 26.30859375 745.901367188 27.01953125 748.766601562 28.5068359375 750.98828125 c 0
 29.2509765625 752.1015625 30.3017578125 753.11328125 31.7109375 753.58203125 c 0
 32.4130859375 753.817382812 33.154296875 753.876953125 33.8701171875 753.8125 c 0
EndSplineSet
Validated: 524321
EndChar

StartChar: I
Encoding: 73 73 31
Width: 209
GlyphClass: 2
Flags: MW
HStem: 0.0322266 21G<60.8315 62.395> 0.0322266 21G<60.8315 62.395> 649.095 6.25598
LayerCount: 2
Fore
SplineSet
144.80859375 655.350585938 m 0xa0
 146.45703125 655.380859375 148.046875 655.3125 149.583007812 655.142578125 c 0
 157.771484375 654.232421875 164.323242188 650.24609375 168.737304688 643.930664062 c 0
 177.564453125 631.30078125 178.783203125 610.30078125 175.934570312 583.008789062 c 0
 173.083984375 555.713867188 165.872070312 522.0390625 156.384765625 484.375976562 c 0
 137.407226562 409.049804688 109.294921875 317.791015625 88.515625 230.838867188 c 0
 67.734375 143.88671875 54.400390625 61.1640625 64.537109375 3.6826171875 c 0
 64.5703125 3.5146484375 64.59765625 3.244140625 64.59765625 3.0732421875 c 0
 64.59765625 1.3955078125 63.2353515625 0.0322265625 61.5546875 0.0322265625 c 0
 60.1083984375 0.0322265625 58.7607421875 1.193359375 58.546875 2.625 c 0
 48.0830078125 61.9716796875 61.7529296875 145.030273438 82.59765625 232.252929688 c 0
 103.442382812 319.4765625 131.572265625 410.788085938 150.486328125 485.862304688 c 0
 159.94140625 523.400390625 167.08984375 556.88671875 169.8828125 583.638671875 c 0
 172.67578125 610.392578125 170.828125 630.323242188 163.752929688 640.447265625 c 0
 160.21484375 645.5078125 155.604492188 648.353515625 148.91015625 649.095703125 c 0
 142.216796875 649.837890625 133.366210938 648.24609375 122.23046875 643.692382812 c 0
 99.95703125 634.584960938 68.74609375 613.772460938 26.9970703125 578.740234375 c 0
 26.529296875 578.34765625 25.6533203125 578.02734375 25.041015625 578.02734375 c 0
 23.36328125 578.02734375 22 579.390625 22 581.0703125 c 0
 22 581.852539062 22.4853515625 582.8984375 23.0859375 583.401367188 c 0
 65.06640625 618.627929688 96.505859375 639.749023438 119.92578125 649.323242188 c 0
 128.708984375 652.916015625 136.393554688 654.90234375 143.140625 655.2890625 c 0
 143.703125 655.322265625 144.258789062 655.341796875 144.80859375 655.350585938 c 0xa0
EndSplineSet
Validated: 524321
EndChar

StartChar: J
Encoding: 74 74 32
Width: 396
GlyphClass: 2
Flags: MW
HStem: 0.11145 6.08276
VStem: 25.9999 6.08411 244.999 6.03845
LayerCount: 2
Fore
SplineSet
344.23828125 667.463867188 m 0
 345.06640625 667.48046875 345.87890625 667.4609375 346.668945312 667.40625 c 0
 352.99609375 666.967773438 358.106445312 663.868164062 361.162109375 658.900390625 c 0
 367.270507812 648.965820312 366.612304688 632.845703125 362.694335938 611.7734375 c 0
 358.778320312 590.701171875 351.215820312 564.651367188 341.77734375 535.534179688 c 0
 322.899414062 477.298828125 296.499023438 406.823242188 276.69140625 340.493164062 c 0
 256.8828125 274.161132812 243.830078125 211.852539062 251.038085938 170.97265625 c 0
 251.063476562 170.829101562 251.083007812 170.594726562 251.083007812 170.448242188 c 2
 251.083007812 170.4453125 l 2
 251.083007812 128.948242188 242.7109375 87.146484375 224.876953125 55.1865234375 c 0
 207.043945312 23.2265625 179.345703125 1.0517578125 141.659179688 0.111328125 c 0
 103.200195312 -0.84765625 73.921875 20.62890625 54.7265625 52.72265625 c 0
 35.5322265625 84.81640625 26 127.567382812 26 170.4453125 c 0
 26 172.124023438 27.36328125 173.487304688 29.041015625 173.487304688 c 0
 30.720703125 173.487304688 32.083984375 172.124023438 32.083984375 170.4453125 c 0
 32.083984375 128.474609375 41.5234375 86.6484375 59.947265625 55.8447265625 c 0
 78.373046875 25.0400390625 105.364257812 5.2919921875 141.509765625 6.1943359375 c 0
 176.908203125 7.0771484375 202.440429688 27.462890625 219.564453125 58.1513671875 c 0
 236.67578125 88.8154296875 244.986328125 129.708007812 244.999023438 170.349609375 c 1
 237.552734375 213.45703125 251.03125 275.826171875 270.861328125 342.234375 c 0
 290.755859375 408.8515625 317.181640625 479.389648438 335.989257812 537.409179688 c 0
 345.395507812 566.419921875 352.890625 592.3125 356.712890625 612.884765625 c 0
 360.537109375 633.45703125 360.297851562 648.690429688 355.978515625 655.713867188 c 0
 353.819335938 659.225585938 351.000976562 661.008789062 346.247070312 661.338867188 c 0
 341.4921875 661.666992188 334.77734375 660.19140625 326.124023438 656.325195312 c 0
 308.811523438 648.591796875 283.87890625 631.504882812 249.998046875 603.075195312 c 0
 249.530273438 602.680664062 248.653320312 602.36328125 248.041992188 602.36328125 c 0
 246.36328125 602.36328125 245 603.725585938 245 605.404296875 c 0
 245 606.188476562 245.486328125 607.232421875 246.0859375 607.735351562 c 0
 280.170898438 636.3359375 305.287109375 653.6796875 323.642578125 661.879882812 c 0
 331.670898438 665.467773438 338.434570312 667.345703125 344.23828125 667.463867188 c 0
EndSplineSet
Validated: 524321
EndChar

StartChar: K
Encoding: 75 75 33
Width: 561
GlyphClass: 2
Flags: MW
HStem: 0.0805664 21G 0.0805664 21G 678.171 5.88672
VStem: 25.9758 6.06531 50.3981 6.05054 123.696 6.08276
LayerCount: 2
Fore
SplineSet
272.790039062 368.43359375 m 0x3c
 280.774414062 368.344726562 288.122070312 366.180664062 294.724609375 362.178710938 c 0
 314.845703125 349.98046875 328.130859375 321.872070312 338.53125 284.802734375 c 0
 359.336914062 210.663085938 367.9921875 99.525390625 384.890625 3.6826171875 c 0
 384.916015625 3.5361328125 384.9375 3.2998046875 384.9375 3.154296875 c 0
 384.9375 1.4736328125 383.57421875 0.111328125 381.895507812 0.111328125 c 0
 380.486328125 0.111328125 379.143554688 1.2373046875 378.899414062 2.625 c 0
 361.922851562 98.9072265625 353.16796875 210.125976562 332.674804688 283.158203125 c 0
 322.426757812 319.67578125 309.087890625 346.356445312 291.571289062 356.975585938 c 0
 282.8125 362.287109375 273.036132812 363.875976562 261.209960938 360.926757812 c 0
 249.383789062 357.9765625 235.555664062 350.317382812 219.599609375 336.928710938 c 0
 219.125 336.515625 218.23046875 336.180664062 217.6015625 336.180664062 c 0
 215.921875 336.180664062 214.559570312 337.541992188 214.559570312 339.22265625 c 0
 214.559570312 340.0234375 215.064453125 341.083984375 215.6875 341.586914062 c 0
 232.088867188 355.350585938 246.603515625 363.5546875 259.736328125 366.830078125 c 0
 263.018554688 367.649414062 266.219726562 368.147460938 269.329101562 368.342773438 c 0
 270.495117188 368.415039062 271.649414062 368.4453125 272.790039062 368.43359375 c 0x3c
33.8701171875 753.8125 m 0
 34.5830078125 753.749023438 35.2724609375 753.559570312 35.8759765625 753.286132812 c 0
 38.2880859375 752.193359375 39.9833984375 750.155273438 41.87890625 747.361328125 c 0
 43.775390625 744.568359375 45.7412109375 740.931640625 47.8330078125 736.458984375 c 0
 52.015625 727.510742188 56.6650390625 715.220703125 61.6044921875 700.102539062 c 0
 71.484375 669.8671875 82.4951171875 628.349609375 92.7490234375 580.326171875 c 0
 107.559570312 510.958984375 120.782226562 428.047851562 126.630859375 346.133789062 c 1
 134.438476562 356.529296875 142.66015625 366.922851562 151.234375 377.278320312 c 0
 218.124023438 458.0703125 306.4296875 536.518554688 380.985351562 593.956054688 c 0
 418.265625 622.674804688 452.096679688 646.131835938 478.1484375 662.010742188 c 0
 491.17578125 669.951171875 502.24609375 675.99609375 510.921875 679.881835938 c 0
 515.259765625 681.822265625 518.989257812 683.228515625 522.158203125 684.056640625 c 0
 523.743164062 684.471679688 525.178710938 684.778320312 526.532226562 684.885742188 c 0
 527.884765625 684.9921875 529.153320312 684.8984375 530.404296875 684.513671875 c 0
 531.653320312 684.127929688 532.926757812 683.295898438 533.688476562 682.063476562 c 0
 534.44921875 680.831054688 534.638671875 679.412109375 534.522460938 678.096679688 c 0
 534.29296875 675.466796875 533.067382812 672.84765625 531.056640625 669.567382812 c 0
 527.037109375 663.006835938 519.549804688 653.994140625 507.912109375 641.876953125 c 0
 484.631835938 617.643554688 444.780273438 581.204101562 383.848632812 530.07421875 c 0
 383.37109375 529.650390625 382.465820312 529.3046875 381.826171875 529.3046875 c 0
 380.147460938 529.3046875 378.784179688 530.66796875 378.784179688 532.346679688 c 0
 378.784179688 533.16015625 379.301757812 534.229492188 379.940429688 534.733398438 c 0
 440.78125 585.786132812 480.5390625 622.1640625 503.524414062 646.090820312 c 0
 515.016601562 658.056640625 522.326171875 666.9609375 525.870117188 672.744140625 c 0
 527.640625 675.63671875 528.389648438 677.798828125 528.462890625 678.626953125 c 0
 528.474609375 678.76171875 528.481445312 678.65234375 528.478515625 678.704101562 c 0
 527.978515625 678.81640625 526.247070312 678.837890625 523.698242188 678.169921875 c 0
 521.040039062 677.475585938 517.549804688 676.18359375 513.407226562 674.329101562 c 0
 505.12109375 670.619140625 494.205078125 664.673828125 481.31640625 656.818359375 c 0
 455.5390625 641.10546875 421.836914062 617.74609375 384.700195312 589.134765625 c 0
 310.42578125 531.916015625 222.3671875 453.655273438 155.922851562 373.400390625 c 0
 145.8203125 361.202148438 136.23828125 348.958007812 127.275390625 336.735351562 c 1
 129.1015625 308.397460938 130.016601562 280.24609375 129.779296875 252.885742188 c 0
 128.831054688 143.508789062 109.7890625 46.50390625 55.34765625 0.822265625 c 0
 54.875 0.412109375 53.9833984375 0.080078125 53.3583984375 0.080078125 c 0xbc
 51.6787109375 0.080078125 50.31640625 1.443359375 50.31640625 3.1220703125 c 0
 50.31640625 3.9208984375 50.8193359375 4.978515625 51.439453125 5.482421875 c 0
 103.1328125 48.859375 122.75390625 144.248046875 123.697265625 252.9375 c 0
 123.912109375 277.750976562 123.161132812 303.245117188 121.645507812 328.953125 c 1
 75.0029296875 263.442382812 47.1474609375 199.056640625 56.388671875 146.640625 c 0
 56.421875 146.473632812 56.4501953125 146.202148438 56.4501953125 146.03125 c 0
 56.4501953125 144.353515625 55.0869140625 142.990234375 53.408203125 142.990234375 c 0
 51.9609375 142.990234375 50.6123046875 144.151367188 50.3994140625 145.583984375 c 0
 40.3515625 202.561523438 71.2060546875 270.411132812 121.044921875 338.59375 c 1
 115.4921875 422.432617188 101.987304688 507.928710938 86.7998046875 579.057617188 c 0
 76.5830078125 626.912109375 65.6064453125 668.272460938 55.82421875 698.213867188 c 0
 50.9306640625 713.184570312 46.33203125 725.307617188 42.322265625 733.8828125 c 0
 40.318359375 738.170898438 38.4541015625 741.57421875 36.84375 743.946289062 c 0
 35.353515625 746.142578125 34.0546875 747.278320312 33.5556640625 747.584960938 c 0
 33.076171875 746.859375 32.2734375 744.626953125 31.798828125 741.141601562 c 0
 30.8427734375 734.1328125 30.8056640625 722.12109375 32.0419921875 704.854492188 c 0
 34.5166015625 670.322265625 41.9921875 614.583007812 56.388671875 532.931640625 c 0
 56.421875 532.765625 56.4501953125 532.4921875 56.4501953125 532.32421875 c 0
 56.4501953125 530.64453125 55.0869140625 529.282226562 53.408203125 529.282226562 c 0
 51.9609375 529.282226562 50.6123046875 530.443359375 50.3994140625 531.875976562 c 0
 35.9833984375 613.637695312 28.48046875 669.484375 25.9765625 704.419921875 c 0
 24.7255859375 721.887695312 24.697265625 734.080078125 25.771484375 741.961914062 c 0
 26.3095703125 745.901367188 27.0205078125 748.766601562 28.5078125 750.98828125 c 0
 29.251953125 752.1015625 30.3037109375 753.11328125 31.7119140625 753.58203125 c 0
 32.4150390625 753.817382812 33.154296875 753.876953125 33.8701171875 753.8125 c 0
EndSplineSet
Validated: 524321
EndChar

StartChar: L
Encoding: 76 76 34
Width: 356
GlyphClass: 2
Flags: MW
HStem: 0.11145 21G 0.11145 21G 77.1369 6.08545
VStem: 324.828 6.03845
LayerCount: 2
Fore
SplineSet
163.66015625 662.525390625 m 0xb0
 164.732421875 662.547851562 165.77734375 662.525390625 166.796875 662.455078125 c 0
 174.9453125 661.889648438 181.357421875 657.987304688 185.26953125 651.625 c 0
 193.09375 638.903320312 192.364257812 617.631835938 187.17578125 589.71484375 c 0
 181.987304688 561.796875 171.951171875 527.215820312 159.416015625 488.544921875 c 0
 134.345703125 411.206054688 99.263671875 317.556640625 72.931640625 229.376953125 c 0
 47.390625 143.848632812 30.3115234375 63.431640625 38.1005859375 8.76953125 c 1
 97.1376953125 56.91015625 164.083984375 82.541015625 219.485351562 83.2216796875 c 0
 247.841796875 83.572265625 273.220703125 77.4072265625 292.807617188 64.21875 c 0
 312.39453125 51.0322265625 326.045898438 30.755859375 330.8203125 3.6826171875 c 0
 330.845703125 3.5361328125 330.8671875 3.2998046875 330.8671875 3.154296875 c 0
 330.8671875 1.4736328125 329.50390625 0.111328125 327.825195312 0.111328125 c 0
 326.416015625 0.111328125 325.073242188 1.2373046875 324.829101562 2.625 c 0
 320.306640625 28.2744140625 307.701171875 46.8564453125 289.409179688 59.171875 c 0
 271.115234375 71.48828125 246.991210938 77.474609375 219.5625 77.1376953125 c 0
 164.705078125 76.462890625 96.8662109375 50.40234375 37.779296875 0.822265625 c 0
 37.3115234375 0.4296875 36.435546875 0.111328125 35.826171875 0.111328125 c 0
 34.416015625 0.111328125 33.07421875 1.2373046875 32.830078125 2.625 c 0
 22.79296875 59.55078125 40.6865234375 142.650390625 67.103515625 231.118164062 c 0
 93.5205078125 319.5859375 128.627929688 413.294921875 153.629882812 490.419921875 c 0
 166.130859375 528.982421875 176.100585938 563.408203125 181.196289062 590.826171875 c 0
 186.290039062 618.244140625 186.122070312 638.62890625 180.088867188 648.439453125 c 0
 177.072265625 653.34375 172.952148438 655.9296875 166.375976562 656.38671875 c 0
 159.799804688 656.842773438 150.74609375 654.81640625 139.161132812 649.640625 c 0
 115.990234375 639.2890625 82.830078125 616.543945312 37.779296875 578.740234375 c 0
 37.3056640625 578.331054688 36.4140625 577.998046875 35.7890625 577.998046875 c 0
 34.1103515625 577.998046875 32.748046875 579.360351562 32.748046875 581.041015625 c 0
 32.748046875 581.83984375 33.25 582.896484375 33.869140625 583.401367188 c 0
 79.1240234375 621.373046875 112.465820312 644.375 136.680664062 655.194335938 c 0
 147.274414062 659.926757812 156.147460938 662.369140625 163.66015625 662.525390625 c 0xb0
EndSplineSet
Validated: 524321
EndChar

StartChar: M
Encoding: 77 77 35
Width: 662
GlyphClass: 2
Flags: MW
HStem: -0.47937 21G -0.47937 21G
VStem: 25.9753 6.05457 123.525 6.07202 487.595 6.04114
LayerCount: 2
Fore
SplineSet
33.5400390625 745.728515625 m 0x38
 33.0615234375 745.002929688 32.26171875 742.775390625 31.787109375 739.294921875 c 0
 30.8330078125 732.298828125 30.7939453125 720.306640625 32.0302734375 703.0703125 c 0
 34.4560546875 669.216796875 41.736328125 614.796875 55.607421875 535.659179688 c 1
 67.9677734375 545.821289062 79.4931640625 554.026367188 90.2587890625 560.344726562 c 1
 89.0830078125 566.140625 87.8935546875 571.869140625 86.6923828125 577.493164062 c 0
 76.4931640625 625.263671875 65.5361328125 666.552734375 55.7705078125 696.44140625 c 0
 50.88671875 711.38671875 46.2939453125 723.487304688 42.29296875 732.048828125 c 0
 40.2919921875 736.329101562 38.4306640625 739.727539062 36.82421875 742.09375 c 0
 35.3349609375 744.287109375 34.0380859375 745.420898438 33.5400390625 745.728515625 c 0x38
33.8544921875 751.944335938 m 0
 34.568359375 751.879882812 35.25390625 751.69140625 35.857421875 751.41796875 c 0
 38.265625 750.329101562 39.9580078125 748.291992188 41.849609375 745.50390625 c 0
 43.7421875 742.715820312 45.7060546875 739.0859375 47.79296875 734.62109375 c 0
 51.96875 725.688476562 56.609375 713.419921875 61.5419921875 698.328125 c 0
 71.404296875 668.143554688 82.3955078125 626.69921875 92.630859375 578.758789062 c 0
 93.7021484375 573.744140625 94.759765625 568.6171875 95.8125 563.46484375 c 1
 105.265625 568.568359375 114.12890625 572.19140625 122.454101562 574.375 c 0
 142.399414062 579.609375 159.450195312 576.556640625 173.354492188 566.629882812 c 0
 201.161132812 546.776367188 216.637695312 501.139648438 227.252929688 441.435546875 c 0
 248.270507812 323.233398438 249.172851562 148.76953125 273.481445312 7.48046875 c 1
 291.108398438 23.7607421875 306.510742188 52.3505859375 319.6015625 89.2998046875 c 0
 333.36328125 128.147460938 344.696289062 176.005859375 354.24609375 227.872070312 c 0
 373.345703125 331.604492188 385.333007812 451.375976562 395.838867188 547.829101562 c 0
 401.091796875 596.055664062 405.97265625 638.4453125 411.212890625 670.181640625 c 0
 413.833007812 686.048828125 416.534179688 699.24609375 419.461914062 709.262695312 c 0
 422.38671875 719.276367188 425.172851562 726.145507812 429.70703125 729.696289062 c 0
 431.407226562 731.02734375 433.643554688 731.709960938 435.797851562 731.493164062 c 0
 436.514648438 731.422851562 437.223632812 731.250976562 437.900390625 730.969726562 c 0
 440.603515625 729.846679688 442.743164062 727.5703125 444.876953125 724.373046875 c 0
 449.141601562 717.974609375 453.385742188 707.427734375 458.123046875 691.75390625 c 0
 467.415039062 661.002929688 478.331054688 610.490234375 491.59765625 535.682617188 c 1
 531.427734375 568.885742188 561.049804688 589.252929688 582.681640625 598.91796875 c 0
 593.772460938 603.872070312 602.822265625 606.096679688 610.338867188 605.57421875 c 0
 617.853515625 605.053710938 623.8125 601.432617188 627.427734375 595.555664062 c 0
 634.655273438 583.801757812 633.948242188 564.319335938 629.202148438 538.775390625 c 0
 624.454101562 513.233398438 615.276367188 481.611328125 603.81640625 446.25390625 c 0
 580.89453125 375.541992188 548.821289062 289.9296875 524.752929688 209.328125 c 0
 500.68359375 128.725585938 484.776367188 53.013671875 493.57421875 3.1162109375 c 0
 493.607421875 2.9501953125 493.63671875 2.6787109375 493.63671875 2.509765625 c 0
 493.63671875 0.8330078125 492.274414062 -0.52734375 490.598632812 -0.52734375 c 0
 489.154296875 -0.52734375 487.80859375 0.6328125 487.595703125 2.0615234375 c 0
 478.403320312 54.1953125 494.77734375 130.17578125 518.93359375 211.064453125 c 0
 543.087890625 291.953125 575.18359375 377.626953125 598.037109375 448.126953125 c 0
 609.463867188 483.375976562 618.578125 514.841796875 623.231445312 539.88671875 c 0
 627.884765625 564.9296875 627.693359375 583.52734375 622.252929688 592.374023438 c 0
 619.534179688 596.796875 615.862304688 599.104492188 609.916992188 599.517578125 c 0
 603.971679688 599.9296875 595.727539062 598.09375 585.159179688 593.37109375 c 0
 564.01953125 583.927734375 533.712890625 563.147460938 492.537109375 528.594726562 c 0
 492.069335938 528.205078125 491.198242188 527.888671875 490.588867188 527.888671875 c 0
 490.48046875 527.888671875 490.306640625 527.899414062 490.198242188 527.9140625 c 0
 489.98046875 527.853515625 489.618164062 527.805664062 489.392578125 527.805664062 c 0
 488.603515625 527.805664062 487.555664062 528.296875 487.052734375 528.903320312 c 0
 487.010742188 528.954101562 486.946289062 529.03515625 486.911132812 529.086914062 c 0
 486.875976562 529.1328125 486.823242188 529.211914062 486.793945312 529.258789062 c 0
 486.546875 529.641601562 486.33203125 530.319335938 486.311523438 530.772460938 c 0
 472.744140625 607.68359375 461.614257812 659.211914062 452.310546875 689.99609375 c 0
 447.650390625 705.416015625 443.376953125 715.666992188 439.821289062 721.00390625 c 0
 438.04296875 723.669921875 436.447265625 724.99609375 435.569335938 725.361328125 c 0
 434.690429688 725.724609375 434.481445312 725.72265625 433.44921875 724.915039062 c 0
 431.384765625 723.296875 428.094726562 717.157226562 425.2890625 707.556640625 c 0
 422.485351562 697.95703125 419.801757812 684.930664062 417.203125 669.193359375 c 0
 412.0078125 637.71875 407.126953125 595.375976562 401.876953125 547.172851562 c 0
 391.375976562 450.762695312 379.385742188 330.876953125 360.217773438 226.771484375 c 0
 350.6328125 174.717773438 339.260742188 126.611328125 325.325195312 87.2734375 c 0
 311.389648438 47.93359375 294.991210938 17.306640625 274.677734375 0.259765625 c 0
 274.208984375 -0.12890625 273.337890625 -0.4443359375 272.731445312 -0.4443359375 c 0
 272.516601562 -0.4443359375 272.172851562 -0.3994140625 271.963867188 -0.345703125 c 0
 271.7578125 -0.3994140625 271.41796875 -0.4423828125 271.204101562 -0.4423828125 c 0
 269.80078125 -0.4423828125 268.4609375 0.6787109375 268.213867188 2.0615234375 c 0
 243.0234375 144.926757812 242.325195312 321.965820312 221.270507812 440.374023438 c 0
 210.744140625 499.577148438 194.844726562 543.823242188 169.825195312 561.6875 c 0
 157.315429688 570.619140625 142.59375 573.383789062 123.995117188 568.501953125 c 0
 115.768554688 566.342773438 106.802734375 562.6328125 97.0693359375 557.249023438 c 1
 115.553710938 465.063476562 130.475585938 353.075195312 129.596679688 251.88671875 c 0
 128.650390625 142.69921875 109.642578125 45.8642578125 55.2958984375 0.259765625 c 0
 54.8232421875 -0.1484375 53.93359375 -0.4794921875 53.30859375 -0.4794921875 c 0xb8
 51.6328125 -0.4794921875 50.271484375 0.880859375 50.271484375 2.556640625 c 0
 50.271484375 3.35546875 50.7734375 4.4111328125 51.392578125 4.9130859375 c 0
 102.997070312 48.21484375 122.584960938 143.439453125 123.525390625 251.938476562 c 0
 124.391601562 351.759765625 109.744140625 462.541015625 91.5126953125 554.032226562 c 1
 80.763671875 547.579101562 69.1337890625 539.182617188 56.548828125 528.625 c 0
 56.484375 528.571289062 56.3779296875 528.490234375 56.310546875 528.44140625 c 0
 56.2431640625 528.393554688 56.12890625 528.3203125 56.0546875 528.278320312 c 0
 55.986328125 528.23828125 55.87109375 528.181640625 55.7978515625 528.149414062 c 0
 55.794921875 528.1484375 55.787109375 528.143554688 55.7841796875 528.141601562 c 2
 55.7822265625 528.141601562 l 2
 55.7060546875 528.108398438 55.580078125 528.060546875 55.5 528.034179688 c 0
 55.4208984375 528.008789062 55.2900390625 527.971679688 55.20703125 527.955078125 c 0
 55.0439453125 527.91796875 54.7744140625 527.88671875 54.60546875 527.883789062 c 0
 54.5927734375 527.883789062 54.572265625 527.8828125 54.560546875 527.8828125 c 2
 54.03125 527.8828125 l 2
 53.8486328125 527.840820312 53.5478515625 527.807617188 53.3603515625 527.807617188 c 0
 52.494140625 527.807617188 51.3837890625 528.380859375 50.8837890625 529.086914062 c 0
 50.8505859375 529.1328125 50.7978515625 529.209960938 50.767578125 529.258789062 c 0
 50.515625 529.647460938 50.298828125 530.33984375 50.2841796875 530.802734375 c 0
 35.94140625 612.190429688 28.4697265625 667.822265625 25.9755859375 702.63671875 c 0
 24.7255859375 720.076171875 24.697265625 732.247070312 25.7705078125 740.114257812 c 0
 26.3076171875 744.046875 27.017578125 746.90625 28.5009765625 749.125976562 c 0
 29.2431640625 750.235351562 30.2939453125 751.245117188 31.7001953125 751.71484375 c 0
 32.4013671875 751.94921875 33.1416015625 752.008789062 33.8544921875 751.944335938 c 0
EndSplineSet
Validated: 524321
EndChar

StartChar: N
Encoding: 78 78 36
Width: 453
GlyphClass: 2
Flags: MW
HStem: 0.0805664 21G 0.0805664 21G
VStem: 25.9758 6.06531 123.696 6.08142 317.974 6.06799 415.695 6.08545
LayerCount: 2
Fore
SplineSet
33.5537109375 747.584960938 m 0x3c
 33.0751953125 746.859375 32.2734375 744.626953125 31.798828125 741.141601562 c 0
 30.8427734375 734.1328125 30.8056640625 722.12109375 32.0419921875 704.854492188 c 0
 34.4775390625 670.872070312 41.8310546875 616.065429688 55.7822265625 536.5234375 c 1
 67.9130859375 546.504882812 79.4892578125 554.553710938 90.525390625 560.638671875 c 1
 89.28125 566.780273438 88.068359375 573.107421875 86.798828125 579.057617188 c 0
 76.5830078125 626.912109375 65.60546875 668.272460938 55.822265625 698.213867188 c 0
 50.9306640625 713.184570312 46.3310546875 725.307617188 42.322265625 733.8828125 c 0
 40.3173828125 738.170898438 38.4541015625 741.57421875 36.84375 743.946289062 c 0
 35.353515625 746.142578125 34.0546875 747.278320312 33.5537109375 747.584960938 c 0x3c
325.870117188 753.815429688 m 0
 326.584960938 753.750976562 327.2734375 753.559570312 327.875976562 753.286132812 c 0
 330.290039062 752.193359375 331.982421875 750.155273438 333.877929688 747.361328125 c 0
 335.772460938 744.568359375 337.741210938 740.931640625 339.833007812 736.458984375 c 0
 344.014648438 727.510742188 348.665039062 715.220703125 353.604492188 700.102539062 c 0
 363.485351562 669.8671875 374.49609375 628.349609375 384.75 580.326171875 c 0
 405.256835938 484.279296875 422.728515625 362.262695312 421.78125 252.885742188 c 0
 420.831054688 143.508789062 401.791015625 46.50390625 347.349609375 0.822265625 c 0
 346.881835938 0.4306640625 346.0078125 0.1142578125 345.397460938 0.1142578125 c 0
 345.109375 0.1142578125 344.653320312 0.193359375 344.37890625 0.2900390625 c 0
 344.107421875 0.1943359375 343.654296875 0.1171875 343.365234375 0.1171875 c 0
 341.958007812 0.1171875 340.616210938 1.240234375 340.369140625 2.625 c 0
 312.640625 159.895507812 290.247070312 333.868164062 250.221679688 447.138671875 c 0
 230.2109375 503.772460938 205.702148438 544.965820312 174.963867188 561.545898438 c 0
 159.596679688 569.8359375 142.678710938 572.19921875 123.267578125 567.451171875 c 0
 115.126953125 565.459960938 106.447265625 561.876953125 97.4208984375 557.234375 c 1
 115.813476562 465.142578125 130.653320312 353.765625 129.778320312 252.885742188 c 0
 128.831054688 143.508789062 109.788085938 46.50390625 55.34765625 0.822265625 c 0
 54.8740234375 0.412109375 53.982421875 0.080078125 53.357421875 0.080078125 c 0xbc
 51.6787109375 0.080078125 50.31640625 1.443359375 50.31640625 3.1220703125 c 0
 50.31640625 3.9208984375 50.818359375 4.978515625 51.4375 5.482421875 c 0
 103.1328125 48.859375 122.752929688 144.248046875 123.697265625 252.9375 c 0
 124.559570312 352.586914062 109.959960938 462.94921875 91.7841796875 554.416015625 c 1
 80.9501953125 548.275390625 69.4970703125 540.24609375 57.375 530.07421875 c 0
 56.9072265625 529.684570312 56.033203125 529.365234375 55.4228515625 529.365234375 c 0
 55.134765625 529.365234375 54.6796875 529.443359375 54.4091796875 529.540039062 c 0
 54.1357421875 529.4453125 53.681640625 529.365234375 53.392578125 529.365234375 c 0
 51.9853515625 529.365234375 50.64453125 530.491210938 50.3994140625 531.875976562 c 0
 35.9814453125 613.637695312 28.4794921875 669.484375 25.9765625 704.419921875 c 0
 24.7255859375 721.887695312 24.697265625 734.080078125 25.771484375 741.961914062 c 0
 26.30859375 745.901367188 27.01953125 748.766601562 28.5068359375 750.98828125 c 0
 29.2509765625 752.1015625 30.3017578125 753.11328125 31.7109375 753.58203125 c 0
 32.4130859375 753.817382812 33.154296875 753.876953125 33.8701171875 753.8125 c 0
 34.5830078125 753.749023438 35.2705078125 753.559570312 35.8759765625 753.286132812 c 0
 38.2880859375 752.193359375 39.9833984375 750.155273438 41.87890625 747.361328125 c 0
 43.7744140625 744.568359375 45.7412109375 740.931640625 47.83203125 736.458984375 c 0
 52.0146484375 727.510742188 56.6650390625 715.220703125 61.6044921875 700.102539062 c 0
 71.484375 669.8671875 82.4951171875 628.349609375 92.7490234375 580.326171875 c 0
 93.9169921875 574.85546875 95.029296875 569.024414062 96.17578125 563.391601562 c 1
 105.018554688 567.814453125 113.62109375 571.354492188 121.8203125 573.359375 c 0
 142.498046875 578.415039062 161.24609375 575.857421875 177.8515625 566.899414062 c 0
 211.065429688 548.984375 235.73828125 506.384765625 255.95703125 449.165039062 c 0
 296.063476562 335.663085938 318.323242188 163.65234375 345.703125 7.6044921875 c 1
 395.657226562 51.869140625 414.767578125 145.899414062 415.694335938 252.9375 c 0
 416.637695312 361.626953125 399.235351562 483.350585938 378.801757812 579.057617188 c 0
 368.583984375 626.912109375 357.608398438 668.272460938 347.823242188 698.213867188 c 0
 342.931640625 713.184570312 338.329101562 725.307617188 334.321289062 733.8828125 c 0
 332.317382812 738.170898438 330.454101562 741.57421875 328.84375 743.946289062 c 0
 327.354492188 746.142578125 326.055664062 747.278320312 325.555664062 747.584960938 c 0
 325.077148438 746.859375 324.275390625 744.626953125 323.799804688 741.141601562 c 0
 322.84375 734.1328125 322.805664062 722.12109375 324.041992188 704.854492188 c 0
 326.517578125 670.322265625 333.993164062 614.583007812 348.388671875 532.931640625 c 0
 348.4140625 532.787109375 348.435546875 532.55078125 348.435546875 532.404296875 c 0
 348.435546875 530.724609375 347.072265625 529.362304688 345.393554688 529.362304688 c 0
 343.984375 529.362304688 342.641601562 530.48828125 342.397460938 531.875976562 c 0
 327.981445312 613.637695312 320.479492188 669.484375 317.974609375 704.419921875 c 0
 316.723632812 721.887695312 316.698242188 734.080078125 317.772460938 741.961914062 c 0
 318.310546875 745.901367188 319.022460938 748.766601562 320.5078125 750.98828125 c 0
 321.250976562 752.1015625 322.303710938 753.11328125 323.7109375 753.58203125 c 0
 324.416015625 753.817382812 325.15625 753.879882812 325.870117188 753.815429688 c 0
EndSplineSet
Validated: 524321
EndChar

StartChar: O
Encoding: 79 79 37
Width: 386
GlyphClass: 2
Flags: MW
HStem: 0.11145 6.08276 675.364 6.08142
VStem: 33.936 6.03711 316.976 8.11169 325.939 6.02637 352.915 6.08276
LayerCount: 2
Fore
SplineSet
322.961914062 438.77734375 m 1
 322.8203125 436.28125 322.69140625 433.58203125 323.04296875 428.678710938 c 0
 323.370117188 424.122070312 324.243164062 417.278320312 325.086914062 410.5703125 c 1
 324.821289062 419.0703125 324.551757812 427.5078125 324.090820312 435.956054688 c 0
 323.802734375 436.62890625 323.434570312 437.829101562 323.1640625 438.40625 c 0
 323.087890625 438.5703125 323.038085938 438.62109375 322.961914062 438.77734375 c 1
182.978515625 675.36328125 m 1
 151.73828125 675.36328125 127.53125 665.3828125 108.384765625 648.090820312 c 0
 89.2373046875 630.798828125 75.1806640625 606.043945312 65.013671875 576.491210938 c 0
 45.2548828125 519.047851562 40.400390625 443.701171875 40.13671875 371.419921875 c 1
 52.625 381.532226562 62.703125 388.607421875 70.1259765625 391.921875 c 0
 74.3779296875 393.821289062 77.966796875 394.763671875 81.2333984375 394.537109375 c 0
 84.5 394.309570312 87.4208984375 392.561523438 89.03515625 389.936523438 c 0
 92.2646484375 384.684570312 91.720703125 377.224609375 89.9423828125 367.655273438 c 0
 88.1630859375 358.0859375 84.76171875 346.3828125 80.52734375 333.321289062 c 0
 72.0595703125 307.201171875 60.2509765625 275.67578125 51.41015625 246.069335938 c 0
 42.5673828125 216.461914062 36.85546875 188.649414062 39.9716796875 170.97265625 c 0
 39.9970703125 170.828125 40.0185546875 170.591796875 40.0205078125 170.4453125 c 0
 40.0205078125 83.078125 100.056640625 6.1943359375 182.978515625 6.1943359375 c 0
 265.899414062 6.1943359375 325.9375 83.078125 325.9375 170.4453125 c 0
 325.9375 171.228515625 326.423828125 172.272460938 327.024414062 172.776367188 c 0
 345.168945312 188.000976562 352.568359375 222.576171875 352.913085938 262.3359375 c 0
 353.2578125 302.095703125 346.876953125 346.775390625 339.384765625 381.872070312 c 0
 336.659179688 394.633789062 333.8359375 405.431640625 331.099609375 414.958007812 c 1
 331.671875 398.365234375 332.015625 381.724609375 332.015625 365.293945312 c 0
 332.020507812 365.233398438 332.0234375 365.133789062 332.0234375 365.072265625 c 0
 332.0234375 364.201171875 331.446289062 363.0859375 330.732421875 362.583007812 c 0
 330.53125 362.442382812 330.181640625 362.265625 329.947265625 362.189453125 c 0
 329.94140625 362.184570312 329.926757812 362.1796875 329.919921875 362.174804688 c 0
 329.915039062 362.174804688 329.908203125 362.173828125 329.904296875 362.173828125 c 0
 329.848632812 362.155273438 329.75390625 362.129882812 329.6953125 362.1171875 c 0
 329.668945312 362.109375 329.627929688 362.098632812 329.602539062 362.092773438 c 0
 329.55859375 362.084960938 329.486328125 362.072265625 329.442382812 362.06640625 c 0
 329.400390625 362.05859375 329.333007812 362.049804688 329.290039062 362.044921875 c 0
 329.248046875 362.041992188 329.181640625 362.037109375 329.139648438 362.034179688 c 0
 329.096679688 362.033203125 329.02734375 362.03125 328.984375 362.03125 c 2
 328.981445312 362.03125 l 2
 328.948242188 362.03125 328.893554688 362.032226562 328.860351562 362.033203125 c 0
 328.809570312 362.033203125 328.7265625 362.0390625 328.677734375 362.04296875 c 0
 328.650390625 362.044921875 328.607421875 362.052734375 328.58203125 362.056640625 c 0
 328.517578125 362.065429688 328.4140625 362.08203125 328.349609375 362.095703125 c 2
 328.34765625 362.095703125 l 1
 328.346679688 362.095703125 l 2
 328.266601562 362.112304688 328.13671875 362.147460938 328.056640625 362.173828125 c 0
 327.9765625 362.200195312 327.84765625 362.247070312 327.771484375 362.280273438 c 0
 327.692382812 362.313476562 327.572265625 362.375 327.498046875 362.415039062 c 0
 326.75390625 362.830078125 326.06640625 363.857421875 325.961914062 364.704101562 c 0
 320.669921875 394.734375 317.903320312 415.288085938 316.974609375 428.244140625 c 0
 316.509765625 434.734375 316.479492188 439.276367188 316.9140625 442.450195312 c 0
 317.129882812 444.038085938 317.361328125 445.28515625 318.2265625 446.580078125 c 0
 318.66015625 447.227539062 319.365234375 447.944335938 320.395507812 448.288085938 c 0
 321.42578125 448.629882812 322.5625 448.454101562 323.327148438 448.109375 c 0
 323.375976562 448.086914062 323.393554688 448.049804688 323.440429688 448.026367188 c 1
 320.314453125 494.559570312 313.73828125 539.290039062 300.94140625 576.490234375 c 0
 290.775390625 606.043945312 276.717773438 630.798828125 257.5703125 648.090820312 c 0
 238.423828125 665.381835938 214.216796875 675.362304688 182.978515625 675.362304688 c 1
 182.978515625 675.36328125 l 1
182.978515625 681.4453125 m 0
 215.526367188 681.4453125 241.461914062 670.837890625 261.649414062 652.60546875 c 0
 281.837890625 634.373046875 296.306640625 608.665039062 306.6953125 578.470703125 c 0
 320.815429688 537.420898438 327.345703125 487.946289062 330.140625 437.116210938 c 0
 331.333007812 434.209960938 332.514648438 431.405273438 333.826171875 427.392578125 c 0
 337.491210938 416.1796875 341.549804688 400.857421875 345.333007812 383.140625 c 0
 352.8984375 347.705078125 359.346679688 302.73046875 358.995117188 262.283203125 c 0
 358.650390625 222.560546875 351.989257812 187.048828125 331.963867188 169.178710938 c 1
 331.37890625 79.5361328125 269.24609375 0.111328125 182.978515625 0.111328125 c 0
 96.353515625 0.111328125 34.0185546875 80.185546875 33.94140625 170.28125 c 0
 30.5615234375 190.177734375 36.7041015625 218.087890625 45.5791015625 247.810546875 c 0
 54.5068359375 277.705078125 66.33984375 309.291015625 74.73828125 335.19921875 c 0
 78.9375 348.154296875 82.2744140625 359.698242188 83.9599609375 368.767578125 c 0
 85.646484375 377.8359375 85.2919921875 384.41015625 83.8525390625 386.75 c 0
 83.1337890625 387.91796875 82.505859375 388.3515625 80.8125 388.46875 c 0
 79.1181640625 388.586914062 76.337890625 388.033203125 72.6083984375 386.366210938 c 0
 65.150390625 383.03515625 54.0400390625 375.459960938 38.931640625 362.783203125 c 0
 38.4638671875 362.388671875 37.587890625 362.071289062 36.9765625 362.071289062 c 0
 35.2978515625 362.071289062 33.9345703125 363.43359375 33.9345703125 365.112304688 c 0
 33.9345703125 439.536132812 38.4873046875 518.081054688 59.2607421875 578.470703125 c 0
 69.6484375 608.665039062 84.1181640625 634.373046875 104.306640625 652.60546875 c 0
 124.493164062 670.837890625 150.4296875 681.4453125 182.978515625 681.4453125 c 0
EndSplineSet
Validated: 524321
EndChar

StartChar: P
Encoding: 80 80 38
Width: 377
GlyphClass: 2
Flags: MW
HStem: 0.0805664 21G 0.0805664 21G 289.069 6.33252 402.599 6.09753 529.361 5.97668 567.876 6.08142
VStem: 25.9758 6.06531 50.3981 6.05054 123.696 6.08142
LayerCount: 2
Fore
SplineSet
145.280273438 567.875976562 m 0x3f80
 130.762695312 567.697265625 114.3046875 563.876953125 97.630859375 556.5546875 c 1
 106.688476562 511.087890625 114.868164062 460.947265625 120.7109375 409.657226562 c 1
 133.934570312 411.383789062 147.673828125 410.693359375 160.790039062 408.024414062 c 0
 189.676757812 402.150390625 215.850585938 386.78515625 227.034179688 365.305664062 c 0
 232.625 354.56640625 234.303710938 342.223632812 230.428710938 329.345703125 c 0
 227.095703125 318.278320312 219.46484375 306.868164062 207.365234375 295.401367188 c 1
 238.059570312 296.620117188 267.9765625 304.764648438 291.877929688 319.51171875 c 0
 317.848632812 335.536132812 336.721679688 359.100585938 342.40234375 389.995117188 c 0
 349.393554688 428.017578125 335.102539062 462.634765625 308.286132812 488.0234375 c 0
 281.469726562 513.411132812 242.096679688 529.362304688 199.39453125 529.362304688 c 0
 197.984375 529.362304688 196.643554688 530.48828125 196.399414062 531.875976562 c 0
 194.19921875 544.342773438 188.16015625 553.212890625 179.3359375 559.15234375 c 0
 170.513671875 565.092773438 158.762695312 568.041015625 145.280273438 567.875976562 c 0x3f80
33.5537109375 747.584960938 m 0
 33.0751953125 746.859375 32.2734375 744.626953125 31.798828125 741.141601562 c 0
 30.8427734375 734.1328125 30.8056640625 722.12109375 32.0419921875 704.854492188 c 0
 34.462890625 671.073242188 41.7138671875 616.822265625 55.505859375 538.043945312 c 1
 66.8740234375 547.072265625 78.7890625 554.456054688 90.728515625 560.125976562 c 1
 89.4326171875 566.536132812 88.1240234375 572.85546875 86.798828125 579.057617188 c 0
 76.5830078125 626.912109375 65.60546875 668.272460938 55.822265625 698.213867188 c 0
 50.9306640625 713.184570312 46.3310546875 725.307617188 42.322265625 733.8828125 c 0
 40.3173828125 738.170898438 38.4541015625 741.57421875 36.84375 743.946289062 c 0
 35.353515625 746.142578125 34.0546875 747.278320312 33.5537109375 747.584960938 c 0
33.8701171875 753.8125 m 0
 34.5830078125 753.749023438 35.2705078125 753.559570312 35.8759765625 753.286132812 c 0
 38.2880859375 752.193359375 39.9833984375 750.155273438 41.87890625 747.361328125 c 0
 43.7744140625 744.568359375 45.7412109375 740.931640625 47.83203125 736.458984375 c 0
 52.0146484375 727.510742188 56.6650390625 715.220703125 61.6044921875 700.102539062 c 0
 71.484375 669.8671875 82.4951171875 628.349609375 92.7490234375 580.326171875 c 0
 93.9833984375 574.545898438 95.2060546875 568.66015625 96.4140625 562.69921875 c 1
 113.301757812 569.95703125 130.064453125 573.771484375 145.206054688 573.95703125 c 0
 159.616210938 574.135742188 172.616210938 571.009765625 182.733398438 564.197265625 c 0
 192.228515625 557.8046875 198.900390625 547.9921875 201.729492188 535.337890625 c 1
 245.03515625 534.766601562 284.918945312 518.521484375 312.46875 492.44140625 c 0
 340.516601562 465.887695312 355.762695312 429.025390625 348.383789062 388.895507812 c 0
 342.3671875 356.176757812 322.202148438 331.07421875 295.075195312 314.336914062 c 0
 267.948242188 297.59765625 233.857421875 289.0703125 199.39453125 289.0703125 c 0
 197.713867188 289.0703125 196.3515625 290.432617188 196.3515625 292.111328125 c 0
 196.3515625 292.89453125 196.83984375 293.9375 197.438476562 294.44140625 c 0
 212.713867188 307.258789062 221.16796875 319.689453125 224.603515625 331.102539062 c 0
 228.038085938 342.513671875 226.59375 352.978515625 221.638671875 362.49609375 c 0
 211.729492188 381.529296875 187.111328125 396.461914062 159.575195312 402.0625 c 0
 147.010742188 404.616210938 133.909179688 405.231445312 121.389648438 403.57421875 c 1
 126.944335938 353.116210938 130.202148438 301.741210938 129.778320312 252.885742188 c 0
 128.831054688 143.508789062 109.788085938 46.50390625 55.34765625 0.822265625 c 0
 54.8740234375 0.412109375 53.982421875 0.080078125 53.357421875 0.080078125 c 0xbf80
 51.6787109375 0.080078125 50.31640625 1.443359375 50.31640625 3.1220703125 c 0
 50.31640625 3.9208984375 50.818359375 4.978515625 51.4375 5.482421875 c 0
 103.1328125 48.859375 122.752929688 144.248046875 123.697265625 252.9375 c 0
 124.1171875 301.389648438 120.884765625 352.427734375 115.369140625 402.59765625 c 1
 102.698242188 400.123046875 90.83984375 395.1640625 81.029296875 387.342773438 c 0
 60.1572265625 370.702148438 47.853515625 341.044921875 56.3876953125 292.639648438 c 0
 56.4208984375 292.473632812 56.4501953125 292.200195312 56.4501953125 292.03125 c 0
 56.4501953125 290.352539062 55.0869140625 288.990234375 53.4072265625 288.990234375 c 0
 51.9599609375 288.990234375 50.6123046875 290.15234375 50.3994140625 291.583984375 c 0
 41.6123046875 341.415039062 54.4921875 373.965820312 77.2373046875 392.099609375 c 0
 88.0771484375 400.741210938 101.001953125 406.092773438 114.689453125 408.696289062 c 1
 108.927734375 459.348632812 100.876953125 508.912109375 91.9501953125 553.92578125 c 1
 79.6787109375 547.96484375 67.3994140625 540.119140625 55.7919921875 530.439453125 c 0
 55.287109375 529.803710938 54.21875 529.287109375 53.4072265625 529.287109375 c 0
 53.1796875 529.287109375 52.8193359375 529.333984375 52.599609375 529.395507812 c 0
 51.32421875 529.709960938 50.287109375 531.033203125 50.287109375 532.348632812 c 0
 50.287109375 532.389648438 50.2880859375 532.45703125 50.2919921875 532.499023438 c 0
 35.94921875 613.907226562 28.47265625 669.576171875 25.9765625 704.419921875 c 0
 24.7255859375 721.887695312 24.697265625 734.080078125 25.771484375 741.961914062 c 0
 26.30859375 745.901367188 27.01953125 748.766601562 28.5068359375 750.98828125 c 0
 29.2509765625 752.1015625 30.3017578125 753.11328125 31.7109375 753.58203125 c 0
 32.4130859375 753.817382812 33.154296875 753.876953125 33.8701171875 753.8125 c 0
EndSplineSet
Validated: 524321
EndChar

StartChar: Q
Encoding: 81 81 39
Width: 386
GlyphClass: 2
Flags: MW
HStem: 0.154419 6.03979 675.364 6.08142
VStem: 33.936 6.03711 179.938 6.08142 316.976 8.11169 325.939 6.02637 352.915 6.08276
LayerCount: 2
Fore
SplineSet
322.961914062 438.77734375 m 1
 322.8203125 436.28125 322.69140625 433.58203125 323.04296875 428.678710938 c 0
 323.370117188 424.122070312 324.243164062 417.278320312 325.086914062 410.5703125 c 1
 324.821289062 419.0703125 324.551757812 427.5078125 324.090820312 435.956054688 c 0
 323.802734375 436.62890625 323.434570312 437.829101562 323.1640625 438.40625 c 0
 323.087890625 438.5703125 323.038085938 438.62109375 322.961914062 438.77734375 c 1
182.978515625 675.36328125 m 1
 151.73828125 675.36328125 127.53125 665.3828125 108.384765625 648.090820312 c 0
 89.2373046875 630.798828125 75.1806640625 606.043945312 65.013671875 576.491210938 c 0
 45.2548828125 519.047851562 40.400390625 443.701171875 40.13671875 371.419921875 c 1
 52.625 381.532226562 62.703125 388.607421875 70.1259765625 391.921875 c 0
 74.3779296875 393.821289062 77.966796875 394.763671875 81.2333984375 394.537109375 c 0
 84.5 394.309570312 87.4208984375 392.561523438 89.03515625 389.936523438 c 0
 92.2646484375 384.684570312 91.720703125 377.224609375 89.9423828125 367.655273438 c 0
 88.1630859375 358.0859375 84.76171875 346.3828125 80.52734375 333.321289062 c 0
 72.0595703125 307.201171875 60.2509765625 275.67578125 51.41015625 246.069335938 c 0
 42.5673828125 216.461914062 36.85546875 188.649414062 39.9716796875 170.97265625 c 0
 39.9970703125 170.828125 40.0185546875 170.591796875 40.0205078125 170.4453125 c 0
 40.0205078125 83.078125 100.056640625 6.1943359375 182.978515625 6.1943359375 c 0
 265.899414062 6.1943359375 325.9375 83.078125 325.9375 170.4453125 c 0
 325.9375 171.228515625 326.423828125 172.272460938 327.024414062 172.776367188 c 0
 345.168945312 188.000976562 352.568359375 222.576171875 352.913085938 262.3359375 c 0
 353.2578125 302.095703125 346.876953125 346.775390625 339.384765625 381.872070312 c 0
 336.659179688 394.633789062 333.8359375 405.431640625 331.099609375 414.958007812 c 1
 331.671875 398.365234375 332.015625 381.724609375 332.015625 365.293945312 c 0
 332.020507812 365.233398438 332.0234375 365.133789062 332.0234375 365.072265625 c 0
 332.0234375 364.201171875 331.446289062 363.0859375 330.732421875 362.583007812 c 0
 330.53125 362.442382812 330.181640625 362.265625 329.947265625 362.189453125 c 0
 329.94140625 362.184570312 329.926757812 362.1796875 329.919921875 362.174804688 c 0
 329.915039062 362.174804688 329.908203125 362.173828125 329.904296875 362.173828125 c 0
 329.848632812 362.155273438 329.75390625 362.129882812 329.6953125 362.1171875 c 0
 329.668945312 362.109375 329.627929688 362.098632812 329.602539062 362.092773438 c 0
 329.55859375 362.084960938 329.486328125 362.072265625 329.442382812 362.06640625 c 0
 329.400390625 362.05859375 329.333007812 362.049804688 329.290039062 362.044921875 c 0
 329.248046875 362.041992188 329.181640625 362.037109375 329.139648438 362.034179688 c 0
 329.096679688 362.033203125 329.02734375 362.03125 328.984375 362.03125 c 2
 328.981445312 362.03125 l 2
 328.948242188 362.03125 328.893554688 362.032226562 328.860351562 362.033203125 c 0
 328.809570312 362.033203125 328.7265625 362.0390625 328.677734375 362.04296875 c 0
 328.650390625 362.044921875 328.607421875 362.052734375 328.58203125 362.056640625 c 0
 328.517578125 362.065429688 328.4140625 362.08203125 328.349609375 362.095703125 c 2
 328.34765625 362.095703125 l 1
 328.346679688 362.095703125 l 2
 328.266601562 362.112304688 328.13671875 362.147460938 328.056640625 362.173828125 c 0
 327.9765625 362.200195312 327.84765625 362.247070312 327.771484375 362.280273438 c 0
 327.692382812 362.313476562 327.572265625 362.375 327.498046875 362.415039062 c 0
 326.75390625 362.830078125 326.06640625 363.857421875 325.961914062 364.704101562 c 0
 320.669921875 394.734375 317.903320312 415.288085938 316.974609375 428.244140625 c 0
 316.509765625 434.734375 316.479492188 439.276367188 316.9140625 442.450195312 c 0
 317.129882812 444.038085938 317.361328125 445.28515625 318.2265625 446.580078125 c 0
 318.66015625 447.227539062 319.365234375 447.944335938 320.395507812 448.288085938 c 0
 321.42578125 448.629882812 322.5625 448.454101562 323.327148438 448.109375 c 0
 323.375976562 448.086914062 323.393554688 448.049804688 323.440429688 448.026367188 c 1
 320.314453125 494.559570312 313.73828125 539.290039062 300.94140625 576.490234375 c 0
 290.775390625 606.043945312 276.717773438 630.798828125 257.5703125 648.090820312 c 0
 238.423828125 665.381835938 214.216796875 675.362304688 182.978515625 675.362304688 c 1
 182.978515625 675.36328125 l 1
182.978515625 681.4453125 m 0
 215.526367188 681.4453125 241.461914062 670.837890625 261.649414062 652.60546875 c 0
 281.837890625 634.373046875 296.306640625 608.665039062 306.6953125 578.470703125 c 0
 320.815429688 537.420898438 327.345703125 487.946289062 330.140625 437.116210938 c 0
 331.333007812 434.209960938 332.514648438 431.405273438 333.826171875 427.392578125 c 0
 337.491210938 416.1796875 341.549804688 400.857421875 345.333007812 383.140625 c 0
 352.8984375 347.705078125 359.346679688 302.73046875 358.995117188 262.283203125 c 0
 358.650390625 222.560546875 351.989257812 187.048828125 331.963867188 169.178710938 c 1
 331.385742188 80.59375 270.69921875 1.9970703125 186.017578125 0.154296875 c 0
 186.017578125 0.1416015625 186.018554688 0.1240234375 186.018554688 0.111328125 c 0
 186.018554688 -43.6123046875 214.854492188 -82.060546875 256.830078125 -94.3037109375 c 0
 258.076171875 -94.634765625 259.086914062 -95.951171875 259.086914062 -97.2421875 c 0
 259.086914062 -98.9208984375 257.724609375 -100.284179688 256.044921875 -100.284179688 c 0
 255.784179688 -100.284179688 255.374023438 -100.220703125 255.125976562 -100.140625 c 0
 210.581054688 -87.150390625 179.9375 -46.2880859375 179.9375 0.111328125 c 2
 179.9375 0.1328125 l 1
 179.9375 0.154296875 l 1
 94.900390625 2.0048828125 34.0185546875 81.2431640625 33.94140625 170.28125 c 0
 30.5615234375 190.177734375 36.7041015625 218.087890625 45.5791015625 247.810546875 c 0
 54.5068359375 277.705078125 66.33984375 309.291015625 74.73828125 335.19921875 c 0
 78.9375 348.154296875 82.2744140625 359.698242188 83.9599609375 368.767578125 c 0
 85.646484375 377.8359375 85.2919921875 384.41015625 83.8525390625 386.75 c 0
 83.1337890625 387.91796875 82.505859375 388.3515625 80.8125 388.46875 c 0
 79.1181640625 388.586914062 76.337890625 388.033203125 72.6083984375 386.366210938 c 0
 65.150390625 383.03515625 54.0400390625 375.459960938 38.931640625 362.783203125 c 0
 38.4638671875 362.388671875 37.587890625 362.071289062 36.9765625 362.071289062 c 0
 35.2978515625 362.071289062 33.9345703125 363.43359375 33.9345703125 365.112304688 c 0
 33.9345703125 439.536132812 38.4873046875 518.081054688 59.2607421875 578.470703125 c 0
 69.6484375 608.665039062 84.1181640625 634.373046875 104.306640625 652.60546875 c 0
 124.493164062 670.837890625 150.4296875 681.4453125 182.978515625 681.4453125 c 0
EndSplineSet
Validated: 524321
EndChar

StartChar: R
Encoding: 82 82 40
Width: 379
GlyphClass: 2
Flags: MW
HStem: 0.0805664 21G 0.0805664 21G 289.069 6.08411 402.599 6.09753 529.361 5.99414 567.876 6.08142
VStem: 25.9758 6.06531 50.3981 6.05054 123.696 6.08142 342.351 6.08411
LayerCount: 2
Fore
SplineSet
145.280273438 567.875976562 m 0x3fc0
 130.762695312 567.697265625 114.3046875 563.876953125 97.630859375 556.5546875 c 1
 106.688476562 511.087890625 114.868164062 460.947265625 120.7109375 409.657226562 c 1
 133.934570312 411.383789062 147.673828125 410.693359375 160.790039062 408.024414062 c 0
 189.676757812 402.150390625 215.850585938 386.78515625 227.034179688 365.305664062 c 0
 232.625 354.56640625 234.303710938 342.223632812 230.428710938 329.345703125 c 0
 227.103515625 318.301757812 219.498046875 306.916015625 207.446289062 295.475585938 c 1
 242.3046875 297.080078125 275.194335938 308.866210938 299.692382812 328.298828125 c 0
 326.075195312 349.227539062 342.775390625 378.694335938 342.353515625 413.7421875 c 0
 341.935546875 448.303710938 324.932617188 477.034179688 298.606445312 497.340820312 c 0
 272.282226562 517.645507812 236.615234375 529.362304688 199.39453125 529.362304688 c 0
 197.984375 529.362304688 196.643554688 530.48828125 196.399414062 531.875976562 c 0
 194.19921875 544.342773438 188.16015625 553.212890625 179.3359375 559.15234375 c 0
 170.513671875 565.092773438 158.762695312 568.041015625 145.280273438 567.875976562 c 0x3fc0
33.5537109375 747.584960938 m 0
 33.0751953125 746.859375 32.2734375 744.626953125 31.798828125 741.141601562 c 0
 30.8427734375 734.1328125 30.8056640625 722.12109375 32.0419921875 704.854492188 c 0
 34.462890625 671.073242188 41.7138671875 616.822265625 55.505859375 538.043945312 c 1
 66.8740234375 547.072265625 78.7890625 554.456054688 90.728515625 560.125976562 c 1
 89.4326171875 566.536132812 88.1240234375 572.85546875 86.798828125 579.057617188 c 0
 76.5830078125 626.912109375 65.60546875 668.272460938 55.822265625 698.213867188 c 0
 50.9306640625 713.184570312 46.3310546875 725.307617188 42.322265625 733.8828125 c 0
 40.3173828125 738.170898438 38.4541015625 741.57421875 36.84375 743.946289062 c 0
 35.353515625 746.142578125 34.0546875 747.278320312 33.5537109375 747.584960938 c 0
33.8701171875 753.8125 m 0
 34.5830078125 753.749023438 35.2705078125 753.559570312 35.8759765625 753.286132812 c 0
 38.2880859375 752.193359375 39.9833984375 750.155273438 41.87890625 747.361328125 c 0
 43.7744140625 744.568359375 45.7412109375 740.931640625 47.83203125 736.458984375 c 0
 52.0146484375 727.510742188 56.6650390625 715.220703125 61.6044921875 700.102539062 c 0
 71.484375 669.8671875 82.4951171875 628.349609375 92.7490234375 580.326171875 c 0
 93.9833984375 574.545898438 95.2060546875 568.66015625 96.4140625 562.69921875 c 1
 113.301757812 569.95703125 130.064453125 573.771484375 145.206054688 573.95703125 c 0
 159.616210938 574.135742188 172.616210938 571.009765625 182.733398438 564.197265625 c 0
 192.223632812 557.80859375 198.895507812 548.000976562 201.727539062 535.356445312 c 1
 239.372070312 534.875976562 275.352539062 522.961914062 302.323242188 502.158203125 c 0
 329.853515625 480.923828125 347.994140625 450.340820312 348.434570312 413.81640625 c 0
 348.881835938 376.784179688 331.065429688 345.418945312 303.47265625 323.533203125 c 0
 278.598632812 303.801757812 245.790039062 291.640625 210.892578125 289.436523438 c 1
 253.303710938 276.94921875 285.078125 244.877929688 307.116210938 202.421875 c 0
 335.709960938 147.331054688 348.434570312 74.69921875 348.434570312 3.1533203125 c 0
 348.435546875 3.1328125 348.435546875 3.1025390625 348.435546875 3.08203125 c 0
 348.435546875 1.4033203125 347.072265625 0.041015625 345.393554688 0.041015625 c 0
 343.713867188 0.041015625 342.3515625 1.4033203125 342.3515625 3.08203125 c 0
 342.3515625 3.1025390625 342.3515625 3.1328125 342.353515625 3.1533203125 c 0
 342.353515625 73.97265625 329.638671875 145.8203125 301.715820312 199.618164062 c 0
 273.790039062 253.41796875 231.161132812 289.0703125 170.194335938 289.0703125 c 0
 168.514648438 289.0703125 167.151367188 290.432617188 167.151367188 292.112304688 c 0
 167.151367188 293.790039062 168.514648438 295.153320312 170.194335938 295.153320312 c 0
 179.330078125 295.153320312 188.069335938 294.346679688 196.4453125 292.842773438 c 0
 196.575195312 293.373046875 197.020507812 294.088867188 197.438476562 294.44140625 c 0
 212.713867188 307.258789062 221.16796875 319.689453125 224.603515625 331.102539062 c 0
 228.038085938 342.513671875 226.59375 352.978515625 221.638671875 362.49609375 c 0
 211.729492188 381.529296875 187.111328125 396.461914062 159.575195312 402.0625 c 0
 147.010742188 404.616210938 133.909179688 405.231445312 121.389648438 403.57421875 c 1
 126.944335938 353.116210938 130.202148438 301.741210938 129.778320312 252.885742188 c 0
 128.831054688 143.508789062 109.788085938 46.50390625 55.34765625 0.822265625 c 0
 54.8740234375 0.412109375 53.982421875 0.080078125 53.357421875 0.080078125 c 0xbfc0
 51.6787109375 0.080078125 50.31640625 1.443359375 50.31640625 3.1220703125 c 0
 50.31640625 3.9208984375 50.818359375 4.978515625 51.4375 5.482421875 c 0
 103.1328125 48.859375 122.752929688 144.248046875 123.697265625 252.9375 c 0
 124.1171875 301.389648438 120.884765625 352.427734375 115.369140625 402.59765625 c 1
 102.698242188 400.123046875 90.83984375 395.1640625 81.029296875 387.342773438 c 0
 60.1572265625 370.702148438 47.853515625 341.044921875 56.3876953125 292.639648438 c 0
 56.4208984375 292.473632812 56.4501953125 292.200195312 56.4501953125 292.03125 c 0
 56.4501953125 290.352539062 55.0869140625 288.990234375 53.4072265625 288.990234375 c 0
 51.9599609375 288.990234375 50.6123046875 290.15234375 50.3994140625 291.583984375 c 0
 41.6123046875 341.415039062 54.4921875 373.965820312 77.2373046875 392.099609375 c 0
 88.0771484375 400.741210938 101.001953125 406.092773438 114.689453125 408.696289062 c 1
 108.927734375 459.348632812 100.876953125 508.912109375 91.9501953125 553.92578125 c 1
 79.6787109375 547.96484375 67.3994140625 540.119140625 55.7919921875 530.439453125 c 0
 55.287109375 529.803710938 54.21875 529.287109375 53.4072265625 529.287109375 c 0
 53.1796875 529.287109375 52.8193359375 529.333984375 52.599609375 529.395507812 c 0
 51.32421875 529.709960938 50.287109375 531.033203125 50.287109375 532.348632812 c 0
 50.287109375 532.389648438 50.2880859375 532.45703125 50.2919921875 532.499023438 c 0
 35.94921875 613.907226562 28.47265625 669.576171875 25.9765625 704.419921875 c 0
 24.7255859375 721.887695312 24.697265625 734.080078125 25.771484375 741.961914062 c 0
 26.30859375 745.901367188 27.01953125 748.766601562 28.5068359375 750.98828125 c 0
 29.2509765625 752.1015625 30.3017578125 753.11328125 31.7109375 753.58203125 c 0
 32.4130859375 753.817382812 33.154296875 753.876953125 33.8701171875 753.8125 c 0
EndSplineSet
Validated: 524321
EndChar

